%TF.GenerationSoftware,KiCad,Pcbnew,8.0.7*%
%TF.CreationDate,2024-12-24T22:10:03+05:30*%
%TF.ProjectId,hello,68656c6c-6f2e-46b6-9963-61645f706362,rev?*%
%TF.SameCoordinates,Original*%
%TF.FileFunction,Legend,Top*%
%TF.FilePolarity,Positive*%
%FSLAX46Y46*%
G04 Gerber Fmt 4.6, Leading zero omitted, Abs format (unit mm)*
G04 Created by KiCad (PCBNEW 8.0.7) date 2024-12-24 22:10:03*
%MOMM*%
%LPD*%
G01*
G04 APERTURE LIST*
%ADD10C,0.150000*%
%ADD11C,0.100000*%
%ADD12C,0.120000*%
%ADD13C,0.127000*%
%ADD14C,0.853219*%
%ADD15C,0.812000*%
G04 APERTURE END LIST*
D10*
X91996666Y-92719819D02*
X91996666Y-93434104D01*
X91996666Y-93434104D02*
X91949047Y-93576961D01*
X91949047Y-93576961D02*
X91853809Y-93672200D01*
X91853809Y-93672200D02*
X91710952Y-93719819D01*
X91710952Y-93719819D02*
X91615714Y-93719819D01*
X92901428Y-93053152D02*
X92901428Y-93719819D01*
X92663333Y-92672200D02*
X92425238Y-93386485D01*
X92425238Y-93386485D02*
X93044285Y-93386485D01*
X91996666Y-100219819D02*
X91996666Y-100934104D01*
X91996666Y-100934104D02*
X91949047Y-101076961D01*
X91949047Y-101076961D02*
X91853809Y-101172200D01*
X91853809Y-101172200D02*
X91710952Y-101219819D01*
X91710952Y-101219819D02*
X91615714Y-101219819D01*
X92425238Y-100315057D02*
X92472857Y-100267438D01*
X92472857Y-100267438D02*
X92568095Y-100219819D01*
X92568095Y-100219819D02*
X92806190Y-100219819D01*
X92806190Y-100219819D02*
X92901428Y-100267438D01*
X92901428Y-100267438D02*
X92949047Y-100315057D01*
X92949047Y-100315057D02*
X92996666Y-100410295D01*
X92996666Y-100410295D02*
X92996666Y-100505533D01*
X92996666Y-100505533D02*
X92949047Y-100648390D01*
X92949047Y-100648390D02*
X92377619Y-101219819D01*
X92377619Y-101219819D02*
X92996666Y-101219819D01*
X130578095Y-109234819D02*
X130578095Y-110044342D01*
X130578095Y-110044342D02*
X130625714Y-110139580D01*
X130625714Y-110139580D02*
X130673333Y-110187200D01*
X130673333Y-110187200D02*
X130768571Y-110234819D01*
X130768571Y-110234819D02*
X130959047Y-110234819D01*
X130959047Y-110234819D02*
X131054285Y-110187200D01*
X131054285Y-110187200D02*
X131101904Y-110139580D01*
X131101904Y-110139580D02*
X131149523Y-110044342D01*
X131149523Y-110044342D02*
X131149523Y-109234819D01*
X131578095Y-109330057D02*
X131625714Y-109282438D01*
X131625714Y-109282438D02*
X131720952Y-109234819D01*
X131720952Y-109234819D02*
X131959047Y-109234819D01*
X131959047Y-109234819D02*
X132054285Y-109282438D01*
X132054285Y-109282438D02*
X132101904Y-109330057D01*
X132101904Y-109330057D02*
X132149523Y-109425295D01*
X132149523Y-109425295D02*
X132149523Y-109520533D01*
X132149523Y-109520533D02*
X132101904Y-109663390D01*
X132101904Y-109663390D02*
X131530476Y-110234819D01*
X131530476Y-110234819D02*
X132149523Y-110234819D01*
X83828095Y-118084819D02*
X83828095Y-118894342D01*
X83828095Y-118894342D02*
X83875714Y-118989580D01*
X83875714Y-118989580D02*
X83923333Y-119037200D01*
X83923333Y-119037200D02*
X84018571Y-119084819D01*
X84018571Y-119084819D02*
X84209047Y-119084819D01*
X84209047Y-119084819D02*
X84304285Y-119037200D01*
X84304285Y-119037200D02*
X84351904Y-118989580D01*
X84351904Y-118989580D02*
X84399523Y-118894342D01*
X84399523Y-118894342D02*
X84399523Y-118084819D01*
X84780476Y-118084819D02*
X85399523Y-118084819D01*
X85399523Y-118084819D02*
X85066190Y-118465771D01*
X85066190Y-118465771D02*
X85209047Y-118465771D01*
X85209047Y-118465771D02*
X85304285Y-118513390D01*
X85304285Y-118513390D02*
X85351904Y-118561009D01*
X85351904Y-118561009D02*
X85399523Y-118656247D01*
X85399523Y-118656247D02*
X85399523Y-118894342D01*
X85399523Y-118894342D02*
X85351904Y-118989580D01*
X85351904Y-118989580D02*
X85304285Y-119037200D01*
X85304285Y-119037200D02*
X85209047Y-119084819D01*
X85209047Y-119084819D02*
X84923333Y-119084819D01*
X84923333Y-119084819D02*
X84828095Y-119037200D01*
X84828095Y-119037200D02*
X84780476Y-118989580D01*
X85246666Y-92719819D02*
X85246666Y-93434104D01*
X85246666Y-93434104D02*
X85199047Y-93576961D01*
X85199047Y-93576961D02*
X85103809Y-93672200D01*
X85103809Y-93672200D02*
X84960952Y-93719819D01*
X84960952Y-93719819D02*
X84865714Y-93719819D01*
X86199047Y-92719819D02*
X85722857Y-92719819D01*
X85722857Y-92719819D02*
X85675238Y-93196009D01*
X85675238Y-93196009D02*
X85722857Y-93148390D01*
X85722857Y-93148390D02*
X85818095Y-93100771D01*
X85818095Y-93100771D02*
X86056190Y-93100771D01*
X86056190Y-93100771D02*
X86151428Y-93148390D01*
X86151428Y-93148390D02*
X86199047Y-93196009D01*
X86199047Y-93196009D02*
X86246666Y-93291247D01*
X86246666Y-93291247D02*
X86246666Y-93529342D01*
X86246666Y-93529342D02*
X86199047Y-93624580D01*
X86199047Y-93624580D02*
X86151428Y-93672200D01*
X86151428Y-93672200D02*
X86056190Y-93719819D01*
X86056190Y-93719819D02*
X85818095Y-93719819D01*
X85818095Y-93719819D02*
X85722857Y-93672200D01*
X85722857Y-93672200D02*
X85675238Y-93624580D01*
X131443667Y-78540200D02*
X131586524Y-78587819D01*
X131586524Y-78587819D02*
X131824619Y-78587819D01*
X131824619Y-78587819D02*
X131919857Y-78540200D01*
X131919857Y-78540200D02*
X131967476Y-78492580D01*
X131967476Y-78492580D02*
X132015095Y-78397342D01*
X132015095Y-78397342D02*
X132015095Y-78302104D01*
X132015095Y-78302104D02*
X131967476Y-78206866D01*
X131967476Y-78206866D02*
X131919857Y-78159247D01*
X131919857Y-78159247D02*
X131824619Y-78111628D01*
X131824619Y-78111628D02*
X131634143Y-78064009D01*
X131634143Y-78064009D02*
X131538905Y-78016390D01*
X131538905Y-78016390D02*
X131491286Y-77968771D01*
X131491286Y-77968771D02*
X131443667Y-77873533D01*
X131443667Y-77873533D02*
X131443667Y-77778295D01*
X131443667Y-77778295D02*
X131491286Y-77683057D01*
X131491286Y-77683057D02*
X131538905Y-77635438D01*
X131538905Y-77635438D02*
X131634143Y-77587819D01*
X131634143Y-77587819D02*
X131872238Y-77587819D01*
X131872238Y-77587819D02*
X132015095Y-77635438D01*
X132348429Y-77587819D02*
X132586524Y-78587819D01*
X132586524Y-78587819D02*
X132777000Y-77873533D01*
X132777000Y-77873533D02*
X132967476Y-78587819D01*
X132967476Y-78587819D02*
X133205572Y-77587819D01*
X134110333Y-78587819D02*
X133538905Y-78587819D01*
X133824619Y-78587819D02*
X133824619Y-77587819D01*
X133824619Y-77587819D02*
X133729381Y-77730676D01*
X133729381Y-77730676D02*
X133634143Y-77825914D01*
X133634143Y-77825914D02*
X133538905Y-77873533D01*
X92143333Y-85642319D02*
X91810000Y-85166128D01*
X91571905Y-85642319D02*
X91571905Y-84642319D01*
X91571905Y-84642319D02*
X91952857Y-84642319D01*
X91952857Y-84642319D02*
X92048095Y-84689938D01*
X92048095Y-84689938D02*
X92095714Y-84737557D01*
X92095714Y-84737557D02*
X92143333Y-84832795D01*
X92143333Y-84832795D02*
X92143333Y-84975652D01*
X92143333Y-84975652D02*
X92095714Y-85070890D01*
X92095714Y-85070890D02*
X92048095Y-85118509D01*
X92048095Y-85118509D02*
X91952857Y-85166128D01*
X91952857Y-85166128D02*
X91571905Y-85166128D01*
X93095714Y-85642319D02*
X92524286Y-85642319D01*
X92810000Y-85642319D02*
X92810000Y-84642319D01*
X92810000Y-84642319D02*
X92714762Y-84785176D01*
X92714762Y-84785176D02*
X92619524Y-84880414D01*
X92619524Y-84880414D02*
X92524286Y-84928033D01*
X189788509Y-79113214D02*
X189836128Y-78970357D01*
X189836128Y-78970357D02*
X189883747Y-78922738D01*
X189883747Y-78922738D02*
X189978985Y-78875119D01*
X189978985Y-78875119D02*
X190121842Y-78875119D01*
X190121842Y-78875119D02*
X190217080Y-78922738D01*
X190217080Y-78922738D02*
X190264700Y-78970357D01*
X190264700Y-78970357D02*
X190312319Y-79065595D01*
X190312319Y-79065595D02*
X190312319Y-79446547D01*
X190312319Y-79446547D02*
X189312319Y-79446547D01*
X189312319Y-79446547D02*
X189312319Y-79113214D01*
X189312319Y-79113214D02*
X189359938Y-79017976D01*
X189359938Y-79017976D02*
X189407557Y-78970357D01*
X189407557Y-78970357D02*
X189502795Y-78922738D01*
X189502795Y-78922738D02*
X189598033Y-78922738D01*
X189598033Y-78922738D02*
X189693271Y-78970357D01*
X189693271Y-78970357D02*
X189740890Y-79017976D01*
X189740890Y-79017976D02*
X189788509Y-79113214D01*
X189788509Y-79113214D02*
X189788509Y-79446547D01*
X189312319Y-78589404D02*
X189312319Y-78017976D01*
X190312319Y-78303690D02*
X189312319Y-78303690D01*
X190312319Y-77160833D02*
X190312319Y-77732261D01*
X190312319Y-77446547D02*
X189312319Y-77446547D01*
X189312319Y-77446547D02*
X189455176Y-77541785D01*
X189455176Y-77541785D02*
X189550414Y-77637023D01*
X189550414Y-77637023D02*
X189598033Y-77732261D01*
D11*
X121059095Y-98004419D02*
X121059095Y-98813942D01*
X121059095Y-98813942D02*
X121106714Y-98909180D01*
X121106714Y-98909180D02*
X121154333Y-98956800D01*
X121154333Y-98956800D02*
X121249571Y-99004419D01*
X121249571Y-99004419D02*
X121440047Y-99004419D01*
X121440047Y-99004419D02*
X121535285Y-98956800D01*
X121535285Y-98956800D02*
X121582904Y-98909180D01*
X121582904Y-98909180D02*
X121630523Y-98813942D01*
X121630523Y-98813942D02*
X121630523Y-98004419D01*
X122630523Y-99004419D02*
X122059095Y-99004419D01*
X122344809Y-99004419D02*
X122344809Y-98004419D01*
X122344809Y-98004419D02*
X122249571Y-98147276D01*
X122249571Y-98147276D02*
X122154333Y-98242514D01*
X122154333Y-98242514D02*
X122059095Y-98290133D01*
D10*
X88813333Y-83477319D02*
X88480000Y-83001128D01*
X88241905Y-83477319D02*
X88241905Y-82477319D01*
X88241905Y-82477319D02*
X88622857Y-82477319D01*
X88622857Y-82477319D02*
X88718095Y-82524938D01*
X88718095Y-82524938D02*
X88765714Y-82572557D01*
X88765714Y-82572557D02*
X88813333Y-82667795D01*
X88813333Y-82667795D02*
X88813333Y-82810652D01*
X88813333Y-82810652D02*
X88765714Y-82905890D01*
X88765714Y-82905890D02*
X88718095Y-82953509D01*
X88718095Y-82953509D02*
X88622857Y-83001128D01*
X88622857Y-83001128D02*
X88241905Y-83001128D01*
X89194286Y-82572557D02*
X89241905Y-82524938D01*
X89241905Y-82524938D02*
X89337143Y-82477319D01*
X89337143Y-82477319D02*
X89575238Y-82477319D01*
X89575238Y-82477319D02*
X89670476Y-82524938D01*
X89670476Y-82524938D02*
X89718095Y-82572557D01*
X89718095Y-82572557D02*
X89765714Y-82667795D01*
X89765714Y-82667795D02*
X89765714Y-82763033D01*
X89765714Y-82763033D02*
X89718095Y-82905890D01*
X89718095Y-82905890D02*
X89146667Y-83477319D01*
X89146667Y-83477319D02*
X89765714Y-83477319D01*
X85246666Y-99969819D02*
X85246666Y-100684104D01*
X85246666Y-100684104D02*
X85199047Y-100826961D01*
X85199047Y-100826961D02*
X85103809Y-100922200D01*
X85103809Y-100922200D02*
X84960952Y-100969819D01*
X84960952Y-100969819D02*
X84865714Y-100969819D01*
X85627619Y-99969819D02*
X86246666Y-99969819D01*
X86246666Y-99969819D02*
X85913333Y-100350771D01*
X85913333Y-100350771D02*
X86056190Y-100350771D01*
X86056190Y-100350771D02*
X86151428Y-100398390D01*
X86151428Y-100398390D02*
X86199047Y-100446009D01*
X86199047Y-100446009D02*
X86246666Y-100541247D01*
X86246666Y-100541247D02*
X86246666Y-100779342D01*
X86246666Y-100779342D02*
X86199047Y-100874580D01*
X86199047Y-100874580D02*
X86151428Y-100922200D01*
X86151428Y-100922200D02*
X86056190Y-100969819D01*
X86056190Y-100969819D02*
X85770476Y-100969819D01*
X85770476Y-100969819D02*
X85675238Y-100922200D01*
X85675238Y-100922200D02*
X85627619Y-100874580D01*
X88746666Y-106969819D02*
X88746666Y-107684104D01*
X88746666Y-107684104D02*
X88699047Y-107826961D01*
X88699047Y-107826961D02*
X88603809Y-107922200D01*
X88603809Y-107922200D02*
X88460952Y-107969819D01*
X88460952Y-107969819D02*
X88365714Y-107969819D01*
X89746666Y-107969819D02*
X89175238Y-107969819D01*
X89460952Y-107969819D02*
X89460952Y-106969819D01*
X89460952Y-106969819D02*
X89365714Y-107112676D01*
X89365714Y-107112676D02*
X89270476Y-107207914D01*
X89270476Y-107207914D02*
X89175238Y-107255533D01*
D12*
%TO.C,J4*%
X91000000Y-90555000D02*
X91000000Y-90435000D01*
X91000000Y-91890000D02*
X91000000Y-91130000D01*
X91570000Y-90435000D02*
X91000000Y-90435000D01*
X92330000Y-91890000D02*
X91000000Y-91890000D01*
X93660000Y-90435000D02*
X93090000Y-90435000D01*
X93660000Y-90555000D02*
X93660000Y-90435000D01*
%TO.C,J2*%
X93660000Y-98055000D02*
X93660000Y-97935000D01*
X93660000Y-97935000D02*
X93090000Y-97935000D01*
X92330000Y-99390000D02*
X91000000Y-99390000D01*
X91570000Y-97935000D02*
X91000000Y-97935000D01*
X91000000Y-99390000D02*
X91000000Y-98630000D01*
X91000000Y-98055000D02*
X91000000Y-97935000D01*
%TO.C,U2*%
X138845000Y-111110000D02*
X138845000Y-110087530D01*
X138845000Y-109472470D02*
X138845000Y-108450000D01*
X134975000Y-111110000D02*
X138845000Y-111110000D01*
X134975000Y-111110000D02*
X134975000Y-110540000D01*
X134975000Y-109020000D02*
X134975000Y-108450000D01*
X134975000Y-108450000D02*
X138845000Y-108450000D01*
X133580000Y-109780000D02*
X133580000Y-108450000D01*
X133580000Y-108450000D02*
X134340000Y-108450000D01*
%TO.C,U3*%
X86520000Y-117300000D02*
X87280000Y-117300000D01*
X86520000Y-118630000D02*
X86520000Y-117300000D01*
X87915000Y-117300000D02*
X93055000Y-117300000D01*
X87915000Y-117870000D02*
X87915000Y-117300000D01*
X87915000Y-119960000D02*
X87915000Y-119390000D01*
X87915000Y-119960000D02*
X93055000Y-119960000D01*
X93055000Y-118322470D02*
X93055000Y-117300000D01*
X93055000Y-119960000D02*
X93055000Y-118937530D01*
%TO.C,J5*%
X86910000Y-90555000D02*
X86910000Y-90435000D01*
X86910000Y-90435000D02*
X86340000Y-90435000D01*
X85580000Y-91890000D02*
X84250000Y-91890000D01*
X84820000Y-90435000D02*
X84250000Y-90435000D01*
X84250000Y-91890000D02*
X84250000Y-91130000D01*
X84250000Y-90555000D02*
X84250000Y-90435000D01*
D13*
%TO.C,SW1*%
X129348000Y-79276000D02*
X141540000Y-79276000D01*
X129348000Y-91468000D02*
X129348000Y-79276000D01*
X141540000Y-79276000D02*
X141540000Y-91468000D01*
X141540000Y-91468000D02*
X129348000Y-91468000D01*
X138238000Y-85372000D02*
G75*
G02*
X132650000Y-85372000I-2794000J0D01*
G01*
X132650000Y-85372000D02*
G75*
G02*
X138238000Y-85372000I2794000J0D01*
G01*
D12*
%TO.C,R1*%
X92939905Y-82518141D02*
G75*
G02*
X92842867Y-83967500I320095J-749359D01*
G01*
%TO.C,BT1*%
X188857500Y-75327500D02*
X188857500Y-78327500D01*
X188477500Y-128577500D02*
X150737500Y-128577500D01*
X188477500Y-75707500D02*
X188477500Y-128577500D01*
X188477500Y-75707500D02*
X150737500Y-75707500D01*
X185857500Y-75327500D02*
X188857500Y-75327500D01*
X150737500Y-75707500D02*
X150737500Y-128577500D01*
%TO.C,U1*%
D14*
X117784109Y-120841500D02*
G75*
G02*
X116930891Y-120841500I-426609J0D01*
G01*
X116930891Y-120841500D02*
G75*
G02*
X117784109Y-120841500I426609J0D01*
G01*
X117784109Y-79947500D02*
G75*
G02*
X116930891Y-79947500I-426609J0D01*
G01*
X116930891Y-79947500D02*
G75*
G02*
X117784109Y-79947500I426609J0D01*
G01*
D15*
X102523500Y-120841500D02*
G75*
G02*
X101711500Y-120841500I-406000J0D01*
G01*
X101711500Y-120841500D02*
G75*
G02*
X102523500Y-120841500I406000J0D01*
G01*
X102523500Y-79947500D02*
G75*
G02*
X101711500Y-79947500I-406000J0D01*
G01*
X101711500Y-79947500D02*
G75*
G02*
X102523500Y-79947500I406000J0D01*
G01*
D12*
X118607500Y-78697500D02*
X100847500Y-78697500D01*
X100847500Y-122111500D01*
X118607500Y-122111500D01*
X118607500Y-78697500D01*
D11*
X101863500Y-120841500D02*
X102117500Y-120841500D01*
D12*
%TO.C,R2*%
X86990000Y-84622500D02*
X86230000Y-84622500D01*
X86990000Y-83292500D02*
X86990000Y-84622500D01*
X85595000Y-84622500D02*
X84265000Y-84622500D01*
X85595000Y-84052500D02*
X85595000Y-84622500D01*
X85595000Y-81962500D02*
X85595000Y-82532500D01*
X85595000Y-81962500D02*
X84265000Y-81962500D01*
X84265000Y-83600030D02*
X84265000Y-84622500D01*
X84265000Y-81962500D02*
X84265000Y-82984970D01*
%TO.C,J3*%
X84250000Y-97805000D02*
X84250000Y-97685000D01*
X84250000Y-99140000D02*
X84250000Y-98380000D01*
X84820000Y-97685000D02*
X84250000Y-97685000D01*
X85580000Y-99140000D02*
X84250000Y-99140000D01*
X86910000Y-97685000D02*
X86340000Y-97685000D01*
X86910000Y-97805000D02*
X86910000Y-97685000D01*
%TO.C,J1*%
X87750000Y-104805000D02*
X87750000Y-104685000D01*
X87750000Y-106140000D02*
X87750000Y-105380000D01*
X88320000Y-104685000D02*
X87750000Y-104685000D01*
X89080000Y-106140000D02*
X87750000Y-106140000D01*
X90410000Y-104685000D02*
X89840000Y-104685000D01*
X90410000Y-104805000D02*
X90410000Y-104685000D01*
%TD*%
M02*
