%TF.GenerationSoftware,KiCad,Pcbnew,8.0.7*%
%TF.CreationDate,2024-12-24T22:10:03+05:30*%
%TF.ProjectId,hello,68656c6c-6f2e-46b6-9963-61645f706362,rev?*%
%TF.SameCoordinates,Original*%
%TF.FileFunction,Soldermask,Top*%
%TF.FilePolarity,Negative*%
%FSLAX46Y46*%
G04 Gerber Fmt 4.6, Leading zero omitted, Abs format (unit mm)*
G04 Created by KiCad (PCBNEW 8.0.7) date 2024-12-24 22:10:03*
%MOMM*%
%LPD*%
G01*
G04 APERTURE LIST*
%ADD10R,1.000000X1.000000*%
%ADD11O,1.000000X1.000000*%
%ADD12C,3.204000*%
%ADD13C,1.400000*%
%ADD14O,1.400000X1.400000*%
%ADD15C,3.000000*%
%ADD16R,3.000000X3.000000*%
%ADD17C,3.450000*%
%ADD18C,1.524000*%
%ADD19R,1.524000X1.524000*%
G04 APERTURE END LIST*
D10*
%TO.C,J4*%
X92330000Y-91130000D03*
%TD*%
%TO.C,J2*%
X92330000Y-98630000D03*
%TD*%
%TO.C,U2*%
X134340000Y-109780000D03*
D11*
X135610000Y-109780000D03*
X136880000Y-109780000D03*
X138150000Y-109780000D03*
%TD*%
%TO.C,U3*%
X92360000Y-118630000D03*
X91090000Y-118630000D03*
X89820000Y-118630000D03*
X88550000Y-118630000D03*
D10*
X87280000Y-118630000D03*
%TD*%
%TO.C,J5*%
X85580000Y-91130000D03*
%TD*%
D12*
%TO.C,SW1*%
X139000000Y-93500000D03*
X131888000Y-93500000D03*
%TD*%
D13*
%TO.C,R1*%
X93260000Y-83267500D03*
D14*
X91360000Y-83267500D03*
%TD*%
D15*
%TO.C,BT1*%
X168657500Y-78417500D03*
D16*
X181357500Y-78417500D03*
D17*
X157857500Y-102137500D03*
X181357500Y-102137500D03*
%TD*%
D18*
%TO.C,U1*%
X117357500Y-82487500D03*
X117357500Y-85027500D03*
X117357500Y-87567500D03*
X117357500Y-90107500D03*
X117357500Y-92647500D03*
X117357500Y-95187500D03*
X117357500Y-97727500D03*
X117357500Y-100267500D03*
X117357500Y-102807500D03*
X117357500Y-105347500D03*
X117357500Y-107887500D03*
X117357500Y-110427500D03*
X117357500Y-112967500D03*
X117357500Y-115507500D03*
X117357500Y-118047500D03*
X102117500Y-118047500D03*
X102117500Y-115507500D03*
X102117500Y-112967500D03*
X102117500Y-110427500D03*
X102117500Y-107887500D03*
X102117500Y-105347500D03*
X102117500Y-102807500D03*
X102117500Y-100267500D03*
X102117500Y-97727500D03*
X102117500Y-95187500D03*
X102117500Y-92647500D03*
X102117500Y-90107500D03*
X102117500Y-87567500D03*
X102117500Y-85027500D03*
D19*
X102117500Y-82487500D03*
%TD*%
D11*
%TO.C,R2*%
X84960000Y-83292500D03*
D10*
X86230000Y-83292500D03*
%TD*%
%TO.C,J3*%
X85580000Y-98380000D03*
%TD*%
%TO.C,J1*%
X89080000Y-105380000D03*
%TD*%
M02*
