%TF.GenerationSoftware,KiCad,Pcbnew,8.0.7*%
%TF.CreationDate,2024-12-24T22:09:44+05:30*%
%TF.ProjectId,hello,68656c6c-6f2e-46b6-9963-61645f706362,rev?*%
%TF.SameCoordinates,Original*%
%TF.FileFunction,Plated,1,2,PTH,Drill*%
%TF.FilePolarity,Positive*%
%FSLAX46Y46*%
G04 Gerber Fmt 4.6, Leading zero omitted, Abs format (unit mm)*
G04 Created by KiCad (PCBNEW 8.0.7) date 2024-12-24 22:09:44*
%MOMM*%
%LPD*%
G01*
G04 APERTURE LIST*
%TA.AperFunction,ComponentDrill*%
%ADD10C,0.700000*%
%TD*%
%TA.AperFunction,ComponentDrill*%
%ADD11C,0.762000*%
%TD*%
%TA.AperFunction,ComponentDrill*%
%ADD12C,1.100000*%
%TD*%
%TA.AperFunction,ComponentDrill*%
%ADD13C,2.000000*%
%TD*%
G04 APERTURE END LIST*
D10*
%TO.C,R2*%
X84960000Y-83292500D03*
%TO.C,J5*%
X85580000Y-91130000D03*
%TO.C,J3*%
X85580000Y-98380000D03*
%TO.C,R2*%
X86230000Y-83292500D03*
%TO.C,U3*%
X87280000Y-118630000D03*
X88550000Y-118630000D03*
%TO.C,J1*%
X89080000Y-105380000D03*
%TO.C,U3*%
X89820000Y-118630000D03*
X91090000Y-118630000D03*
%TO.C,R1*%
X91360000Y-83267500D03*
%TO.C,J4*%
X92330000Y-91130000D03*
%TO.C,J2*%
X92330000Y-98630000D03*
%TO.C,U3*%
X92360000Y-118630000D03*
%TO.C,R1*%
X93260000Y-83267500D03*
%TO.C,U2*%
X134340000Y-109780000D03*
X135610000Y-109780000D03*
X136880000Y-109780000D03*
X138150000Y-109780000D03*
D11*
%TO.C,U1*%
X102117500Y-82487500D03*
X102117500Y-85027500D03*
X102117500Y-87567500D03*
X102117500Y-90107500D03*
X102117500Y-92647500D03*
X102117500Y-95187500D03*
X102117500Y-97727500D03*
X102117500Y-100267500D03*
X102117500Y-102807500D03*
X102117500Y-105347500D03*
X102117500Y-107887500D03*
X102117500Y-110427500D03*
X102117500Y-112967500D03*
X102117500Y-115507500D03*
X102117500Y-118047500D03*
X117357500Y-82487500D03*
X117357500Y-85027500D03*
X117357500Y-87567500D03*
X117357500Y-90107500D03*
X117357500Y-92647500D03*
X117357500Y-95187500D03*
X117357500Y-97727500D03*
X117357500Y-100267500D03*
X117357500Y-102807500D03*
X117357500Y-105347500D03*
X117357500Y-107887500D03*
X117357500Y-110427500D03*
X117357500Y-112967500D03*
X117357500Y-115507500D03*
X117357500Y-118047500D03*
D12*
%TO.C,BT1*%
X168657500Y-78417500D03*
X181357500Y-78417500D03*
D13*
%TO.C,SW1*%
X131888000Y-93500000D03*
X139000000Y-93500000D03*
M02*
