%TF.GenerationSoftware,KiCad,Pcbnew,8.0.7*%
%TF.CreationDate,2024-12-24T22:10:03+05:30*%
%TF.ProjectId,hello,68656c6c-6f2e-46b6-9963-61645f706362,rev?*%
%TF.SameCoordinates,Original*%
%TF.FileFunction,Copper,L2,Bot*%
%TF.FilePolarity,Positive*%
%FSLAX46Y46*%
G04 Gerber Fmt 4.6, Leading zero omitted, Abs format (unit mm)*
G04 Created by KiCad (PCBNEW 8.0.7) date 2024-12-24 22:10:03*
%MOMM*%
%LPD*%
G01*
G04 APERTURE LIST*
%TA.AperFunction,ComponentPad*%
%ADD10R,1.000000X1.000000*%
%TD*%
%TA.AperFunction,ComponentPad*%
%ADD11O,1.000000X1.000000*%
%TD*%
%TA.AperFunction,ComponentPad*%
%ADD12C,3.000000*%
%TD*%
%TA.AperFunction,ComponentPad*%
%ADD13C,1.400000*%
%TD*%
%TA.AperFunction,ComponentPad*%
%ADD14O,1.400000X1.400000*%
%TD*%
%TA.AperFunction,ComponentPad*%
%ADD15R,3.000000X3.000000*%
%TD*%
%TA.AperFunction,ComponentPad*%
%ADD16C,1.524000*%
%TD*%
%TA.AperFunction,ComponentPad*%
%ADD17R,1.524000X1.524000*%
%TD*%
%TA.AperFunction,Conductor*%
%ADD18C,0.300000*%
%TD*%
%TA.AperFunction,Conductor*%
%ADD19C,0.500000*%
%TD*%
G04 APERTURE END LIST*
D10*
%TO.P,J4,1,Pin_1*%
%TO.N,cont*%
X92330000Y-91130000D03*
%TD*%
%TO.P,J2,1,Pin_1*%
%TO.N,volt*%
X92330000Y-98630000D03*
%TD*%
%TO.P,U2,1,GND*%
%TO.N,GND*%
X134340000Y-109780000D03*
D11*
%TO.P,U2,2,VCC*%
%TO.N,+5V*%
X135610000Y-109780000D03*
%TO.P,U2,3,SCL*%
%TO.N,SCL*%
X136880000Y-109780000D03*
%TO.P,U2,4,SDA*%
%TO.N,SDA*%
X138150000Y-109780000D03*
%TD*%
%TO.P,U3,5,CLK*%
%TO.N,CLK*%
X92360000Y-118630000D03*
%TO.P,U3,4,DT*%
%TO.N,DT*%
X91090000Y-118630000D03*
%TO.P,U3,3,SW*%
%TO.N,unconnected-(U3-SW-Pad3)*%
X89820000Y-118630000D03*
%TO.P,U3,2,VCC*%
%TO.N,+5V*%
X88550000Y-118630000D03*
D10*
%TO.P,U3,1,GND*%
%TO.N,GND*%
X87280000Y-118630000D03*
%TD*%
%TO.P,J5,1,Pin_1*%
%TO.N,GND*%
X85580000Y-91130000D03*
%TD*%
D12*
%TO.P,SW1,P,B*%
%TO.N,/switch*%
X139000000Y-93500000D03*
%TO.P,SW1,T,A*%
%TO.N,GND*%
X131888000Y-93500000D03*
%TD*%
D13*
%TO.P,R1,1*%
%TO.N,+5V*%
X93260000Y-83267500D03*
D14*
%TO.P,R1,2*%
%TO.N,ohmmeter*%
X91360000Y-83267500D03*
%TD*%
D12*
%TO.P,BT1,2,-*%
%TO.N,/switch*%
X168657500Y-78417500D03*
D15*
%TO.P,BT1,1,+*%
%TO.N,+5V*%
X181357500Y-78417500D03*
%TD*%
D16*
%TO.P,U1,30,VIN*%
%TO.N,+5V*%
X117357500Y-82487500D03*
%TO.P,U1,29,GND*%
%TO.N,unconnected-(U1-GND-Pad29)*%
X117357500Y-85027500D03*
%TO.P,U1,28,RST*%
%TO.N,unconnected-(U1-RST-Pad28)*%
X117357500Y-87567500D03*
%TO.P,U1,27,5V*%
%TO.N,unconnected-(U1-5V-Pad27)*%
X117357500Y-90107500D03*
%TO.P,U1,26,A7*%
%TO.N,unconnected-(U1-A7-Pad26)*%
X117357500Y-92647500D03*
%TO.P,U1,25,A6*%
%TO.N,unconnected-(U1-A6-Pad25)*%
X117357500Y-95187500D03*
%TO.P,U1,24,A5/SCL*%
%TO.N,SCL*%
X117357500Y-97727500D03*
%TO.P,U1,23,A4/SDA*%
%TO.N,SDA*%
X117357500Y-100267500D03*
%TO.P,U1,22,A3*%
%TO.N,unconnected-(U1-A3-Pad22)*%
X117357500Y-102807500D03*
%TO.P,U1,21,A2*%
%TO.N,common*%
X117357500Y-105347500D03*
%TO.P,U1,20,A1*%
%TO.N,ohmmeter*%
X117357500Y-107887500D03*
%TO.P,U1,19,A0*%
%TO.N,volt*%
X117357500Y-110427500D03*
%TO.P,U1,18,REF*%
%TO.N,unconnected-(U1-REF-Pad18)*%
X117357500Y-112967500D03*
%TO.P,U1,17,3V3*%
%TO.N,unconnected-(U1-3V3-Pad17)*%
X117357500Y-115507500D03*
%TO.P,U1,16,D13*%
%TO.N,unconnected-(U1-D13-Pad16)*%
X117357500Y-118047500D03*
%TO.P,U1,15,D12*%
%TO.N,unconnected-(U1-D12-Pad15)*%
X102117500Y-118047500D03*
%TO.P,U1,14,D11*%
%TO.N,unconnected-(U1-D11-Pad14)*%
X102117500Y-115507500D03*
%TO.P,U1,13,D10*%
%TO.N,unconnected-(U1-D10-Pad13)*%
X102117500Y-112967500D03*
%TO.P,U1,12,D9*%
%TO.N,unconnected-(U1-D9-Pad12)*%
X102117500Y-110427500D03*
%TO.P,U1,11,D8*%
%TO.N,unconnected-(U1-D8-Pad11)*%
X102117500Y-107887500D03*
%TO.P,U1,10,D7*%
%TO.N,unconnected-(U1-D7-Pad10)*%
X102117500Y-105347500D03*
%TO.P,U1,9,D6*%
%TO.N,unconnected-(U1-D6-Pad9)*%
X102117500Y-102807500D03*
%TO.P,U1,8,D5*%
%TO.N,DT*%
X102117500Y-100267500D03*
%TO.P,U1,7,D4*%
%TO.N,CLK*%
X102117500Y-97727500D03*
%TO.P,U1,6,D3*%
%TO.N,cont*%
X102117500Y-95187500D03*
%TO.P,U1,5,D2*%
%TO.N,pwm*%
X102117500Y-92647500D03*
%TO.P,U1,4,GND*%
%TO.N,unconnected-(U1-GND-Pad4)*%
X102117500Y-90107500D03*
%TO.P,U1,3,RST*%
%TO.N,unconnected-(U1-RST-Pad3)*%
X102117500Y-87567500D03*
%TO.P,U1,2,D0/RX*%
%TO.N,unconnected-(U1-D0{slash}RX-Pad2)*%
X102117500Y-85027500D03*
D17*
%TO.P,U1,1,D1/TX*%
%TO.N,unconnected-(U1-D1{slash}TX-Pad1)*%
X102117500Y-82487500D03*
%TD*%
D11*
%TO.P,R2,2*%
%TO.N,GND*%
X84960000Y-83292500D03*
D10*
%TO.P,R2,1*%
%TO.N,ohmmeter*%
X86230000Y-83292500D03*
%TD*%
%TO.P,J3,1,Pin_1*%
%TO.N,common*%
X85580000Y-98380000D03*
%TD*%
%TO.P,J1,1,Pin_1*%
%TO.N,pwm*%
X89080000Y-105380000D03*
%TD*%
D18*
%TO.N,SCL*%
X118887500Y-97727500D02*
X117357500Y-97727500D01*
X120927500Y-99767500D02*
X118887500Y-97727500D01*
X125164607Y-99767500D02*
X120927500Y-99767500D01*
X132057106Y-111470000D02*
X125457500Y-104870394D01*
X136260000Y-111470000D02*
X132057106Y-111470000D01*
X125457500Y-104870394D02*
X125457500Y-100060393D01*
X136880000Y-110850000D02*
X136260000Y-111470000D01*
X125457500Y-100060393D02*
X125164607Y-99767500D01*
X136880000Y-109780000D02*
X136880000Y-110850000D01*
%TO.N,SDA*%
X138150000Y-111030000D02*
X138150000Y-109780000D01*
X137100000Y-112080000D02*
X138150000Y-111030000D01*
X124957500Y-105077500D02*
X131960000Y-112080000D01*
X124957500Y-100267500D02*
X124957500Y-105077500D01*
X131960000Y-112080000D02*
X137100000Y-112080000D01*
X117357500Y-100267500D02*
X124957500Y-100267500D01*
D19*
%TO.N,+5V*%
X135610000Y-100740000D02*
X135610000Y-109780000D01*
X117357500Y-82487500D02*
X135610000Y-100740000D01*
D18*
%TO.N,pwm*%
X98760000Y-96500000D02*
X92905000Y-102355000D01*
X103000000Y-96500000D02*
X98760000Y-96500000D01*
X103229500Y-96270500D02*
X103000000Y-96500000D01*
X92905000Y-102355000D02*
X92895000Y-102355000D01*
X103229500Y-93759500D02*
X103229500Y-96270500D01*
X102117500Y-92647500D02*
X103229500Y-93759500D01*
X92895000Y-102355000D02*
X89870000Y-105380000D01*
X89870000Y-105380000D02*
X89080000Y-105380000D01*
%TO.N,cont*%
X98060000Y-91130000D02*
X102117500Y-95187500D01*
X92330000Y-91130000D02*
X98060000Y-91130000D01*
%TO.N,ohmmeter*%
X116111500Y-103809197D02*
X116111500Y-107115500D01*
X116111500Y-107115500D02*
X117223500Y-108227500D01*
X99592500Y-91500000D02*
X103802303Y-91500000D01*
X91360000Y-83267500D02*
X99592500Y-91500000D01*
X103802303Y-91500000D02*
X116111500Y-103809197D01*
%TO.N,volt*%
X121107500Y-120387500D02*
X121107500Y-114651500D01*
X84607500Y-123887500D02*
X117607500Y-123887500D01*
X81000000Y-108770000D02*
X81000000Y-120280000D01*
X117607500Y-123887500D02*
X121107500Y-120387500D01*
X91140000Y-98630000D02*
X81000000Y-108770000D01*
X81000000Y-120280000D02*
X84607500Y-123887500D01*
X92330000Y-98630000D02*
X91140000Y-98630000D01*
X121107500Y-114651500D02*
X117223500Y-110767500D01*
%TO.N,common*%
X124607500Y-113071500D02*
X117223500Y-105687500D01*
X124607500Y-124637500D02*
X124607500Y-113071500D01*
X84650393Y-124637500D02*
X124607500Y-124637500D01*
X80500000Y-120487107D02*
X84650393Y-124637500D01*
X80500000Y-103420000D02*
X80500000Y-120487107D01*
X85580000Y-98380000D02*
X85540000Y-98380000D01*
X85540000Y-98380000D02*
X80500000Y-103420000D01*
%TO.N,CLK*%
X100142500Y-97727500D02*
X102117500Y-97727500D01*
X81500000Y-120072894D02*
X81500000Y-116370000D01*
X81500000Y-116370000D02*
X100142500Y-97727500D01*
X82677106Y-121250000D02*
X81500000Y-120072894D01*
X92360000Y-118630000D02*
X89740000Y-121250000D01*
X89740000Y-121250000D02*
X82677106Y-121250000D01*
%TO.N,DT*%
X98482500Y-100267500D02*
X102117500Y-100267500D01*
X91070000Y-107680000D02*
X98482500Y-100267500D01*
X91070000Y-118610000D02*
X91070000Y-107680000D01*
X91090000Y-118630000D02*
X91070000Y-118610000D01*
%TO.N,ohmmeter*%
X91335000Y-83292500D02*
X91360000Y-83267500D01*
X86230000Y-83292500D02*
X91335000Y-83292500D01*
%TD*%
%TA.AperFunction,Conductor*%
%TO.N,GND*%
G36*
X90338834Y-108553626D02*
G01*
X90394767Y-108595498D01*
X90419184Y-108660962D01*
X90419500Y-108669808D01*
X90419500Y-117609102D01*
X90399815Y-117676141D01*
X90347011Y-117721896D01*
X90277853Y-117731840D01*
X90237049Y-117718461D01*
X90204733Y-117701188D01*
X90204727Y-117701186D01*
X90016132Y-117643976D01*
X90016129Y-117643975D01*
X89820000Y-117624659D01*
X89623870Y-117643975D01*
X89435266Y-117701188D01*
X89261467Y-117794086D01*
X89256399Y-117797473D01*
X89255305Y-117795836D01*
X89199337Y-117819596D01*
X89130471Y-117807795D01*
X89113843Y-117797109D01*
X89113601Y-117797473D01*
X89108532Y-117794086D01*
X88934733Y-117701188D01*
X88934727Y-117701186D01*
X88746132Y-117643976D01*
X88746129Y-117643975D01*
X88550000Y-117624659D01*
X88353870Y-117643975D01*
X88269246Y-117669645D01*
X88165273Y-117701186D01*
X88165270Y-117701187D01*
X88165268Y-117701188D01*
X88162647Y-117702589D01*
X88161118Y-117702907D01*
X88159646Y-117703517D01*
X88159530Y-117703237D01*
X88094243Y-117716823D01*
X88029894Y-117692490D01*
X88022091Y-117686648D01*
X87887376Y-117636402D01*
X87887372Y-117636401D01*
X87827844Y-117630000D01*
X87530000Y-117630000D01*
X87530000Y-118385025D01*
X87494905Y-118349930D01*
X87415095Y-118303852D01*
X87326078Y-118280000D01*
X87233922Y-118280000D01*
X87144905Y-118303852D01*
X87065095Y-118349930D01*
X86999930Y-118415095D01*
X86953852Y-118494905D01*
X86930000Y-118583922D01*
X86930000Y-118676078D01*
X86953852Y-118765095D01*
X86999930Y-118844905D01*
X87065095Y-118910070D01*
X87144905Y-118956148D01*
X87233922Y-118980000D01*
X87326078Y-118980000D01*
X87415095Y-118956148D01*
X87494905Y-118910070D01*
X87530000Y-118874975D01*
X87530000Y-119630000D01*
X87827828Y-119630000D01*
X87827844Y-119629999D01*
X87887372Y-119623598D01*
X87887376Y-119623597D01*
X88022089Y-119573351D01*
X88029890Y-119567512D01*
X88095353Y-119543091D01*
X88159529Y-119556751D01*
X88159641Y-119556482D01*
X88161100Y-119557086D01*
X88162663Y-119557419D01*
X88165273Y-119558814D01*
X88353868Y-119616024D01*
X88550000Y-119635341D01*
X88746132Y-119616024D01*
X88934727Y-119558814D01*
X89108538Y-119465910D01*
X89108544Y-119465904D01*
X89113607Y-119462523D01*
X89114703Y-119464164D01*
X89170639Y-119440405D01*
X89239507Y-119452194D01*
X89256148Y-119462888D01*
X89256393Y-119462523D01*
X89261458Y-119465907D01*
X89261462Y-119465910D01*
X89435273Y-119558814D01*
X89623868Y-119616024D01*
X89820000Y-119635341D01*
X90016132Y-119616024D01*
X90170986Y-119569048D01*
X90240852Y-119568425D01*
X90299965Y-119605672D01*
X90329556Y-119668966D01*
X90320231Y-119738211D01*
X90294662Y-119775390D01*
X89506873Y-120563181D01*
X89445550Y-120596666D01*
X89419192Y-120599500D01*
X82997914Y-120599500D01*
X82930875Y-120579815D01*
X82910233Y-120563181D01*
X82186819Y-119839767D01*
X82153334Y-119778444D01*
X82150500Y-119752086D01*
X82150500Y-119177844D01*
X86280000Y-119177844D01*
X86286401Y-119237372D01*
X86286403Y-119237379D01*
X86336645Y-119372086D01*
X86336649Y-119372093D01*
X86422809Y-119487187D01*
X86422812Y-119487190D01*
X86537906Y-119573350D01*
X86537913Y-119573354D01*
X86672620Y-119623596D01*
X86672627Y-119623598D01*
X86732155Y-119629999D01*
X86732172Y-119630000D01*
X87030000Y-119630000D01*
X87030000Y-118880000D01*
X86280000Y-118880000D01*
X86280000Y-119177844D01*
X82150500Y-119177844D01*
X82150500Y-118082155D01*
X86280000Y-118082155D01*
X86280000Y-118380000D01*
X87030000Y-118380000D01*
X87030000Y-117630000D01*
X86732155Y-117630000D01*
X86672627Y-117636401D01*
X86672620Y-117636403D01*
X86537913Y-117686645D01*
X86537906Y-117686649D01*
X86422812Y-117772809D01*
X86422809Y-117772812D01*
X86336649Y-117887906D01*
X86336645Y-117887913D01*
X86286403Y-118022620D01*
X86286401Y-118022627D01*
X86280000Y-118082155D01*
X82150500Y-118082155D01*
X82150500Y-116690808D01*
X82170185Y-116623769D01*
X82186819Y-116603127D01*
X90207819Y-108582127D01*
X90269142Y-108548642D01*
X90338834Y-108553626D01*
G37*
%TD.AperFunction*%
%TA.AperFunction,Conductor*%
G36*
X118829855Y-85021223D02*
G01*
X134823181Y-101014549D01*
X134856666Y-101075872D01*
X134859500Y-101102230D01*
X134859500Y-108656000D01*
X134839815Y-108723039D01*
X134787011Y-108768794D01*
X134735500Y-108780000D01*
X134590000Y-108780000D01*
X134590000Y-109535025D01*
X134554905Y-109499930D01*
X134475095Y-109453852D01*
X134386078Y-109430000D01*
X134293922Y-109430000D01*
X134204905Y-109453852D01*
X134125095Y-109499930D01*
X134059930Y-109565095D01*
X134013852Y-109644905D01*
X133990000Y-109733922D01*
X133990000Y-109826078D01*
X134013852Y-109915095D01*
X134059930Y-109994905D01*
X134095025Y-110030000D01*
X133340000Y-110030000D01*
X133340000Y-110327844D01*
X133346401Y-110387372D01*
X133346403Y-110387379D01*
X133396645Y-110522086D01*
X133396649Y-110522093D01*
X133470833Y-110621189D01*
X133495251Y-110686653D01*
X133480400Y-110754926D01*
X133430995Y-110804332D01*
X133371567Y-110819500D01*
X132377914Y-110819500D01*
X132310875Y-110799815D01*
X132290233Y-110783181D01*
X130739207Y-109232155D01*
X133340000Y-109232155D01*
X133340000Y-109530000D01*
X134090000Y-109530000D01*
X134090000Y-108780000D01*
X133792155Y-108780000D01*
X133732627Y-108786401D01*
X133732620Y-108786403D01*
X133597913Y-108836645D01*
X133597906Y-108836649D01*
X133482812Y-108922809D01*
X133482809Y-108922812D01*
X133396649Y-109037906D01*
X133396645Y-109037913D01*
X133346403Y-109172620D01*
X133346401Y-109172627D01*
X133340000Y-109232155D01*
X130739207Y-109232155D01*
X126144319Y-104637267D01*
X126110834Y-104575944D01*
X126108000Y-104549586D01*
X126108000Y-99996321D01*
X126083002Y-99870654D01*
X126083001Y-99870653D01*
X126083001Y-99870649D01*
X126033965Y-99752266D01*
X126033964Y-99752263D01*
X125962777Y-99645724D01*
X125962771Y-99645717D01*
X125579280Y-99262226D01*
X125542345Y-99237547D01*
X125472734Y-99191035D01*
X125440982Y-99177883D01*
X125354351Y-99141999D01*
X125354345Y-99141997D01*
X125228678Y-99117000D01*
X125228676Y-99117000D01*
X121248308Y-99117000D01*
X121181269Y-99097315D01*
X121160627Y-99080681D01*
X119302174Y-97222227D01*
X119302173Y-97222226D01*
X119224287Y-97170185D01*
X119195627Y-97151035D01*
X119194335Y-97150500D01*
X119077244Y-97101999D01*
X119077238Y-97101997D01*
X118951571Y-97077000D01*
X118951569Y-97077000D01*
X118507794Y-97077000D01*
X118440755Y-97057315D01*
X118406219Y-97024123D01*
X118328327Y-96912881D01*
X118328323Y-96912877D01*
X118172120Y-96756674D01*
X118172116Y-96756671D01*
X118172115Y-96756670D01*
X117991166Y-96629968D01*
X117991158Y-96629964D01*
X117862311Y-96569882D01*
X117809871Y-96523710D01*
X117790719Y-96456517D01*
X117810935Y-96389635D01*
X117862311Y-96345118D01*
X117884933Y-96334569D01*
X117991162Y-96285034D01*
X118172120Y-96158326D01*
X118328326Y-96002120D01*
X118455034Y-95821162D01*
X118548394Y-95620950D01*
X118605570Y-95407568D01*
X118624823Y-95187500D01*
X118624799Y-95187229D01*
X118615428Y-95080115D01*
X118605570Y-94967432D01*
X118548394Y-94754050D01*
X118455034Y-94553839D01*
X118328326Y-94372880D01*
X118172120Y-94216674D01*
X118172116Y-94216671D01*
X118172115Y-94216670D01*
X117991166Y-94089968D01*
X117991158Y-94089964D01*
X117862311Y-94029882D01*
X117809871Y-93983710D01*
X117790719Y-93916517D01*
X117810935Y-93849635D01*
X117862311Y-93805118D01*
X117868302Y-93802324D01*
X117991162Y-93745034D01*
X118172120Y-93618326D01*
X118328326Y-93462120D01*
X118455034Y-93281162D01*
X118548394Y-93080950D01*
X118605570Y-92867568D01*
X118620697Y-92694660D01*
X118624823Y-92647502D01*
X118624823Y-92647497D01*
X118605570Y-92427437D01*
X118605570Y-92427432D01*
X118548394Y-92214050D01*
X118455034Y-92013839D01*
X118328326Y-91832880D01*
X118172120Y-91676674D01*
X118172116Y-91676671D01*
X118172115Y-91676670D01*
X117991166Y-91549968D01*
X117991158Y-91549964D01*
X117862311Y-91489882D01*
X117809871Y-91443710D01*
X117790719Y-91376517D01*
X117810935Y-91309635D01*
X117862311Y-91265118D01*
X117868302Y-91262324D01*
X117991162Y-91205034D01*
X118172120Y-91078326D01*
X118328326Y-90922120D01*
X118455034Y-90741162D01*
X118548394Y-90540950D01*
X118605570Y-90327568D01*
X118624823Y-90107500D01*
X118605570Y-89887432D01*
X118548394Y-89674050D01*
X118455034Y-89473839D01*
X118328326Y-89292880D01*
X118172120Y-89136674D01*
X118172116Y-89136671D01*
X118172115Y-89136670D01*
X117991166Y-89009968D01*
X117991158Y-89009964D01*
X117862311Y-88949882D01*
X117809871Y-88903710D01*
X117790719Y-88836517D01*
X117810935Y-88769635D01*
X117862311Y-88725118D01*
X117868302Y-88722324D01*
X117991162Y-88665034D01*
X118172120Y-88538326D01*
X118328326Y-88382120D01*
X118455034Y-88201162D01*
X118548394Y-88000950D01*
X118605570Y-87787568D01*
X118624823Y-87567500D01*
X118605570Y-87347432D01*
X118548394Y-87134050D01*
X118455034Y-86933839D01*
X118328326Y-86752880D01*
X118172120Y-86596674D01*
X118172116Y-86596671D01*
X118172115Y-86596670D01*
X117991166Y-86469968D01*
X117991158Y-86469964D01*
X117862311Y-86409882D01*
X117809871Y-86363710D01*
X117790719Y-86296517D01*
X117810935Y-86229635D01*
X117862311Y-86185118D01*
X117868302Y-86182324D01*
X117991162Y-86125034D01*
X118172120Y-85998326D01*
X118328326Y-85842120D01*
X118455034Y-85661162D01*
X118548394Y-85460950D01*
X118605570Y-85247568D01*
X118618646Y-85098094D01*
X118644098Y-85033029D01*
X118700689Y-84992050D01*
X118770450Y-84988171D01*
X118829855Y-85021223D01*
G37*
%TD.AperFunction*%
%TA.AperFunction,Conductor*%
G36*
X196813189Y-68929685D02*
G01*
X196858944Y-68982489D01*
X196870150Y-69033850D01*
X196949849Y-134876056D01*
X196930246Y-134943119D01*
X196877497Y-134988938D01*
X196826056Y-135000206D01*
X71025033Y-135209791D01*
X70957960Y-135190218D01*
X70912118Y-135137490D01*
X70900829Y-135084971D01*
X70997283Y-120551178D01*
X79849499Y-120551178D01*
X79873837Y-120673526D01*
X79874497Y-120676846D01*
X79874499Y-120676851D01*
X79923535Y-120795234D01*
X79928173Y-120802175D01*
X79994726Y-120901780D01*
X84235719Y-125142773D01*
X84235722Y-125142775D01*
X84235724Y-125142777D01*
X84342266Y-125213965D01*
X84460649Y-125263001D01*
X84460653Y-125263001D01*
X84460654Y-125263002D01*
X84586321Y-125288000D01*
X84586324Y-125288000D01*
X124671571Y-125288000D01*
X124756115Y-125271182D01*
X124797244Y-125263001D01*
X124915627Y-125213965D01*
X125022169Y-125142776D01*
X125112776Y-125052169D01*
X125183965Y-124945627D01*
X125233001Y-124827244D01*
X125258000Y-124701569D01*
X125258000Y-113007431D01*
X125258000Y-113007428D01*
X125233002Y-112881761D01*
X125233001Y-112881760D01*
X125233001Y-112881756D01*
X125183965Y-112763373D01*
X125183964Y-112763372D01*
X125183960Y-112763364D01*
X125162001Y-112730501D01*
X125161999Y-112730499D01*
X125145297Y-112705502D01*
X125112777Y-112656831D01*
X125112775Y-112656829D01*
X125112773Y-112656826D01*
X125112772Y-112656825D01*
X118510728Y-106054782D01*
X118477243Y-105993459D01*
X118482227Y-105923767D01*
X118486027Y-105914696D01*
X118548394Y-105780950D01*
X118605570Y-105567568D01*
X118624823Y-105347500D01*
X118605570Y-105127432D01*
X118548394Y-104914050D01*
X118455034Y-104713839D01*
X118328326Y-104532880D01*
X118172120Y-104376674D01*
X118172116Y-104376671D01*
X118172115Y-104376670D01*
X117991166Y-104249968D01*
X117991158Y-104249964D01*
X117862311Y-104189882D01*
X117809871Y-104143710D01*
X117790719Y-104076517D01*
X117810935Y-104009635D01*
X117862311Y-103965118D01*
X117868302Y-103962324D01*
X117991162Y-103905034D01*
X118172120Y-103778326D01*
X118328326Y-103622120D01*
X118455034Y-103441162D01*
X118548394Y-103240950D01*
X118605570Y-103027568D01*
X118624823Y-102807500D01*
X118621880Y-102773866D01*
X118605570Y-102587437D01*
X118605570Y-102587434D01*
X118605570Y-102587432D01*
X118548394Y-102374050D01*
X118455034Y-102173839D01*
X118338931Y-102008025D01*
X118328327Y-101992881D01*
X118328323Y-101992877D01*
X118172120Y-101836674D01*
X118172116Y-101836671D01*
X118172115Y-101836670D01*
X117991166Y-101709968D01*
X117991158Y-101709964D01*
X117862311Y-101649882D01*
X117809871Y-101603710D01*
X117790719Y-101536517D01*
X117810935Y-101469635D01*
X117862311Y-101425118D01*
X117868302Y-101422324D01*
X117991162Y-101365034D01*
X118172120Y-101238326D01*
X118328326Y-101082120D01*
X118406219Y-100970876D01*
X118460796Y-100927252D01*
X118507794Y-100918000D01*
X124183000Y-100918000D01*
X124250039Y-100937685D01*
X124295794Y-100990489D01*
X124307000Y-101042000D01*
X124307000Y-105141569D01*
X124315087Y-105182222D01*
X124315087Y-105182224D01*
X124331997Y-105267236D01*
X124331999Y-105267244D01*
X124381034Y-105385625D01*
X124452226Y-105492173D01*
X131545324Y-112585271D01*
X131545331Y-112585277D01*
X131651871Y-112656464D01*
X131651870Y-112656464D01*
X131686544Y-112670826D01*
X131770256Y-112705501D01*
X131770260Y-112705501D01*
X131770261Y-112705502D01*
X131895928Y-112730500D01*
X131895931Y-112730500D01*
X137164071Y-112730500D01*
X137248615Y-112713682D01*
X137289744Y-112705501D01*
X137408127Y-112656465D01*
X137514669Y-112585277D01*
X138655276Y-111444670D01*
X138726465Y-111338127D01*
X138775501Y-111219744D01*
X138782975Y-111182169D01*
X138800500Y-111094069D01*
X138800500Y-110599085D01*
X138820185Y-110532046D01*
X138845839Y-110503229D01*
X138860883Y-110490883D01*
X138985909Y-110338539D01*
X138985913Y-110338532D01*
X139078811Y-110164733D01*
X139078811Y-110164732D01*
X139078814Y-110164727D01*
X139136024Y-109976132D01*
X139155341Y-109780000D01*
X139136024Y-109583868D01*
X139078814Y-109395273D01*
X139078811Y-109395269D01*
X139078811Y-109395266D01*
X138985913Y-109221467D01*
X138985909Y-109221460D01*
X138860883Y-109069116D01*
X138708539Y-108944090D01*
X138708532Y-108944086D01*
X138534733Y-108851188D01*
X138534727Y-108851186D01*
X138408997Y-108813046D01*
X138346129Y-108793975D01*
X138150000Y-108774659D01*
X137953870Y-108793975D01*
X137765266Y-108851188D01*
X137591467Y-108944086D01*
X137586399Y-108947473D01*
X137585305Y-108945836D01*
X137529337Y-108969596D01*
X137460471Y-108957795D01*
X137443843Y-108947109D01*
X137443601Y-108947473D01*
X137438532Y-108944086D01*
X137264733Y-108851188D01*
X137264727Y-108851186D01*
X137138997Y-108813046D01*
X137076129Y-108793975D01*
X136880000Y-108774659D01*
X136683869Y-108793975D01*
X136520495Y-108843535D01*
X136450628Y-108844158D01*
X136391516Y-108806910D01*
X136361925Y-108743616D01*
X136360500Y-108724874D01*
X136360500Y-102008025D01*
X155882000Y-102008025D01*
X155882000Y-102266974D01*
X155882001Y-102266991D01*
X155915799Y-102523717D01*
X155915800Y-102523722D01*
X155915801Y-102523728D01*
X155932871Y-102587434D01*
X155982824Y-102773864D01*
X156081923Y-103013109D01*
X156081927Y-103013119D01*
X156211406Y-103237383D01*
X156369051Y-103442831D01*
X156369057Y-103442838D01*
X156552161Y-103625942D01*
X156552168Y-103625948D01*
X156757616Y-103783593D01*
X156981880Y-103913072D01*
X156981881Y-103913072D01*
X156981884Y-103913074D01*
X157221134Y-104012175D01*
X157471272Y-104079199D01*
X157728019Y-104113000D01*
X157728026Y-104113000D01*
X157986974Y-104113000D01*
X157986981Y-104113000D01*
X158243728Y-104079199D01*
X158493866Y-104012175D01*
X158733116Y-103913074D01*
X158957384Y-103783593D01*
X159162833Y-103625947D01*
X159345947Y-103442833D01*
X159503593Y-103237384D01*
X159633074Y-103013116D01*
X159732175Y-102773866D01*
X159799199Y-102523728D01*
X159833000Y-102266981D01*
X159833000Y-102008025D01*
X179382000Y-102008025D01*
X179382000Y-102266974D01*
X179382001Y-102266991D01*
X179415799Y-102523717D01*
X179415800Y-102523722D01*
X179415801Y-102523728D01*
X179432871Y-102587434D01*
X179482824Y-102773864D01*
X179581923Y-103013109D01*
X179581927Y-103013119D01*
X179711406Y-103237383D01*
X179869051Y-103442831D01*
X179869057Y-103442838D01*
X180052161Y-103625942D01*
X180052168Y-103625948D01*
X180257616Y-103783593D01*
X180481880Y-103913072D01*
X180481881Y-103913072D01*
X180481884Y-103913074D01*
X180721134Y-104012175D01*
X180971272Y-104079199D01*
X181228019Y-104113000D01*
X181228026Y-104113000D01*
X181486974Y-104113000D01*
X181486981Y-104113000D01*
X181743728Y-104079199D01*
X181993866Y-104012175D01*
X182233116Y-103913074D01*
X182457384Y-103783593D01*
X182662833Y-103625947D01*
X182845947Y-103442833D01*
X183003593Y-103237384D01*
X183133074Y-103013116D01*
X183232175Y-102773866D01*
X183299199Y-102523728D01*
X183333000Y-102266981D01*
X183333000Y-102008019D01*
X183299199Y-101751272D01*
X183232175Y-101501134D01*
X183133074Y-101261884D01*
X183029284Y-101082115D01*
X183003593Y-101037616D01*
X182845948Y-100832168D01*
X182845942Y-100832161D01*
X182662838Y-100649057D01*
X182662831Y-100649051D01*
X182457383Y-100491406D01*
X182233119Y-100361927D01*
X182233109Y-100361923D01*
X181993864Y-100262824D01*
X181868797Y-100229313D01*
X181743728Y-100195801D01*
X181743722Y-100195800D01*
X181743717Y-100195799D01*
X181486991Y-100162001D01*
X181486986Y-100162000D01*
X181486981Y-100162000D01*
X181228019Y-100162000D01*
X181228013Y-100162000D01*
X181228008Y-100162001D01*
X180971282Y-100195799D01*
X180971275Y-100195800D01*
X180971272Y-100195801D01*
X180918408Y-100209965D01*
X180721135Y-100262824D01*
X180481890Y-100361923D01*
X180481880Y-100361927D01*
X180257616Y-100491406D01*
X180052168Y-100649051D01*
X180052161Y-100649057D01*
X179869057Y-100832161D01*
X179869051Y-100832168D01*
X179711406Y-101037616D01*
X179581927Y-101261880D01*
X179581923Y-101261890D01*
X179482824Y-101501135D01*
X179415802Y-101751269D01*
X179415799Y-101751282D01*
X179382001Y-102008008D01*
X179382000Y-102008025D01*
X159833000Y-102008025D01*
X159833000Y-102008019D01*
X159799199Y-101751272D01*
X159732175Y-101501134D01*
X159633074Y-101261884D01*
X159529284Y-101082115D01*
X159503593Y-101037616D01*
X159345948Y-100832168D01*
X159345942Y-100832161D01*
X159162838Y-100649057D01*
X159162831Y-100649051D01*
X158957383Y-100491406D01*
X158733119Y-100361927D01*
X158733109Y-100361923D01*
X158493864Y-100262824D01*
X158368797Y-100229313D01*
X158243728Y-100195801D01*
X158243722Y-100195800D01*
X158243717Y-100195799D01*
X157986991Y-100162001D01*
X157986986Y-100162000D01*
X157986981Y-100162000D01*
X157728019Y-100162000D01*
X157728013Y-100162000D01*
X157728008Y-100162001D01*
X157471282Y-100195799D01*
X157471275Y-100195800D01*
X157471272Y-100195801D01*
X157418408Y-100209965D01*
X157221135Y-100262824D01*
X156981890Y-100361923D01*
X156981880Y-100361927D01*
X156757616Y-100491406D01*
X156552168Y-100649051D01*
X156552161Y-100649057D01*
X156369057Y-100832161D01*
X156369051Y-100832168D01*
X156211406Y-101037616D01*
X156081927Y-101261880D01*
X156081923Y-101261890D01*
X155982824Y-101501135D01*
X155915802Y-101751269D01*
X155915799Y-101751282D01*
X155882001Y-102008008D01*
X155882000Y-102008025D01*
X136360500Y-102008025D01*
X136360500Y-100666079D01*
X136331659Y-100521092D01*
X136331658Y-100521091D01*
X136331658Y-100521087D01*
X136275084Y-100384505D01*
X136239713Y-100331569D01*
X136192952Y-100261584D01*
X131636778Y-95705410D01*
X131603293Y-95644087D01*
X131608277Y-95574395D01*
X131650149Y-95518462D01*
X131715613Y-95494045D01*
X131733305Y-95494045D01*
X131887999Y-95505109D01*
X131888001Y-95505109D01*
X132173362Y-95484699D01*
X132452895Y-95423890D01*
X132720958Y-95323908D01*
X132972038Y-95186808D01*
X132972039Y-95186807D01*
X133114563Y-95080115D01*
X132397020Y-94362573D01*
X132525463Y-94276751D01*
X132664751Y-94137463D01*
X132750573Y-94009020D01*
X133468115Y-94726563D01*
X133574807Y-94584039D01*
X133574808Y-94584038D01*
X133711908Y-94332958D01*
X133811890Y-94064895D01*
X133872699Y-93785362D01*
X133893109Y-93500001D01*
X133893109Y-93499998D01*
X136994390Y-93499998D01*
X136994390Y-93500001D01*
X137014804Y-93785433D01*
X137075628Y-94065037D01*
X137075630Y-94065043D01*
X137075631Y-94065046D01*
X137132186Y-94216675D01*
X137175635Y-94333166D01*
X137312770Y-94584309D01*
X137312775Y-94584317D01*
X137484254Y-94813387D01*
X137484270Y-94813405D01*
X137686594Y-95015729D01*
X137686612Y-95015745D01*
X137915682Y-95187224D01*
X137915690Y-95187229D01*
X138166833Y-95324364D01*
X138166832Y-95324364D01*
X138166836Y-95324365D01*
X138166839Y-95324367D01*
X138434954Y-95424369D01*
X138434960Y-95424370D01*
X138434962Y-95424371D01*
X138714566Y-95485195D01*
X138714568Y-95485195D01*
X138714572Y-95485196D01*
X138968220Y-95503337D01*
X138999999Y-95505610D01*
X139000000Y-95505610D01*
X139000001Y-95505610D01*
X139028595Y-95503564D01*
X139285428Y-95485196D01*
X139565046Y-95424369D01*
X139833161Y-95324367D01*
X140084315Y-95187226D01*
X140313395Y-95015739D01*
X140515739Y-94813395D01*
X140687226Y-94584315D01*
X140824367Y-94333161D01*
X140924369Y-94065046D01*
X140939599Y-93995035D01*
X140985195Y-93785433D01*
X140985195Y-93785432D01*
X140985196Y-93785428D01*
X141005610Y-93500000D01*
X140985196Y-93214572D01*
X140956128Y-93080950D01*
X140924371Y-92934962D01*
X140924370Y-92934960D01*
X140924369Y-92934954D01*
X140824367Y-92666839D01*
X140813805Y-92647497D01*
X140687229Y-92415690D01*
X140687224Y-92415682D01*
X140515745Y-92186612D01*
X140515729Y-92186594D01*
X140313405Y-91984270D01*
X140313387Y-91984254D01*
X140084317Y-91812775D01*
X140084309Y-91812770D01*
X139833166Y-91675635D01*
X139833167Y-91675635D01*
X139725915Y-91635632D01*
X139565046Y-91575631D01*
X139565043Y-91575630D01*
X139565037Y-91575628D01*
X139285433Y-91514804D01*
X139000001Y-91494390D01*
X138999999Y-91494390D01*
X138714566Y-91514804D01*
X138434962Y-91575628D01*
X138166833Y-91675635D01*
X137915690Y-91812770D01*
X137915682Y-91812775D01*
X137686612Y-91984254D01*
X137686594Y-91984270D01*
X137484270Y-92186594D01*
X137484254Y-92186612D01*
X137312775Y-92415682D01*
X137312770Y-92415690D01*
X137175635Y-92666833D01*
X137075628Y-92934962D01*
X137014804Y-93214566D01*
X136994390Y-93499998D01*
X133893109Y-93499998D01*
X133872699Y-93214637D01*
X133811890Y-92935104D01*
X133711908Y-92667041D01*
X133574808Y-92415961D01*
X133574803Y-92415953D01*
X133468116Y-92273436D01*
X133468115Y-92273435D01*
X132750572Y-92990978D01*
X132664751Y-92862537D01*
X132525463Y-92723249D01*
X132397020Y-92637425D01*
X133114563Y-91919883D01*
X133114562Y-91919882D01*
X132972046Y-91813196D01*
X132972038Y-91813191D01*
X132720957Y-91676091D01*
X132720958Y-91676091D01*
X132452895Y-91576109D01*
X132173362Y-91515300D01*
X131888001Y-91494891D01*
X131887999Y-91494891D01*
X131602637Y-91515300D01*
X131323104Y-91576109D01*
X131055041Y-91676091D01*
X130803961Y-91813191D01*
X130803953Y-91813196D01*
X130661435Y-91919882D01*
X131378979Y-92637426D01*
X131250537Y-92723249D01*
X131111249Y-92862537D01*
X131025426Y-92990979D01*
X130307882Y-92273435D01*
X130201196Y-92415953D01*
X130201191Y-92415961D01*
X130064091Y-92667041D01*
X129964109Y-92935104D01*
X129903300Y-93214637D01*
X129882891Y-93499998D01*
X129882891Y-93500002D01*
X129893954Y-93654695D01*
X129879102Y-93722967D01*
X129829696Y-93772373D01*
X129761423Y-93787224D01*
X129695959Y-93762807D01*
X129682589Y-93751221D01*
X118649140Y-82717772D01*
X118615655Y-82656449D01*
X118613293Y-82619286D01*
X118624823Y-82487500D01*
X118605570Y-82267432D01*
X118548394Y-82054050D01*
X118455034Y-81853839D01*
X118391680Y-81763359D01*
X118328327Y-81672881D01*
X118273462Y-81618016D01*
X118172120Y-81516674D01*
X118172116Y-81516671D01*
X118172115Y-81516670D01*
X117991166Y-81389968D01*
X117991162Y-81389966D01*
X117943957Y-81367954D01*
X117790950Y-81296606D01*
X117790947Y-81296605D01*
X117790945Y-81296604D01*
X117577570Y-81239430D01*
X117577562Y-81239429D01*
X117357502Y-81220177D01*
X117357498Y-81220177D01*
X117137437Y-81239429D01*
X117137429Y-81239430D01*
X116924054Y-81296604D01*
X116924048Y-81296607D01*
X116723840Y-81389965D01*
X116723838Y-81389966D01*
X116542877Y-81516675D01*
X116386675Y-81672877D01*
X116259966Y-81853838D01*
X116259965Y-81853840D01*
X116166607Y-82054048D01*
X116166604Y-82054054D01*
X116109430Y-82267429D01*
X116109429Y-82267437D01*
X116090177Y-82487497D01*
X116090177Y-82487502D01*
X116109429Y-82707562D01*
X116109430Y-82707570D01*
X116166604Y-82920945D01*
X116166605Y-82920947D01*
X116166606Y-82920950D01*
X116259966Y-83121162D01*
X116259968Y-83121166D01*
X116386670Y-83302115D01*
X116386675Y-83302121D01*
X116542878Y-83458324D01*
X116542884Y-83458329D01*
X116723833Y-83585031D01*
X116723835Y-83585032D01*
X116723838Y-83585034D01*
X116795924Y-83618648D01*
X116852689Y-83645118D01*
X116905128Y-83691290D01*
X116924280Y-83758484D01*
X116904064Y-83825365D01*
X116852689Y-83869882D01*
X116723840Y-83929965D01*
X116723838Y-83929966D01*
X116542877Y-84056675D01*
X116386675Y-84212877D01*
X116259966Y-84393838D01*
X116259965Y-84393840D01*
X116166607Y-84594048D01*
X116166604Y-84594054D01*
X116109430Y-84807429D01*
X116109429Y-84807437D01*
X116090177Y-85027497D01*
X116090177Y-85027502D01*
X116109429Y-85247562D01*
X116109430Y-85247570D01*
X116166604Y-85460945D01*
X116166605Y-85460947D01*
X116166606Y-85460950D01*
X116259966Y-85661162D01*
X116259968Y-85661166D01*
X116386670Y-85842115D01*
X116386675Y-85842121D01*
X116542878Y-85998324D01*
X116542884Y-85998329D01*
X116723833Y-86125031D01*
X116723835Y-86125032D01*
X116723838Y-86125034D01*
X116843248Y-86180715D01*
X116852689Y-86185118D01*
X116905128Y-86231290D01*
X116924280Y-86298484D01*
X116904064Y-86365365D01*
X116852689Y-86409882D01*
X116723840Y-86469965D01*
X116723838Y-86469966D01*
X116542877Y-86596675D01*
X116386675Y-86752877D01*
X116259966Y-86933838D01*
X116259965Y-86933840D01*
X116166607Y-87134048D01*
X116166604Y-87134054D01*
X116109430Y-87347429D01*
X116109429Y-87347437D01*
X116090177Y-87567497D01*
X116090177Y-87567502D01*
X116109429Y-87787562D01*
X116109430Y-87787570D01*
X116166604Y-88000945D01*
X116166605Y-88000947D01*
X116166606Y-88000950D01*
X116259966Y-88201162D01*
X116259968Y-88201166D01*
X116386670Y-88382115D01*
X116386675Y-88382121D01*
X116542878Y-88538324D01*
X116542884Y-88538329D01*
X116723833Y-88665031D01*
X116723835Y-88665032D01*
X116723838Y-88665034D01*
X116843248Y-88720715D01*
X116852689Y-88725118D01*
X116905128Y-88771290D01*
X116924280Y-88838484D01*
X116904064Y-88905365D01*
X116852689Y-88949882D01*
X116723840Y-89009965D01*
X116723838Y-89009966D01*
X116542877Y-89136675D01*
X116386675Y-89292877D01*
X116259966Y-89473838D01*
X116259965Y-89473840D01*
X116166607Y-89674048D01*
X116166604Y-89674054D01*
X116109430Y-89887429D01*
X116109429Y-89887437D01*
X116090177Y-90107497D01*
X116090177Y-90107502D01*
X116109429Y-90327562D01*
X116109430Y-90327570D01*
X116166604Y-90540945D01*
X116166605Y-90540947D01*
X116166606Y-90540950D01*
X116244434Y-90707853D01*
X116259966Y-90741162D01*
X116259968Y-90741166D01*
X116386670Y-90922115D01*
X116386675Y-90922121D01*
X116542878Y-91078324D01*
X116542884Y-91078329D01*
X116723833Y-91205031D01*
X116723835Y-91205032D01*
X116723838Y-91205034D01*
X116843248Y-91260715D01*
X116852689Y-91265118D01*
X116905128Y-91311290D01*
X116924280Y-91378484D01*
X116904064Y-91445365D01*
X116852689Y-91489882D01*
X116723840Y-91549965D01*
X116723838Y-91549966D01*
X116542877Y-91676675D01*
X116386675Y-91832877D01*
X116259966Y-92013838D01*
X116259965Y-92013840D01*
X116166607Y-92214048D01*
X116166604Y-92214054D01*
X116109430Y-92427429D01*
X116109429Y-92427437D01*
X116090177Y-92647497D01*
X116090177Y-92647502D01*
X116109429Y-92867562D01*
X116109430Y-92867570D01*
X116166604Y-93080945D01*
X116166605Y-93080947D01*
X116166606Y-93080950D01*
X116225995Y-93208311D01*
X116259966Y-93281162D01*
X116259968Y-93281166D01*
X116386670Y-93462115D01*
X116386675Y-93462121D01*
X116542878Y-93618324D01*
X116542884Y-93618329D01*
X116723833Y-93745031D01*
X116723835Y-93745032D01*
X116723838Y-93745034D01*
X116843248Y-93800715D01*
X116852689Y-93805118D01*
X116905128Y-93851290D01*
X116924280Y-93918484D01*
X116904064Y-93985365D01*
X116852689Y-94029882D01*
X116723840Y-94089965D01*
X116723838Y-94089966D01*
X116542877Y-94216675D01*
X116386675Y-94372877D01*
X116259966Y-94553838D01*
X116259965Y-94553840D01*
X116166607Y-94754048D01*
X116166604Y-94754054D01*
X116109430Y-94967429D01*
X116109429Y-94967437D01*
X116090177Y-95187497D01*
X116090177Y-95187502D01*
X116109429Y-95407562D01*
X116109430Y-95407570D01*
X116166604Y-95620945D01*
X116166605Y-95620947D01*
X116166606Y-95620950D01*
X116177395Y-95644087D01*
X116259966Y-95821162D01*
X116259968Y-95821166D01*
X116386670Y-96002115D01*
X116386675Y-96002121D01*
X116542878Y-96158324D01*
X116542884Y-96158329D01*
X116723833Y-96285031D01*
X116723835Y-96285032D01*
X116723838Y-96285034D01*
X116830067Y-96334569D01*
X116852689Y-96345118D01*
X116905128Y-96391290D01*
X116924280Y-96458484D01*
X116904064Y-96525365D01*
X116852689Y-96569882D01*
X116723840Y-96629965D01*
X116723838Y-96629966D01*
X116542877Y-96756675D01*
X116386675Y-96912877D01*
X116259966Y-97093838D01*
X116259965Y-97093840D01*
X116166607Y-97294048D01*
X116166604Y-97294054D01*
X116109430Y-97507429D01*
X116109429Y-97507437D01*
X116090177Y-97727497D01*
X116090177Y-97727502D01*
X116109429Y-97947562D01*
X116109430Y-97947570D01*
X116166604Y-98160945D01*
X116166605Y-98160947D01*
X116166606Y-98160950D01*
X116259966Y-98361162D01*
X116259968Y-98361166D01*
X116386670Y-98542115D01*
X116386675Y-98542121D01*
X116542878Y-98698324D01*
X116542884Y-98698329D01*
X116723833Y-98825031D01*
X116723835Y-98825032D01*
X116723838Y-98825034D01*
X116843248Y-98880715D01*
X116852689Y-98885118D01*
X116905128Y-98931290D01*
X116924280Y-98998484D01*
X116904064Y-99065365D01*
X116852689Y-99109882D01*
X116723840Y-99169965D01*
X116723838Y-99169966D01*
X116542877Y-99296675D01*
X116386675Y-99452877D01*
X116259966Y-99633838D01*
X116259965Y-99633840D01*
X116166607Y-99834048D01*
X116166604Y-99834054D01*
X116109430Y-100047429D01*
X116109429Y-100047437D01*
X116090177Y-100267497D01*
X116090177Y-100267502D01*
X116109429Y-100487562D01*
X116109430Y-100487570D01*
X116166604Y-100700945D01*
X116166605Y-100700947D01*
X116166606Y-100700950D01*
X116227793Y-100832167D01*
X116259966Y-100901162D01*
X116259968Y-100901166D01*
X116386670Y-101082115D01*
X116386675Y-101082121D01*
X116542878Y-101238324D01*
X116542884Y-101238329D01*
X116723833Y-101365031D01*
X116723835Y-101365032D01*
X116723838Y-101365034D01*
X116843248Y-101420715D01*
X116852689Y-101425118D01*
X116905128Y-101471290D01*
X116924280Y-101538484D01*
X116904064Y-101605365D01*
X116852689Y-101649882D01*
X116723840Y-101709965D01*
X116723838Y-101709966D01*
X116542877Y-101836675D01*
X116386675Y-101992877D01*
X116259966Y-102173838D01*
X116259965Y-102173840D01*
X116166607Y-102374048D01*
X116166604Y-102374054D01*
X116109430Y-102587429D01*
X116109430Y-102587434D01*
X116108491Y-102598164D01*
X116083036Y-102663232D01*
X116026443Y-102704208D01*
X115956681Y-102708084D01*
X115897282Y-102675033D01*
X104216977Y-90994727D01*
X104216976Y-90994726D01*
X104216972Y-90994723D01*
X104110430Y-90923535D01*
X104107016Y-90922121D01*
X103992047Y-90874499D01*
X103992041Y-90874497D01*
X103866374Y-90849500D01*
X103866372Y-90849500D01*
X103359156Y-90849500D01*
X103292117Y-90829815D01*
X103246362Y-90777011D01*
X103236418Y-90707853D01*
X103246774Y-90673096D01*
X103308391Y-90540956D01*
X103308394Y-90540950D01*
X103365570Y-90327568D01*
X103384823Y-90107500D01*
X103365570Y-89887432D01*
X103308394Y-89674050D01*
X103215034Y-89473839D01*
X103088326Y-89292880D01*
X102932120Y-89136674D01*
X102932116Y-89136671D01*
X102932115Y-89136670D01*
X102751166Y-89009968D01*
X102751158Y-89009964D01*
X102622311Y-88949882D01*
X102569871Y-88903710D01*
X102550719Y-88836517D01*
X102570935Y-88769635D01*
X102622311Y-88725118D01*
X102628302Y-88722324D01*
X102751162Y-88665034D01*
X102932120Y-88538326D01*
X103088326Y-88382120D01*
X103215034Y-88201162D01*
X103308394Y-88000950D01*
X103365570Y-87787568D01*
X103384823Y-87567500D01*
X103365570Y-87347432D01*
X103308394Y-87134050D01*
X103215034Y-86933839D01*
X103088326Y-86752880D01*
X102932120Y-86596674D01*
X102932116Y-86596671D01*
X102932115Y-86596670D01*
X102751166Y-86469968D01*
X102751158Y-86469964D01*
X102622311Y-86409882D01*
X102569871Y-86363710D01*
X102550719Y-86296517D01*
X102570935Y-86229635D01*
X102622311Y-86185118D01*
X102628302Y-86182324D01*
X102751162Y-86125034D01*
X102932120Y-85998326D01*
X103088326Y-85842120D01*
X103215034Y-85661162D01*
X103308394Y-85460950D01*
X103365570Y-85247568D01*
X103384823Y-85027500D01*
X103365570Y-84807432D01*
X103308394Y-84594050D01*
X103215034Y-84393839D01*
X103100050Y-84229624D01*
X103088327Y-84212881D01*
X103025490Y-84150044D01*
X102932120Y-84056674D01*
X102932116Y-84056671D01*
X102932115Y-84056670D01*
X102816297Y-83975574D01*
X102772672Y-83920997D01*
X102765478Y-83851499D01*
X102797001Y-83789144D01*
X102857230Y-83753730D01*
X102887419Y-83749999D01*
X102927372Y-83749999D01*
X102986983Y-83743591D01*
X103121831Y-83693296D01*
X103237046Y-83607046D01*
X103323296Y-83491831D01*
X103373591Y-83356983D01*
X103380000Y-83297373D01*
X103379999Y-81677628D01*
X103373591Y-81618017D01*
X103323296Y-81483169D01*
X103323295Y-81483168D01*
X103323293Y-81483164D01*
X103237047Y-81367955D01*
X103237044Y-81367952D01*
X103121835Y-81281706D01*
X103121828Y-81281702D01*
X102986982Y-81231408D01*
X102986983Y-81231408D01*
X102927383Y-81225001D01*
X102927381Y-81225000D01*
X102927373Y-81225000D01*
X102927364Y-81225000D01*
X101307629Y-81225000D01*
X101307623Y-81225001D01*
X101248016Y-81231408D01*
X101113171Y-81281702D01*
X101113164Y-81281706D01*
X100997955Y-81367952D01*
X100997952Y-81367955D01*
X100911706Y-81483164D01*
X100911702Y-81483171D01*
X100861408Y-81618017D01*
X100855510Y-81672880D01*
X100855001Y-81677623D01*
X100855000Y-81677635D01*
X100855000Y-83297370D01*
X100855001Y-83297376D01*
X100861408Y-83356983D01*
X100911702Y-83491828D01*
X100911706Y-83491835D01*
X100997952Y-83607044D01*
X100997955Y-83607047D01*
X101113164Y-83693293D01*
X101113171Y-83693297D01*
X101248017Y-83743591D01*
X101248016Y-83743591D01*
X101254944Y-83744335D01*
X101307627Y-83750000D01*
X101347579Y-83749999D01*
X101414616Y-83769682D01*
X101460372Y-83822485D01*
X101470317Y-83891643D01*
X101441294Y-83955200D01*
X101418703Y-83975574D01*
X101302875Y-84056677D01*
X101146675Y-84212877D01*
X101019966Y-84393838D01*
X101019965Y-84393840D01*
X100926607Y-84594048D01*
X100926604Y-84594054D01*
X100869430Y-84807429D01*
X100869429Y-84807437D01*
X100850177Y-85027497D01*
X100850177Y-85027502D01*
X100869429Y-85247562D01*
X100869430Y-85247570D01*
X100926604Y-85460945D01*
X100926605Y-85460947D01*
X100926606Y-85460950D01*
X101019966Y-85661162D01*
X101019968Y-85661166D01*
X101146670Y-85842115D01*
X101146675Y-85842121D01*
X101302878Y-85998324D01*
X101302884Y-85998329D01*
X101483833Y-86125031D01*
X101483835Y-86125032D01*
X101483838Y-86125034D01*
X101603248Y-86180715D01*
X101612689Y-86185118D01*
X101665128Y-86231290D01*
X101684280Y-86298484D01*
X101664064Y-86365365D01*
X101612689Y-86409882D01*
X101483840Y-86469965D01*
X101483838Y-86469966D01*
X101302877Y-86596675D01*
X101146675Y-86752877D01*
X101019966Y-86933838D01*
X101019965Y-86933840D01*
X100926607Y-87134048D01*
X100926604Y-87134054D01*
X100869430Y-87347429D01*
X100869429Y-87347437D01*
X100850177Y-87567497D01*
X100850177Y-87567502D01*
X100869429Y-87787562D01*
X100869430Y-87787570D01*
X100926604Y-88000945D01*
X100926605Y-88000947D01*
X100926606Y-88000950D01*
X101019966Y-88201162D01*
X101019968Y-88201166D01*
X101146670Y-88382115D01*
X101146675Y-88382121D01*
X101302878Y-88538324D01*
X101302884Y-88538329D01*
X101483833Y-88665031D01*
X101483835Y-88665032D01*
X101483838Y-88665034D01*
X101603248Y-88720715D01*
X101612689Y-88725118D01*
X101665128Y-88771290D01*
X101684280Y-88838484D01*
X101664064Y-88905365D01*
X101612689Y-88949882D01*
X101483840Y-89009965D01*
X101483838Y-89009966D01*
X101302877Y-89136675D01*
X101146675Y-89292877D01*
X101019966Y-89473838D01*
X101019965Y-89473840D01*
X100926607Y-89674048D01*
X100926604Y-89674054D01*
X100869430Y-89887429D01*
X100869429Y-89887437D01*
X100850177Y-90107497D01*
X100850177Y-90107502D01*
X100869429Y-90327562D01*
X100869430Y-90327570D01*
X100926604Y-90540945D01*
X100926608Y-90540956D01*
X100988226Y-90673096D01*
X100998718Y-90742173D01*
X100970198Y-90805957D01*
X100911721Y-90844196D01*
X100875844Y-90849500D01*
X99913307Y-90849500D01*
X99846268Y-90829815D01*
X99825626Y-90813181D01*
X93616116Y-84603670D01*
X93582631Y-84542347D01*
X93587615Y-84472655D01*
X93629487Y-84416722D01*
X93659001Y-84400363D01*
X93797401Y-84346747D01*
X93986562Y-84229624D01*
X94150981Y-84079736D01*
X94285058Y-83902189D01*
X94384229Y-83703028D01*
X94445115Y-83489036D01*
X94465643Y-83267500D01*
X94445115Y-83045964D01*
X94384229Y-82831972D01*
X94384224Y-82831961D01*
X94285061Y-82632816D01*
X94285056Y-82632808D01*
X94150979Y-82455261D01*
X93986562Y-82305376D01*
X93986560Y-82305374D01*
X93797404Y-82188254D01*
X93797398Y-82188252D01*
X93589940Y-82107882D01*
X93371243Y-82067000D01*
X93148757Y-82067000D01*
X92930060Y-82107882D01*
X92798864Y-82158707D01*
X92722601Y-82188252D01*
X92722595Y-82188254D01*
X92533439Y-82305374D01*
X92533437Y-82305376D01*
X92393538Y-82432911D01*
X92330734Y-82463528D01*
X92261347Y-82455330D01*
X92226462Y-82432911D01*
X92086562Y-82305376D01*
X92086560Y-82305374D01*
X91897404Y-82188254D01*
X91897398Y-82188252D01*
X91689940Y-82107882D01*
X91471243Y-82067000D01*
X91248757Y-82067000D01*
X91030060Y-82107882D01*
X90898864Y-82158707D01*
X90822601Y-82188252D01*
X90822595Y-82188254D01*
X90633439Y-82305374D01*
X90633437Y-82305376D01*
X90469020Y-82455261D01*
X90365212Y-82592727D01*
X90309103Y-82634363D01*
X90266258Y-82642000D01*
X87294141Y-82642000D01*
X87227102Y-82622315D01*
X87181347Y-82569511D01*
X87177969Y-82561359D01*
X87173796Y-82550169D01*
X87173793Y-82550165D01*
X87173793Y-82550164D01*
X87087547Y-82434955D01*
X87087544Y-82434952D01*
X86972335Y-82348706D01*
X86972328Y-82348702D01*
X86837482Y-82298408D01*
X86837483Y-82298408D01*
X86777883Y-82292001D01*
X86777881Y-82292000D01*
X86777873Y-82292000D01*
X86777864Y-82292000D01*
X85682129Y-82292000D01*
X85682123Y-82292001D01*
X85622516Y-82298408D01*
X85487671Y-82348702D01*
X85487666Y-82348705D01*
X85479172Y-82355064D01*
X85413707Y-82379479D01*
X85350363Y-82365993D01*
X85350162Y-82366481D01*
X85347526Y-82365389D01*
X85346407Y-82365151D01*
X85344537Y-82364151D01*
X85210000Y-82323339D01*
X85210000Y-83047525D01*
X85174905Y-83012430D01*
X85095095Y-82966352D01*
X85006078Y-82942500D01*
X84913922Y-82942500D01*
X84824905Y-82966352D01*
X84745095Y-83012430D01*
X84679930Y-83077595D01*
X84633852Y-83157405D01*
X84610000Y-83246422D01*
X84610000Y-83338578D01*
X84633852Y-83427595D01*
X84679930Y-83507405D01*
X84745095Y-83572570D01*
X84824905Y-83618648D01*
X84913922Y-83642500D01*
X85006078Y-83642500D01*
X85095095Y-83618648D01*
X85174905Y-83572570D01*
X85210000Y-83537475D01*
X85210000Y-84261659D01*
X85344539Y-84220847D01*
X85346408Y-84219849D01*
X85347500Y-84219621D01*
X85350170Y-84218516D01*
X85350379Y-84219021D01*
X85414810Y-84205604D01*
X85479176Y-84229939D01*
X85487664Y-84236293D01*
X85487671Y-84236297D01*
X85622517Y-84286591D01*
X85622516Y-84286591D01*
X85629444Y-84287335D01*
X85682127Y-84293000D01*
X86777872Y-84292999D01*
X86837483Y-84286591D01*
X86972331Y-84236296D01*
X87087546Y-84150046D01*
X87173796Y-84034831D01*
X87177960Y-84023665D01*
X87219829Y-83967734D01*
X87285293Y-83943316D01*
X87294141Y-83943000D01*
X90304016Y-83943000D01*
X90371055Y-83962685D01*
X90402970Y-83992273D01*
X90469020Y-84079738D01*
X90633437Y-84229623D01*
X90633439Y-84229625D01*
X90822595Y-84346745D01*
X90822596Y-84346745D01*
X90822599Y-84346747D01*
X91030060Y-84427118D01*
X91248757Y-84468000D01*
X91248759Y-84468000D01*
X91471242Y-84468000D01*
X91471243Y-84468000D01*
X91512032Y-84460375D01*
X91549639Y-84453345D01*
X91619154Y-84460375D01*
X91660106Y-84487552D01*
X97440374Y-90267819D01*
X97473859Y-90329142D01*
X97468875Y-90398834D01*
X97427003Y-90454767D01*
X97361539Y-90479184D01*
X97352693Y-90479500D01*
X93394141Y-90479500D01*
X93327102Y-90459815D01*
X93281347Y-90407011D01*
X93277969Y-90398859D01*
X93273796Y-90387669D01*
X93273793Y-90387665D01*
X93273793Y-90387664D01*
X93187547Y-90272455D01*
X93187544Y-90272452D01*
X93072335Y-90186206D01*
X93072328Y-90186202D01*
X92937482Y-90135908D01*
X92937483Y-90135908D01*
X92877883Y-90129501D01*
X92877881Y-90129500D01*
X92877873Y-90129500D01*
X92877864Y-90129500D01*
X91782129Y-90129500D01*
X91782123Y-90129501D01*
X91722516Y-90135908D01*
X91587671Y-90186202D01*
X91587664Y-90186206D01*
X91472455Y-90272452D01*
X91472452Y-90272455D01*
X91386206Y-90387664D01*
X91386202Y-90387671D01*
X91335908Y-90522517D01*
X91329501Y-90582116D01*
X91329500Y-90582135D01*
X91329500Y-91677870D01*
X91329501Y-91677876D01*
X91335908Y-91737483D01*
X91386202Y-91872328D01*
X91386206Y-91872335D01*
X91472452Y-91987544D01*
X91472455Y-91987547D01*
X91587664Y-92073793D01*
X91587671Y-92073797D01*
X91722517Y-92124091D01*
X91722516Y-92124091D01*
X91729444Y-92124835D01*
X91782127Y-92130500D01*
X92877872Y-92130499D01*
X92937483Y-92124091D01*
X93072331Y-92073796D01*
X93187546Y-91987546D01*
X93273796Y-91872331D01*
X93277960Y-91861165D01*
X93319829Y-91805234D01*
X93385293Y-91780816D01*
X93394141Y-91780500D01*
X97739192Y-91780500D01*
X97806231Y-91800185D01*
X97826873Y-91816819D01*
X100841641Y-94831587D01*
X100875126Y-94892910D01*
X100873737Y-94951355D01*
X100869431Y-94967427D01*
X100869429Y-94967437D01*
X100850177Y-95187497D01*
X100850177Y-95187502D01*
X100869429Y-95407562D01*
X100869430Y-95407570D01*
X100926604Y-95620945D01*
X100926606Y-95620951D01*
X100950922Y-95673095D01*
X100961414Y-95742172D01*
X100932894Y-95805956D01*
X100874418Y-95844196D01*
X100838540Y-95849500D01*
X98695929Y-95849500D01*
X98570261Y-95874497D01*
X98570255Y-95874499D01*
X98451870Y-95923535D01*
X98345331Y-95994722D01*
X98345324Y-95994728D01*
X92519103Y-101820949D01*
X92500317Y-101836367D01*
X92480334Y-101849719D01*
X92480325Y-101849727D01*
X89930770Y-104399282D01*
X89869447Y-104432767D01*
X89799757Y-104427783D01*
X89687485Y-104385909D01*
X89687483Y-104385908D01*
X89627883Y-104379501D01*
X89627881Y-104379500D01*
X89627873Y-104379500D01*
X89627864Y-104379500D01*
X88532129Y-104379500D01*
X88532123Y-104379501D01*
X88472516Y-104385908D01*
X88337671Y-104436202D01*
X88337664Y-104436206D01*
X88222455Y-104522452D01*
X88222452Y-104522455D01*
X88136206Y-104637664D01*
X88136202Y-104637671D01*
X88085908Y-104772517D01*
X88079501Y-104832116D01*
X88079500Y-104832135D01*
X88079500Y-105927870D01*
X88079501Y-105927876D01*
X88085908Y-105987483D01*
X88136202Y-106122328D01*
X88136206Y-106122335D01*
X88222452Y-106237544D01*
X88222455Y-106237547D01*
X88337664Y-106323793D01*
X88337671Y-106323797D01*
X88472517Y-106374091D01*
X88472516Y-106374091D01*
X88479444Y-106374835D01*
X88532127Y-106380500D01*
X89627872Y-106380499D01*
X89687483Y-106374091D01*
X89822331Y-106323796D01*
X89937546Y-106237546D01*
X90023796Y-106122331D01*
X90049902Y-106052337D01*
X90091772Y-105996403D01*
X90118627Y-105981110D01*
X90178127Y-105956465D01*
X90284669Y-105885277D01*
X93280900Y-102889044D01*
X93299684Y-102873629D01*
X93319669Y-102860277D01*
X98993127Y-97186819D01*
X99054450Y-97153334D01*
X99080808Y-97150500D01*
X99500191Y-97150500D01*
X99567230Y-97170185D01*
X99612985Y-97222989D01*
X99622929Y-97292147D01*
X99593904Y-97355703D01*
X99587872Y-97362181D01*
X81862181Y-115087872D01*
X81800858Y-115121357D01*
X81731166Y-115116373D01*
X81675233Y-115074501D01*
X81650816Y-115009037D01*
X81650500Y-115000191D01*
X81650500Y-109090807D01*
X81670185Y-109023768D01*
X81686814Y-109003131D01*
X91255652Y-99434292D01*
X91316973Y-99400809D01*
X91386665Y-99405793D01*
X91442597Y-99447663D01*
X91472455Y-99487547D01*
X91587664Y-99573793D01*
X91587671Y-99573797D01*
X91722517Y-99624091D01*
X91722516Y-99624091D01*
X91729444Y-99624835D01*
X91782127Y-99630500D01*
X92877872Y-99630499D01*
X92937483Y-99624091D01*
X93072331Y-99573796D01*
X93187546Y-99487546D01*
X93273796Y-99372331D01*
X93324091Y-99237483D01*
X93330500Y-99177873D01*
X93330499Y-98082128D01*
X93324091Y-98022517D01*
X93273796Y-97887669D01*
X93273795Y-97887668D01*
X93273793Y-97887664D01*
X93187547Y-97772455D01*
X93187544Y-97772452D01*
X93072335Y-97686206D01*
X93072328Y-97686202D01*
X92937482Y-97635908D01*
X92937483Y-97635908D01*
X92877883Y-97629501D01*
X92877881Y-97629500D01*
X92877873Y-97629500D01*
X92877864Y-97629500D01*
X91782129Y-97629500D01*
X91782123Y-97629501D01*
X91722516Y-97635908D01*
X91587671Y-97686202D01*
X91587664Y-97686206D01*
X91472455Y-97772452D01*
X91472452Y-97772455D01*
X91386206Y-97887664D01*
X91386204Y-97887668D01*
X91386204Y-97887669D01*
X91382039Y-97898834D01*
X91340171Y-97954766D01*
X91274707Y-97979184D01*
X91265859Y-97979500D01*
X91075929Y-97979500D01*
X90950261Y-98004497D01*
X90950255Y-98004499D01*
X90906757Y-98022517D01*
X90906756Y-98022517D01*
X90831881Y-98053530D01*
X90831863Y-98053540D01*
X90725332Y-98124721D01*
X90725325Y-98124727D01*
X81362181Y-107487872D01*
X81300858Y-107521357D01*
X81231166Y-107516373D01*
X81175233Y-107474501D01*
X81150816Y-107409037D01*
X81150500Y-107400191D01*
X81150500Y-103740807D01*
X81170185Y-103673768D01*
X81186814Y-103653131D01*
X85423127Y-99416817D01*
X85484450Y-99383333D01*
X85510808Y-99380499D01*
X86127871Y-99380499D01*
X86127872Y-99380499D01*
X86187483Y-99374091D01*
X86322331Y-99323796D01*
X86437546Y-99237546D01*
X86523796Y-99122331D01*
X86574091Y-98987483D01*
X86580500Y-98927873D01*
X86580499Y-97832128D01*
X86574091Y-97772517D01*
X86541898Y-97686204D01*
X86523797Y-97637671D01*
X86523793Y-97637664D01*
X86437547Y-97522455D01*
X86437544Y-97522452D01*
X86322335Y-97436206D01*
X86322328Y-97436202D01*
X86187482Y-97385908D01*
X86187483Y-97385908D01*
X86127883Y-97379501D01*
X86127881Y-97379500D01*
X86127873Y-97379500D01*
X86127864Y-97379500D01*
X85032129Y-97379500D01*
X85032123Y-97379501D01*
X84972516Y-97385908D01*
X84837671Y-97436202D01*
X84837664Y-97436206D01*
X84722455Y-97522452D01*
X84722452Y-97522455D01*
X84636206Y-97637664D01*
X84636202Y-97637671D01*
X84585908Y-97772517D01*
X84579501Y-97832116D01*
X84579501Y-97832123D01*
X84579500Y-97832135D01*
X84579500Y-98369191D01*
X84559815Y-98436230D01*
X84543181Y-98456872D01*
X79994727Y-103005325D01*
X79994726Y-103005326D01*
X79923534Y-103111874D01*
X79874499Y-103230255D01*
X79874497Y-103230261D01*
X79849500Y-103355928D01*
X79849500Y-120551174D01*
X79849499Y-120551178D01*
X70997283Y-120551178D01*
X71181499Y-92793147D01*
X71188901Y-91677844D01*
X84580000Y-91677844D01*
X84586401Y-91737372D01*
X84586403Y-91737379D01*
X84636645Y-91872086D01*
X84636649Y-91872093D01*
X84722809Y-91987187D01*
X84722812Y-91987190D01*
X84837906Y-92073350D01*
X84837913Y-92073354D01*
X84972620Y-92123596D01*
X84972627Y-92123598D01*
X85032155Y-92129999D01*
X85032172Y-92130000D01*
X85330000Y-92130000D01*
X85830000Y-92130000D01*
X86127828Y-92130000D01*
X86127844Y-92129999D01*
X86187372Y-92123598D01*
X86187379Y-92123596D01*
X86322086Y-92073354D01*
X86322093Y-92073350D01*
X86437187Y-91987190D01*
X86437190Y-91987187D01*
X86523350Y-91872093D01*
X86523354Y-91872086D01*
X86573596Y-91737379D01*
X86573598Y-91737372D01*
X86579999Y-91677844D01*
X86580000Y-91677827D01*
X86580000Y-91380000D01*
X85830000Y-91380000D01*
X85830000Y-92130000D01*
X85330000Y-92130000D01*
X85330000Y-91380000D01*
X84580000Y-91380000D01*
X84580000Y-91677844D01*
X71188901Y-91677844D01*
X71192843Y-91083922D01*
X85230000Y-91083922D01*
X85230000Y-91176078D01*
X85253852Y-91265095D01*
X85299930Y-91344905D01*
X85365095Y-91410070D01*
X85444905Y-91456148D01*
X85533922Y-91480000D01*
X85626078Y-91480000D01*
X85715095Y-91456148D01*
X85794905Y-91410070D01*
X85860070Y-91344905D01*
X85906148Y-91265095D01*
X85930000Y-91176078D01*
X85930000Y-91083922D01*
X85906148Y-90994905D01*
X85860070Y-90915095D01*
X85824975Y-90880000D01*
X85830000Y-90880000D01*
X86580000Y-90880000D01*
X86580000Y-90582172D01*
X86579999Y-90582155D01*
X86573598Y-90522627D01*
X86573596Y-90522620D01*
X86523354Y-90387913D01*
X86523350Y-90387906D01*
X86437190Y-90272812D01*
X86437187Y-90272809D01*
X86322093Y-90186649D01*
X86322086Y-90186645D01*
X86187379Y-90136403D01*
X86187372Y-90136401D01*
X86127844Y-90130000D01*
X85830000Y-90130000D01*
X85830000Y-90880000D01*
X85824975Y-90880000D01*
X85794905Y-90849930D01*
X85715095Y-90803852D01*
X85626078Y-90780000D01*
X85533922Y-90780000D01*
X85444905Y-90803852D01*
X85365095Y-90849930D01*
X85299930Y-90915095D01*
X85253852Y-90994905D01*
X85230000Y-91083922D01*
X71192843Y-91083922D01*
X71196173Y-90582155D01*
X84580000Y-90582155D01*
X84580000Y-90880000D01*
X85330000Y-90880000D01*
X85330000Y-90130000D01*
X85032155Y-90130000D01*
X84972627Y-90136401D01*
X84972620Y-90136403D01*
X84837913Y-90186645D01*
X84837906Y-90186649D01*
X84722812Y-90272809D01*
X84722809Y-90272812D01*
X84636649Y-90387906D01*
X84636645Y-90387913D01*
X84586403Y-90522620D01*
X84586401Y-90522627D01*
X84580000Y-90582155D01*
X71196173Y-90582155D01*
X71242892Y-83542500D01*
X83990840Y-83542500D01*
X84031652Y-83677041D01*
X84124503Y-83850753D01*
X84124507Y-83850760D01*
X84249471Y-84003028D01*
X84401739Y-84127991D01*
X84575465Y-84220849D01*
X84710000Y-84261659D01*
X84710000Y-83542500D01*
X83990840Y-83542500D01*
X71242892Y-83542500D01*
X71246210Y-83042499D01*
X83990839Y-83042499D01*
X83990840Y-83042500D01*
X84710000Y-83042500D01*
X84710000Y-82323339D01*
X84709999Y-82323339D01*
X84575458Y-82364152D01*
X84401746Y-82457003D01*
X84401739Y-82457007D01*
X84249471Y-82581971D01*
X84124507Y-82734239D01*
X84124503Y-82734246D01*
X84031652Y-82907958D01*
X83990839Y-83042499D01*
X71246210Y-83042499D01*
X71276904Y-78417498D01*
X166651890Y-78417498D01*
X166651890Y-78417501D01*
X166672304Y-78702933D01*
X166733128Y-78982537D01*
X166833135Y-79250666D01*
X166970270Y-79501809D01*
X166970275Y-79501817D01*
X167141754Y-79730887D01*
X167141770Y-79730905D01*
X167344094Y-79933229D01*
X167344112Y-79933245D01*
X167573182Y-80104724D01*
X167573190Y-80104729D01*
X167824333Y-80241864D01*
X167824332Y-80241864D01*
X167824336Y-80241865D01*
X167824339Y-80241867D01*
X168092454Y-80341869D01*
X168092460Y-80341870D01*
X168092462Y-80341871D01*
X168372066Y-80402695D01*
X168372068Y-80402695D01*
X168372072Y-80402696D01*
X168625720Y-80420837D01*
X168657499Y-80423110D01*
X168657500Y-80423110D01*
X168657501Y-80423110D01*
X168686095Y-80421064D01*
X168942928Y-80402696D01*
X169133242Y-80361296D01*
X169222537Y-80341871D01*
X169222537Y-80341870D01*
X169222546Y-80341869D01*
X169490661Y-80241867D01*
X169741815Y-80104726D01*
X169970895Y-79933239D01*
X170173239Y-79730895D01*
X170344726Y-79501815D01*
X170481867Y-79250661D01*
X170581869Y-78982546D01*
X170642696Y-78702928D01*
X170663110Y-78417500D01*
X170642696Y-78132072D01*
X170581869Y-77852454D01*
X170481867Y-77584339D01*
X170344726Y-77333185D01*
X170344724Y-77333182D01*
X170173245Y-77104112D01*
X170173229Y-77104094D01*
X169970905Y-76901770D01*
X169970887Y-76901754D01*
X169927981Y-76869635D01*
X179357000Y-76869635D01*
X179357000Y-79965370D01*
X179357001Y-79965376D01*
X179363408Y-80024983D01*
X179413702Y-80159828D01*
X179413706Y-80159835D01*
X179499952Y-80275044D01*
X179499955Y-80275047D01*
X179615164Y-80361293D01*
X179615171Y-80361297D01*
X179750017Y-80411591D01*
X179750016Y-80411591D01*
X179756944Y-80412335D01*
X179809627Y-80418000D01*
X182905372Y-80417999D01*
X182964983Y-80411591D01*
X183099831Y-80361296D01*
X183215046Y-80275046D01*
X183301296Y-80159831D01*
X183351591Y-80024983D01*
X183358000Y-79965373D01*
X183357999Y-76869628D01*
X183351591Y-76810017D01*
X183321847Y-76730270D01*
X183301297Y-76675171D01*
X183301293Y-76675164D01*
X183215047Y-76559955D01*
X183215044Y-76559952D01*
X183099835Y-76473706D01*
X183099828Y-76473702D01*
X182964982Y-76423408D01*
X182964983Y-76423408D01*
X182905383Y-76417001D01*
X182905381Y-76417000D01*
X182905373Y-76417000D01*
X182905364Y-76417000D01*
X179809629Y-76417000D01*
X179809623Y-76417001D01*
X179750016Y-76423408D01*
X179615171Y-76473702D01*
X179615164Y-76473706D01*
X179499955Y-76559952D01*
X179499952Y-76559955D01*
X179413706Y-76675164D01*
X179413702Y-76675171D01*
X179363408Y-76810017D01*
X179357001Y-76869616D01*
X179357001Y-76869623D01*
X179357000Y-76869635D01*
X169927981Y-76869635D01*
X169741817Y-76730275D01*
X169741809Y-76730270D01*
X169490666Y-76593135D01*
X169490667Y-76593135D01*
X169383415Y-76553132D01*
X169222546Y-76493131D01*
X169222543Y-76493130D01*
X169222537Y-76493128D01*
X168942933Y-76432304D01*
X168657501Y-76411890D01*
X168657499Y-76411890D01*
X168372066Y-76432304D01*
X168092462Y-76493128D01*
X167824333Y-76593135D01*
X167573190Y-76730270D01*
X167573182Y-76730275D01*
X167344112Y-76901754D01*
X167344094Y-76901770D01*
X167141770Y-77104094D01*
X167141754Y-77104112D01*
X166970275Y-77333182D01*
X166970270Y-77333190D01*
X166833135Y-77584333D01*
X166733128Y-77852462D01*
X166672304Y-78132066D01*
X166651890Y-78417498D01*
X71276904Y-78417498D01*
X71339183Y-69033177D01*
X71359312Y-68966270D01*
X71412418Y-68920866D01*
X71463180Y-68910000D01*
X196746150Y-68910000D01*
X196813189Y-68929685D01*
G37*
%TD.AperFunction*%
%TD*%
M02*
