%TF.GenerationSoftware,KiCad,Pcbnew,8.0.7*%
%TF.CreationDate,2024-12-21T06:43:57+05:30*%
%TF.ProjectId,hello,68656c6c-6f2e-46b6-9963-61645f706362,rev?*%
%TF.SameCoordinates,Original*%
%TF.FileFunction,Copper,L2,Bot*%
%TF.FilePolarity,Positive*%
%FSLAX46Y46*%
G04 Gerber Fmt 4.6, Leading zero omitted, Abs format (unit mm)*
G04 Created by KiCad (PCBNEW 8.0.7) date 2024-12-21 06:43:57*
%MOMM*%
%LPD*%
G01*
G04 APERTURE LIST*
%TA.AperFunction,ComponentPad*%
%ADD10R,1.000000X1.000000*%
%TD*%
%TA.AperFunction,ComponentPad*%
%ADD11O,1.000000X1.000000*%
%TD*%
%TA.AperFunction,ComponentPad*%
%ADD12C,3.000000*%
%TD*%
%TA.AperFunction,ComponentPad*%
%ADD13C,1.524000*%
%TD*%
%TA.AperFunction,ComponentPad*%
%ADD14R,1.524000X1.524000*%
%TD*%
%TA.AperFunction,ComponentPad*%
%ADD15C,1.400000*%
%TD*%
%TA.AperFunction,ComponentPad*%
%ADD16O,1.400000X1.400000*%
%TD*%
%TA.AperFunction,ComponentPad*%
%ADD17R,3.000000X3.000000*%
%TD*%
%TA.AperFunction,Conductor*%
%ADD18C,0.300000*%
%TD*%
G04 APERTURE END LIST*
D10*
%TO.P,U2,1,GND*%
%TO.N,GND*%
X120060000Y-85500000D03*
D11*
%TO.P,U2,2,VCC*%
%TO.N,+5V*%
X118790000Y-85500000D03*
%TO.P,U2,3,SCL*%
%TO.N,SCL*%
X117520000Y-85500000D03*
%TO.P,U2,4,SDA*%
%TO.N,SDA*%
X116250000Y-85500000D03*
%TD*%
D10*
%TO.P,R2,1*%
%TO.N,ohmmeter*%
X115750000Y-76750000D03*
D11*
%TO.P,R2,2*%
%TO.N,GND*%
X114480000Y-76750000D03*
%TD*%
D10*
%TO.P,J3,1,Pin_1*%
%TO.N,common*%
X110000000Y-110250000D03*
%TD*%
%TO.P,J5,1,Pin_1*%
%TO.N,GND*%
X109750000Y-103000000D03*
%TD*%
%TO.P,J2,1,Pin_1*%
%TO.N,volt*%
X119750000Y-110250000D03*
%TD*%
D12*
%TO.P,SW1,P,B*%
%TO.N,/switch*%
X171556000Y-105143750D03*
%TO.P,SW1,T,A*%
%TO.N,GND*%
X164444000Y-105143750D03*
%TD*%
D13*
%TO.P,U1,30,VIN*%
%TO.N,+5V*%
X149616000Y-79190000D03*
%TO.P,U1,29,GND*%
%TO.N,unconnected-(U1-GND-Pad29)*%
X149616000Y-81730000D03*
%TO.P,U1,28,RST*%
%TO.N,unconnected-(U1-RST-Pad28)*%
X149616000Y-84270000D03*
%TO.P,U1,27,5V*%
%TO.N,unconnected-(U1-5V-Pad27)*%
X149616000Y-86810000D03*
%TO.P,U1,26,A7*%
%TO.N,unconnected-(U1-A7-Pad26)*%
X149616000Y-89350000D03*
%TO.P,U1,25,A6*%
%TO.N,unconnected-(U1-A6-Pad25)*%
X149616000Y-91890000D03*
%TO.P,U1,24,A5/SCL*%
%TO.N,SCL*%
X149616000Y-94430000D03*
%TO.P,U1,23,A4/SDA*%
%TO.N,SDA*%
X149616000Y-96970000D03*
%TO.P,U1,22,A3*%
%TO.N,unconnected-(U1-A3-Pad22)*%
X149616000Y-99510000D03*
%TO.P,U1,21,A2*%
%TO.N,common*%
X149616000Y-102050000D03*
%TO.P,U1,20,A1*%
%TO.N,ohmmeter*%
X149616000Y-104590000D03*
%TO.P,U1,19,A0*%
%TO.N,volt*%
X149616000Y-107130000D03*
%TO.P,U1,18,REF*%
%TO.N,unconnected-(U1-REF-Pad18)*%
X149616000Y-109670000D03*
%TO.P,U1,17,3V3*%
%TO.N,unconnected-(U1-3V3-Pad17)*%
X149616000Y-112210000D03*
%TO.P,U1,16,D13*%
%TO.N,unconnected-(U1-D13-Pad16)*%
X149616000Y-114750000D03*
%TO.P,U1,15,D12*%
%TO.N,unconnected-(U1-D12-Pad15)*%
X134376000Y-114750000D03*
%TO.P,U1,14,D11*%
%TO.N,unconnected-(U1-D11-Pad14)*%
X134376000Y-112210000D03*
%TO.P,U1,13,D10*%
%TO.N,unconnected-(U1-D10-Pad13)*%
X134376000Y-109670000D03*
%TO.P,U1,12,D9*%
%TO.N,unconnected-(U1-D9-Pad12)*%
X134376000Y-107130000D03*
%TO.P,U1,11,D8*%
%TO.N,unconnected-(U1-D8-Pad11)*%
X134376000Y-104590000D03*
%TO.P,U1,10,D7*%
%TO.N,unconnected-(U1-D7-Pad10)*%
X134376000Y-102050000D03*
%TO.P,U1,9,D6*%
%TO.N,unconnected-(U1-D6-Pad9)*%
X134376000Y-99510000D03*
%TO.P,U1,8,D5*%
%TO.N,DT*%
X134376000Y-96970000D03*
%TO.P,U1,7,D4*%
%TO.N,CLK*%
X134376000Y-94430000D03*
%TO.P,U1,6,D3*%
%TO.N,cont*%
X134376000Y-91890000D03*
%TO.P,U1,5,D2*%
%TO.N,pwm*%
X134376000Y-89350000D03*
%TO.P,U1,4,GND*%
%TO.N,unconnected-(U1-GND-Pad4)*%
X134376000Y-86810000D03*
%TO.P,U1,3,RST*%
%TO.N,unconnected-(U1-RST-Pad3)*%
X134376000Y-84270000D03*
%TO.P,U1,2,D0/RX*%
%TO.N,unconnected-(U1-D0{slash}RX-Pad2)*%
X134376000Y-81730000D03*
D14*
%TO.P,U1,1,D1/TX*%
%TO.N,unconnected-(U1-D1{slash}TX-Pad1)*%
X134376000Y-79190000D03*
%TD*%
D10*
%TO.P,U3,1,GND*%
%TO.N,GND*%
X120025000Y-95525000D03*
D11*
%TO.P,U3,2,VCC*%
%TO.N,+5V*%
X118755000Y-95525000D03*
%TO.P,U3,3,SW*%
%TO.N,unconnected-(U3-SW-Pad3)*%
X117485000Y-95525000D03*
%TO.P,U3,4,DT*%
%TO.N,DT*%
X116215000Y-95525000D03*
%TO.P,U3,5,CLK*%
%TO.N,CLK*%
X114945000Y-95525000D03*
%TD*%
D10*
%TO.P,J4,1,Pin_1*%
%TO.N,cont*%
X119500000Y-103000000D03*
%TD*%
D15*
%TO.P,R1,1*%
%TO.N,+5V*%
X123000000Y-76750000D03*
D16*
%TO.P,R1,2*%
%TO.N,ohmmeter*%
X121100000Y-76750000D03*
%TD*%
D17*
%TO.P,BT1,1,+*%
%TO.N,+5V*%
X213750000Y-74780000D03*
D12*
%TO.P,BT1,2,-*%
%TO.N,/switch*%
X201050000Y-74780000D03*
%TD*%
D10*
%TO.P,J1,1,Pin_1*%
%TO.N,pwm*%
X119750000Y-117000000D03*
%TD*%
D18*
%TO.N,SDA*%
X152750000Y-93836000D02*
X149616000Y-96970000D01*
X152750000Y-74292893D02*
X152750000Y-93836000D01*
X115320811Y-74000000D02*
X152457107Y-74000000D01*
X152457107Y-74000000D02*
X152750000Y-74292893D01*
X113130000Y-82380000D02*
X113130000Y-76190811D01*
X113130000Y-76190811D02*
X115320811Y-74000000D01*
X116250000Y-85500000D02*
X113130000Y-82380000D01*
%TO.N,SCL*%
X152250000Y-74500000D02*
X152250000Y-91796000D01*
X115527918Y-74500000D02*
X152250000Y-74500000D01*
X113630000Y-76397918D02*
X115527918Y-74500000D01*
X113630000Y-81610000D02*
X113630000Y-76397918D01*
X152250000Y-91796000D02*
X149616000Y-94430000D01*
X117520000Y-85500000D02*
X113630000Y-81610000D01*
%TO.N,ohmmeter*%
X132588000Y-88238000D02*
X135152606Y-88238000D01*
X135152606Y-88238000D02*
X148504000Y-101589394D01*
X148504000Y-101589394D02*
X148504000Y-103478000D01*
X121100000Y-76750000D02*
X132588000Y-88238000D01*
X148504000Y-103478000D02*
X149616000Y-104590000D01*
X115750000Y-76750000D02*
X121100000Y-76750000D01*
%TO.N,common*%
X157000000Y-121000000D02*
X157000000Y-109434000D01*
X120250000Y-121000000D02*
X157000000Y-121000000D01*
X118250000Y-123000000D02*
X120250000Y-121000000D01*
X117750000Y-123000000D02*
X118250000Y-123000000D01*
X110000000Y-115250000D02*
X117750000Y-123000000D01*
X110000000Y-110250000D02*
X110000000Y-115250000D01*
X157000000Y-109434000D02*
X149616000Y-102050000D01*
%TO.N,volt*%
X153500000Y-116750000D02*
X153500000Y-111014000D01*
X150000000Y-120250000D02*
X153500000Y-116750000D01*
X117000000Y-120250000D02*
X150000000Y-120250000D01*
X119750000Y-110250000D02*
X117000000Y-113000000D01*
X117000000Y-113000000D02*
X117000000Y-120250000D01*
X153500000Y-111014000D02*
X149616000Y-107130000D01*
%TO.N,CLK*%
X135488000Y-95542000D02*
X134376000Y-94430000D01*
X135488000Y-102512000D02*
X135488000Y-95542000D01*
X132143394Y-105250000D02*
X134143394Y-103250000D01*
X134750000Y-103250000D02*
X135488000Y-102512000D01*
X119250000Y-105250000D02*
X132143394Y-105250000D01*
X115365000Y-101365000D02*
X119250000Y-105250000D01*
X115365000Y-95105000D02*
X115365000Y-101365000D01*
X134143394Y-103250000D02*
X134750000Y-103250000D01*
X114945000Y-95525000D02*
X115365000Y-95105000D01*
%TO.N,pwm*%
X133698606Y-117000000D02*
X119750000Y-117000000D01*
X138000000Y-112698606D02*
X133698606Y-117000000D01*
X134376000Y-89350000D02*
X138000000Y-92974000D01*
X138000000Y-92974000D02*
X138000000Y-112698606D01*
%TO.N,DT*%
X131000000Y-100346000D02*
X134376000Y-96970000D01*
X131000000Y-104500000D02*
X131000000Y-100346000D01*
X119350000Y-104500000D02*
X131000000Y-104500000D01*
X116215000Y-101365000D02*
X119350000Y-104500000D01*
X116215000Y-95525000D02*
X116215000Y-101365000D01*
%TO.N,cont*%
X119500000Y-103000000D02*
X123266000Y-103000000D01*
X123266000Y-103000000D02*
X134376000Y-91890000D01*
%TD*%
%TA.AperFunction,Conductor*%
%TO.N,GND*%
G36*
X229693088Y-64519910D02*
G01*
X229739051Y-64572532D01*
X229750461Y-64624029D01*
X229999537Y-131625539D01*
X229980102Y-131692651D01*
X229927468Y-131738602D01*
X229875538Y-131750000D01*
X103124933Y-131750000D01*
X103057894Y-131730315D01*
X103012139Y-131677511D01*
X103000936Y-131625071D01*
X103116910Y-116142452D01*
X103165152Y-109702135D01*
X108999500Y-109702135D01*
X108999500Y-110797870D01*
X108999501Y-110797876D01*
X109005908Y-110857483D01*
X109056202Y-110992328D01*
X109056206Y-110992335D01*
X109142452Y-111107544D01*
X109142455Y-111107547D01*
X109257665Y-111193794D01*
X109257667Y-111193794D01*
X109257669Y-111193796D01*
X109268830Y-111197958D01*
X109324764Y-111239826D01*
X109349184Y-111305289D01*
X109349500Y-111314141D01*
X109349500Y-115314071D01*
X109373496Y-115434701D01*
X109374499Y-115439746D01*
X109423533Y-115558125D01*
X109494726Y-115664673D01*
X117335326Y-123505273D01*
X117335329Y-123505275D01*
X117335331Y-123505277D01*
X117441873Y-123576465D01*
X117560256Y-123625501D01*
X117560260Y-123625501D01*
X117560261Y-123625502D01*
X117685928Y-123650500D01*
X117685931Y-123650500D01*
X118314071Y-123650500D01*
X118398615Y-123633682D01*
X118439744Y-123625501D01*
X118558127Y-123576465D01*
X118664669Y-123505277D01*
X120483126Y-121686818D01*
X120544449Y-121653334D01*
X120570807Y-121650500D01*
X157064071Y-121650500D01*
X157148615Y-121633682D01*
X157189744Y-121625501D01*
X157308127Y-121576465D01*
X157414669Y-121505276D01*
X157505276Y-121414669D01*
X157576465Y-121308127D01*
X157625501Y-121189744D01*
X157650500Y-121064069D01*
X157650500Y-109369931D01*
X157650500Y-109369928D01*
X157625502Y-109244261D01*
X157625501Y-109244260D01*
X157625501Y-109244256D01*
X157576465Y-109125873D01*
X157564574Y-109108077D01*
X157505277Y-109019331D01*
X157505275Y-109019329D01*
X157505273Y-109019326D01*
X157505272Y-109019325D01*
X153629694Y-105143748D01*
X162438891Y-105143748D01*
X162438891Y-105143751D01*
X162459300Y-105429112D01*
X162520109Y-105708645D01*
X162620091Y-105976708D01*
X162757191Y-106227788D01*
X162757196Y-106227796D01*
X162863882Y-106370312D01*
X162863883Y-106370313D01*
X163581426Y-105652770D01*
X163667249Y-105781213D01*
X163806537Y-105920501D01*
X163934978Y-106006323D01*
X163217435Y-106723865D01*
X163217436Y-106723866D01*
X163359953Y-106830553D01*
X163359961Y-106830558D01*
X163611042Y-106967658D01*
X163611041Y-106967658D01*
X163879104Y-107067640D01*
X164158637Y-107128449D01*
X164443999Y-107148859D01*
X164444001Y-107148859D01*
X164729362Y-107128449D01*
X165008895Y-107067640D01*
X165276958Y-106967658D01*
X165528038Y-106830558D01*
X165528039Y-106830557D01*
X165670563Y-106723865D01*
X164953020Y-106006323D01*
X165081463Y-105920501D01*
X165220751Y-105781213D01*
X165306573Y-105652770D01*
X166024115Y-106370313D01*
X166130807Y-106227789D01*
X166130808Y-106227788D01*
X166267908Y-105976708D01*
X166367890Y-105708645D01*
X166428699Y-105429112D01*
X166449109Y-105143751D01*
X166449109Y-105143748D01*
X169550390Y-105143748D01*
X169550390Y-105143751D01*
X169570804Y-105429183D01*
X169631628Y-105708787D01*
X169631630Y-105708793D01*
X169631631Y-105708796D01*
X169729944Y-105972382D01*
X169731635Y-105976916D01*
X169868770Y-106228059D01*
X169868775Y-106228067D01*
X170040254Y-106457137D01*
X170040270Y-106457155D01*
X170242594Y-106659479D01*
X170242612Y-106659495D01*
X170471682Y-106830974D01*
X170471690Y-106830979D01*
X170722833Y-106968114D01*
X170722832Y-106968114D01*
X170722836Y-106968115D01*
X170722839Y-106968117D01*
X170990954Y-107068119D01*
X170990960Y-107068120D01*
X170990962Y-107068121D01*
X171270566Y-107128945D01*
X171270568Y-107128945D01*
X171270572Y-107128946D01*
X171524220Y-107147087D01*
X171555999Y-107149360D01*
X171556000Y-107149360D01*
X171556001Y-107149360D01*
X171584595Y-107147314D01*
X171841428Y-107128946D01*
X172121046Y-107068119D01*
X172389161Y-106968117D01*
X172640315Y-106830976D01*
X172869395Y-106659489D01*
X173071739Y-106457145D01*
X173243226Y-106228065D01*
X173380367Y-105976911D01*
X173480369Y-105708796D01*
X173484994Y-105687534D01*
X173541195Y-105429183D01*
X173541195Y-105429182D01*
X173541196Y-105429178D01*
X173561610Y-105143750D01*
X173541196Y-104858322D01*
X173530699Y-104810070D01*
X173480371Y-104578712D01*
X173480370Y-104578710D01*
X173480369Y-104578704D01*
X173380367Y-104310589D01*
X173366236Y-104284711D01*
X173243229Y-104059440D01*
X173243224Y-104059432D01*
X173071745Y-103830362D01*
X173071729Y-103830344D01*
X172869405Y-103628020D01*
X172869387Y-103628004D01*
X172640317Y-103456525D01*
X172640309Y-103456520D01*
X172389166Y-103319385D01*
X172389167Y-103319385D01*
X172203138Y-103250000D01*
X172121046Y-103219381D01*
X172121043Y-103219380D01*
X172121037Y-103219378D01*
X171841433Y-103158554D01*
X171556001Y-103138140D01*
X171555999Y-103138140D01*
X171270566Y-103158554D01*
X170990962Y-103219378D01*
X170722833Y-103319385D01*
X170471690Y-103456520D01*
X170471682Y-103456525D01*
X170242612Y-103628004D01*
X170242594Y-103628020D01*
X170040270Y-103830344D01*
X170040254Y-103830362D01*
X169868775Y-104059432D01*
X169868770Y-104059440D01*
X169731635Y-104310583D01*
X169631628Y-104578712D01*
X169570804Y-104858316D01*
X169550390Y-105143748D01*
X166449109Y-105143748D01*
X166428699Y-104858387D01*
X166367890Y-104578854D01*
X166267908Y-104310791D01*
X166130808Y-104059711D01*
X166130803Y-104059703D01*
X166024116Y-103917186D01*
X166024115Y-103917185D01*
X165306572Y-104634728D01*
X165220751Y-104506287D01*
X165081463Y-104366999D01*
X164953020Y-104281175D01*
X165670563Y-103563633D01*
X165670562Y-103563632D01*
X165528046Y-103456946D01*
X165528038Y-103456941D01*
X165276957Y-103319841D01*
X165276958Y-103319841D01*
X165008895Y-103219859D01*
X164729362Y-103159050D01*
X164444001Y-103138641D01*
X164443999Y-103138641D01*
X164158637Y-103159050D01*
X163879104Y-103219859D01*
X163611041Y-103319841D01*
X163359961Y-103456941D01*
X163359953Y-103456946D01*
X163217435Y-103563632D01*
X163934979Y-104281176D01*
X163806537Y-104366999D01*
X163667249Y-104506287D01*
X163581426Y-104634729D01*
X162863882Y-103917185D01*
X162757196Y-104059703D01*
X162757191Y-104059711D01*
X162620091Y-104310791D01*
X162520109Y-104578854D01*
X162459300Y-104858387D01*
X162438891Y-105143748D01*
X153629694Y-105143748D01*
X150891857Y-102405911D01*
X150858372Y-102344588D01*
X150859764Y-102286133D01*
X150864070Y-102270068D01*
X150882780Y-102056204D01*
X150883323Y-102050002D01*
X150883323Y-102049997D01*
X150876103Y-101967474D01*
X150864070Y-101829932D01*
X150806894Y-101616550D01*
X150713534Y-101416339D01*
X150586826Y-101235380D01*
X150430620Y-101079174D01*
X150430616Y-101079171D01*
X150430615Y-101079170D01*
X150249666Y-100952468D01*
X150249658Y-100952464D01*
X150120811Y-100892382D01*
X150068371Y-100846210D01*
X150049219Y-100779017D01*
X150069435Y-100712135D01*
X150120811Y-100667618D01*
X150126802Y-100664824D01*
X150249662Y-100607534D01*
X150430620Y-100480826D01*
X150586826Y-100324620D01*
X150713534Y-100143662D01*
X150806894Y-99943450D01*
X150864070Y-99730068D01*
X150883323Y-99510000D01*
X150883322Y-99509994D01*
X150871566Y-99375616D01*
X150864070Y-99289932D01*
X150806894Y-99076550D01*
X150713534Y-98876339D01*
X150586826Y-98695380D01*
X150430620Y-98539174D01*
X150430616Y-98539171D01*
X150430615Y-98539170D01*
X150249666Y-98412468D01*
X150249658Y-98412464D01*
X150159719Y-98370525D01*
X188274500Y-98370525D01*
X188274500Y-98629474D01*
X188274501Y-98629491D01*
X188308299Y-98886217D01*
X188308300Y-98886222D01*
X188308301Y-98886228D01*
X188308302Y-98886230D01*
X188375324Y-99136364D01*
X188474423Y-99375609D01*
X188474427Y-99375619D01*
X188603906Y-99599883D01*
X188761551Y-99805331D01*
X188761557Y-99805338D01*
X188944661Y-99988442D01*
X188944668Y-99988448D01*
X189150116Y-100146093D01*
X189374380Y-100275572D01*
X189374381Y-100275572D01*
X189374384Y-100275574D01*
X189613634Y-100374675D01*
X189863772Y-100441699D01*
X190120519Y-100475500D01*
X190120526Y-100475500D01*
X190379474Y-100475500D01*
X190379481Y-100475500D01*
X190636228Y-100441699D01*
X190886366Y-100374675D01*
X191125616Y-100275574D01*
X191349884Y-100146093D01*
X191555333Y-99988447D01*
X191738447Y-99805333D01*
X191896093Y-99599884D01*
X192025574Y-99375616D01*
X192124675Y-99136366D01*
X192191699Y-98886228D01*
X192225500Y-98629481D01*
X192225500Y-98370525D01*
X211774500Y-98370525D01*
X211774500Y-98629474D01*
X211774501Y-98629491D01*
X211808299Y-98886217D01*
X211808300Y-98886222D01*
X211808301Y-98886228D01*
X211808302Y-98886230D01*
X211875324Y-99136364D01*
X211974423Y-99375609D01*
X211974427Y-99375619D01*
X212103906Y-99599883D01*
X212261551Y-99805331D01*
X212261557Y-99805338D01*
X212444661Y-99988442D01*
X212444668Y-99988448D01*
X212650116Y-100146093D01*
X212874380Y-100275572D01*
X212874381Y-100275572D01*
X212874384Y-100275574D01*
X213113634Y-100374675D01*
X213363772Y-100441699D01*
X213620519Y-100475500D01*
X213620526Y-100475500D01*
X213879474Y-100475500D01*
X213879481Y-100475500D01*
X214136228Y-100441699D01*
X214386366Y-100374675D01*
X214625616Y-100275574D01*
X214849884Y-100146093D01*
X215055333Y-99988447D01*
X215238447Y-99805333D01*
X215396093Y-99599884D01*
X215525574Y-99375616D01*
X215624675Y-99136366D01*
X215691699Y-98886228D01*
X215725500Y-98629481D01*
X215725500Y-98370519D01*
X215691699Y-98113772D01*
X215624675Y-97863634D01*
X215525574Y-97624384D01*
X215513612Y-97603666D01*
X215396093Y-97400116D01*
X215238448Y-97194668D01*
X215238442Y-97194661D01*
X215055338Y-97011557D01*
X215055331Y-97011551D01*
X214849883Y-96853906D01*
X214625619Y-96724427D01*
X214625609Y-96724423D01*
X214386364Y-96625324D01*
X214261297Y-96591813D01*
X214136228Y-96558301D01*
X214136222Y-96558300D01*
X214136217Y-96558299D01*
X213879491Y-96524501D01*
X213879486Y-96524500D01*
X213879481Y-96524500D01*
X213620519Y-96524500D01*
X213620513Y-96524500D01*
X213620508Y-96524501D01*
X213363782Y-96558299D01*
X213363775Y-96558300D01*
X213363772Y-96558301D01*
X213310908Y-96572465D01*
X213113635Y-96625324D01*
X212874390Y-96724423D01*
X212874380Y-96724427D01*
X212650116Y-96853906D01*
X212444668Y-97011551D01*
X212444661Y-97011557D01*
X212261557Y-97194661D01*
X212261551Y-97194668D01*
X212103906Y-97400116D01*
X211974427Y-97624380D01*
X211974423Y-97624390D01*
X211875324Y-97863635D01*
X211808302Y-98113769D01*
X211808299Y-98113782D01*
X211774501Y-98370508D01*
X211774500Y-98370525D01*
X192225500Y-98370525D01*
X192225500Y-98370519D01*
X192191699Y-98113772D01*
X192124675Y-97863634D01*
X192025574Y-97624384D01*
X192013612Y-97603666D01*
X191896093Y-97400116D01*
X191738448Y-97194668D01*
X191738442Y-97194661D01*
X191555338Y-97011557D01*
X191555331Y-97011551D01*
X191349883Y-96853906D01*
X191125619Y-96724427D01*
X191125609Y-96724423D01*
X190886364Y-96625324D01*
X190761297Y-96591813D01*
X190636228Y-96558301D01*
X190636222Y-96558300D01*
X190636217Y-96558299D01*
X190379491Y-96524501D01*
X190379486Y-96524500D01*
X190379481Y-96524500D01*
X190120519Y-96524500D01*
X190120513Y-96524500D01*
X190120508Y-96524501D01*
X189863782Y-96558299D01*
X189863775Y-96558300D01*
X189863772Y-96558301D01*
X189810908Y-96572465D01*
X189613635Y-96625324D01*
X189374390Y-96724423D01*
X189374380Y-96724427D01*
X189150116Y-96853906D01*
X188944668Y-97011551D01*
X188944661Y-97011557D01*
X188761557Y-97194661D01*
X188761551Y-97194668D01*
X188603906Y-97400116D01*
X188474427Y-97624380D01*
X188474423Y-97624390D01*
X188375324Y-97863635D01*
X188308302Y-98113769D01*
X188308299Y-98113782D01*
X188274501Y-98370508D01*
X188274500Y-98370525D01*
X150159719Y-98370525D01*
X150120811Y-98352382D01*
X150068371Y-98306210D01*
X150049219Y-98239017D01*
X150069435Y-98172135D01*
X150120811Y-98127618D01*
X150150510Y-98113769D01*
X150249662Y-98067534D01*
X150430620Y-97940826D01*
X150586826Y-97784620D01*
X150713534Y-97603662D01*
X150806894Y-97403450D01*
X150864070Y-97190068D01*
X150883323Y-96970000D01*
X150864070Y-96749932D01*
X150859765Y-96733866D01*
X150861424Y-96664017D01*
X150891855Y-96614089D01*
X153255276Y-94250670D01*
X153326465Y-94144127D01*
X153375501Y-94025744D01*
X153381308Y-93996550D01*
X153400500Y-93900069D01*
X153400500Y-74779998D01*
X199044390Y-74779998D01*
X199044390Y-74780001D01*
X199064804Y-75065433D01*
X199125628Y-75345037D01*
X199225635Y-75613166D01*
X199362770Y-75864309D01*
X199362775Y-75864317D01*
X199534254Y-76093387D01*
X199534270Y-76093405D01*
X199736594Y-76295729D01*
X199736612Y-76295745D01*
X199965682Y-76467224D01*
X199965690Y-76467229D01*
X200216833Y-76604364D01*
X200216832Y-76604364D01*
X200216836Y-76604365D01*
X200216839Y-76604367D01*
X200484954Y-76704369D01*
X200484960Y-76704370D01*
X200484962Y-76704371D01*
X200764566Y-76765195D01*
X200764568Y-76765195D01*
X200764572Y-76765196D01*
X201018220Y-76783337D01*
X201049999Y-76785610D01*
X201050000Y-76785610D01*
X201050001Y-76785610D01*
X201078595Y-76783564D01*
X201335428Y-76765196D01*
X201525742Y-76723796D01*
X201615037Y-76704371D01*
X201615037Y-76704370D01*
X201615046Y-76704369D01*
X201883161Y-76604367D01*
X202134315Y-76467226D01*
X202363395Y-76295739D01*
X202565739Y-76093395D01*
X202737226Y-75864315D01*
X202874367Y-75613161D01*
X202974369Y-75345046D01*
X203035196Y-75065428D01*
X203055610Y-74780000D01*
X203035196Y-74494572D01*
X202974369Y-74214954D01*
X202874367Y-73946839D01*
X202737226Y-73695685D01*
X202737224Y-73695682D01*
X202565745Y-73466612D01*
X202565729Y-73466594D01*
X202363405Y-73264270D01*
X202363387Y-73264254D01*
X202320481Y-73232135D01*
X211749500Y-73232135D01*
X211749500Y-76327870D01*
X211749501Y-76327876D01*
X211755908Y-76387483D01*
X211806202Y-76522328D01*
X211806206Y-76522335D01*
X211892452Y-76637544D01*
X211892455Y-76637547D01*
X212007664Y-76723793D01*
X212007671Y-76723797D01*
X212142517Y-76774091D01*
X212142516Y-76774091D01*
X212149444Y-76774835D01*
X212202127Y-76780500D01*
X215297872Y-76780499D01*
X215357483Y-76774091D01*
X215492331Y-76723796D01*
X215607546Y-76637546D01*
X215693796Y-76522331D01*
X215744091Y-76387483D01*
X215750500Y-76327873D01*
X215750499Y-73232128D01*
X215744091Y-73172517D01*
X215714347Y-73092770D01*
X215693797Y-73037671D01*
X215693793Y-73037664D01*
X215607547Y-72922455D01*
X215607544Y-72922452D01*
X215492335Y-72836206D01*
X215492328Y-72836202D01*
X215357482Y-72785908D01*
X215357483Y-72785908D01*
X215297883Y-72779501D01*
X215297881Y-72779500D01*
X215297873Y-72779500D01*
X215297864Y-72779500D01*
X212202129Y-72779500D01*
X212202123Y-72779501D01*
X212142516Y-72785908D01*
X212007671Y-72836202D01*
X212007664Y-72836206D01*
X211892455Y-72922452D01*
X211892452Y-72922455D01*
X211806206Y-73037664D01*
X211806202Y-73037671D01*
X211755908Y-73172517D01*
X211749501Y-73232116D01*
X211749501Y-73232123D01*
X211749500Y-73232135D01*
X202320481Y-73232135D01*
X202134317Y-73092775D01*
X202134309Y-73092770D01*
X201883166Y-72955635D01*
X201883167Y-72955635D01*
X201775915Y-72915632D01*
X201615046Y-72855631D01*
X201615043Y-72855630D01*
X201615037Y-72855628D01*
X201335433Y-72794804D01*
X201050001Y-72774390D01*
X201049999Y-72774390D01*
X200764566Y-72794804D01*
X200484962Y-72855628D01*
X200216833Y-72955635D01*
X199965690Y-73092770D01*
X199965682Y-73092775D01*
X199736612Y-73264254D01*
X199736594Y-73264270D01*
X199534270Y-73466594D01*
X199534254Y-73466612D01*
X199362775Y-73695682D01*
X199362770Y-73695690D01*
X199225635Y-73946833D01*
X199125628Y-74214962D01*
X199064804Y-74494566D01*
X199044390Y-74779998D01*
X153400500Y-74779998D01*
X153400500Y-74228824D01*
X153400500Y-74228821D01*
X153375502Y-74103154D01*
X153375501Y-74103153D01*
X153375501Y-74103149D01*
X153326465Y-73984766D01*
X153285552Y-73923535D01*
X153255276Y-73878223D01*
X153255274Y-73878220D01*
X152871780Y-73494726D01*
X152829704Y-73466612D01*
X152765234Y-73423535D01*
X152646851Y-73374499D01*
X152646845Y-73374497D01*
X152521178Y-73349500D01*
X152521176Y-73349500D01*
X115256742Y-73349500D01*
X115256740Y-73349500D01*
X115131072Y-73374497D01*
X115131062Y-73374500D01*
X115082031Y-73394810D01*
X115012692Y-73423530D01*
X115012674Y-73423540D01*
X114906143Y-73494721D01*
X114906136Y-73494727D01*
X112624724Y-75776140D01*
X112624723Y-75776142D01*
X112604637Y-75806204D01*
X112604636Y-75806206D01*
X112553534Y-75882684D01*
X112504499Y-76001066D01*
X112504497Y-76001072D01*
X112479500Y-76126739D01*
X112479500Y-76126742D01*
X112479500Y-82444069D01*
X112479500Y-82444071D01*
X112479499Y-82444071D01*
X112504497Y-82569738D01*
X112504499Y-82569744D01*
X112553534Y-82688125D01*
X112624726Y-82794673D01*
X112624727Y-82794674D01*
X115210845Y-85380791D01*
X115244330Y-85442114D01*
X115246567Y-85480625D01*
X115244659Y-85499999D01*
X115263975Y-85696129D01*
X115321188Y-85884733D01*
X115414086Y-86058532D01*
X115414090Y-86058539D01*
X115539116Y-86210883D01*
X115691460Y-86335909D01*
X115691467Y-86335913D01*
X115865266Y-86428811D01*
X115865269Y-86428811D01*
X115865273Y-86428814D01*
X116053868Y-86486024D01*
X116250000Y-86505341D01*
X116446132Y-86486024D01*
X116634727Y-86428814D01*
X116808538Y-86335910D01*
X116808544Y-86335904D01*
X116813607Y-86332523D01*
X116814703Y-86334164D01*
X116870639Y-86310405D01*
X116939507Y-86322194D01*
X116956148Y-86332888D01*
X116956393Y-86332523D01*
X116961458Y-86335907D01*
X116961462Y-86335910D01*
X117037502Y-86376554D01*
X117131439Y-86426765D01*
X117135273Y-86428814D01*
X117323868Y-86486024D01*
X117520000Y-86505341D01*
X117716132Y-86486024D01*
X117904727Y-86428814D01*
X118078538Y-86335910D01*
X118078544Y-86335904D01*
X118083607Y-86332523D01*
X118084703Y-86334164D01*
X118140639Y-86310405D01*
X118209507Y-86322194D01*
X118226148Y-86332888D01*
X118226393Y-86332523D01*
X118231458Y-86335907D01*
X118231462Y-86335910D01*
X118307502Y-86376554D01*
X118401439Y-86426765D01*
X118405273Y-86428814D01*
X118593868Y-86486024D01*
X118790000Y-86505341D01*
X118986132Y-86486024D01*
X119174727Y-86428814D01*
X119177338Y-86427418D01*
X119178864Y-86427100D01*
X119180355Y-86426483D01*
X119180472Y-86426765D01*
X119245737Y-86413174D01*
X119310106Y-86437510D01*
X119317908Y-86443351D01*
X119452623Y-86493597D01*
X119452627Y-86493598D01*
X119512155Y-86499999D01*
X119512172Y-86500000D01*
X119810000Y-86500000D01*
X120310000Y-86500000D01*
X120607828Y-86500000D01*
X120607844Y-86499999D01*
X120667372Y-86493598D01*
X120667379Y-86493596D01*
X120802086Y-86443354D01*
X120802093Y-86443350D01*
X120917187Y-86357190D01*
X120917190Y-86357187D01*
X121003350Y-86242093D01*
X121003354Y-86242086D01*
X121053596Y-86107379D01*
X121053598Y-86107372D01*
X121059999Y-86047844D01*
X121060000Y-86047827D01*
X121060000Y-85750000D01*
X120310000Y-85750000D01*
X120310000Y-86500000D01*
X119810000Y-86500000D01*
X119810000Y-85744975D01*
X119845095Y-85780070D01*
X119924905Y-85826148D01*
X120013922Y-85850000D01*
X120106078Y-85850000D01*
X120195095Y-85826148D01*
X120274905Y-85780070D01*
X120340070Y-85714905D01*
X120386148Y-85635095D01*
X120410000Y-85546078D01*
X120410000Y-85453922D01*
X120386148Y-85364905D01*
X120340070Y-85285095D01*
X120304975Y-85250000D01*
X120310000Y-85250000D01*
X121060000Y-85250000D01*
X121060000Y-84952172D01*
X121059999Y-84952155D01*
X121053598Y-84892627D01*
X121053596Y-84892620D01*
X121003354Y-84757913D01*
X121003350Y-84757906D01*
X120917190Y-84642812D01*
X120917187Y-84642809D01*
X120802093Y-84556649D01*
X120802086Y-84556645D01*
X120667379Y-84506403D01*
X120667372Y-84506401D01*
X120607844Y-84500000D01*
X120310000Y-84500000D01*
X120310000Y-85250000D01*
X120304975Y-85250000D01*
X120274905Y-85219930D01*
X120195095Y-85173852D01*
X120106078Y-85150000D01*
X120013922Y-85150000D01*
X119924905Y-85173852D01*
X119845095Y-85219930D01*
X119810000Y-85255025D01*
X119810000Y-84500000D01*
X119512155Y-84500000D01*
X119452627Y-84506401D01*
X119452620Y-84506403D01*
X119317913Y-84556645D01*
X119317907Y-84556648D01*
X119310102Y-84562492D01*
X119244638Y-84586908D01*
X119180470Y-84573249D01*
X119180359Y-84573518D01*
X119178905Y-84572916D01*
X119177341Y-84572583D01*
X119174731Y-84571188D01*
X119174730Y-84571187D01*
X119174727Y-84571186D01*
X118986132Y-84513976D01*
X118986129Y-84513975D01*
X118790000Y-84494659D01*
X118593870Y-84513975D01*
X118405266Y-84571188D01*
X118231467Y-84664086D01*
X118226399Y-84667473D01*
X118225305Y-84665836D01*
X118169337Y-84689596D01*
X118100471Y-84677795D01*
X118083843Y-84667109D01*
X118083601Y-84667473D01*
X118078532Y-84664086D01*
X117904733Y-84571188D01*
X117904727Y-84571186D01*
X117716132Y-84513976D01*
X117716129Y-84513975D01*
X117520000Y-84494659D01*
X117500625Y-84496567D01*
X117431979Y-84483547D01*
X117400791Y-84460845D01*
X114316819Y-81376873D01*
X114283334Y-81315550D01*
X114280500Y-81289192D01*
X114280500Y-77038964D01*
X114344905Y-77076148D01*
X114433922Y-77100000D01*
X114526078Y-77100000D01*
X114615095Y-77076148D01*
X114694905Y-77030070D01*
X114730000Y-76994975D01*
X114730000Y-77719159D01*
X114864539Y-77678347D01*
X114866408Y-77677349D01*
X114867500Y-77677121D01*
X114870170Y-77676016D01*
X114870379Y-77676521D01*
X114934810Y-77663104D01*
X114999176Y-77687439D01*
X115007664Y-77693793D01*
X115007671Y-77693797D01*
X115142517Y-77744091D01*
X115142516Y-77744091D01*
X115149444Y-77744835D01*
X115202127Y-77750500D01*
X116297872Y-77750499D01*
X116357483Y-77744091D01*
X116492331Y-77693796D01*
X116607546Y-77607546D01*
X116693796Y-77492331D01*
X116697960Y-77481165D01*
X116739829Y-77425234D01*
X116805293Y-77400816D01*
X116814141Y-77400500D01*
X120025137Y-77400500D01*
X120092176Y-77420185D01*
X120124091Y-77449773D01*
X120209021Y-77562238D01*
X120209025Y-77562242D01*
X120373437Y-77712123D01*
X120373439Y-77712125D01*
X120562595Y-77829245D01*
X120562596Y-77829245D01*
X120562599Y-77829247D01*
X120770060Y-77909618D01*
X120988757Y-77950500D01*
X120988759Y-77950500D01*
X121211242Y-77950500D01*
X121211243Y-77950500D01*
X121257092Y-77941929D01*
X121289639Y-77935845D01*
X121359154Y-77942875D01*
X121400106Y-77970052D01*
X132173324Y-88743271D01*
X132173331Y-88743277D01*
X132279871Y-88814464D01*
X132279870Y-88814464D01*
X132314544Y-88828826D01*
X132398256Y-88863501D01*
X132398260Y-88863501D01*
X132398261Y-88863502D01*
X132523928Y-88888500D01*
X132523931Y-88888500D01*
X133031022Y-88888500D01*
X133098061Y-88908185D01*
X133143816Y-88960989D01*
X133153760Y-89030147D01*
X133150798Y-89044585D01*
X133139054Y-89088415D01*
X133127930Y-89129930D01*
X133127929Y-89129937D01*
X133108677Y-89349997D01*
X133108677Y-89350002D01*
X133127929Y-89570062D01*
X133127930Y-89570070D01*
X133185104Y-89783445D01*
X133185105Y-89783447D01*
X133185106Y-89783450D01*
X133278466Y-89983662D01*
X133278468Y-89983666D01*
X133405170Y-90164615D01*
X133405175Y-90164621D01*
X133561378Y-90320824D01*
X133561384Y-90320829D01*
X133742333Y-90447531D01*
X133742335Y-90447532D01*
X133742338Y-90447534D01*
X133861748Y-90503215D01*
X133871189Y-90507618D01*
X133923628Y-90553790D01*
X133942780Y-90620984D01*
X133922564Y-90687865D01*
X133871189Y-90732382D01*
X133742340Y-90792465D01*
X133742338Y-90792466D01*
X133561377Y-90919175D01*
X133405175Y-91075377D01*
X133278466Y-91256338D01*
X133278465Y-91256340D01*
X133185107Y-91456548D01*
X133185104Y-91456554D01*
X133127930Y-91669929D01*
X133127929Y-91669937D01*
X133108677Y-91889997D01*
X133108677Y-91890002D01*
X133127929Y-92110062D01*
X133127931Y-92110075D01*
X133132236Y-92126141D01*
X133130571Y-92195990D01*
X133100141Y-92245911D01*
X123032873Y-102313181D01*
X122971550Y-102346666D01*
X122945192Y-102349500D01*
X120564141Y-102349500D01*
X120497102Y-102329815D01*
X120451347Y-102277011D01*
X120447969Y-102268859D01*
X120443796Y-102257669D01*
X120443793Y-102257665D01*
X120443793Y-102257664D01*
X120357547Y-102142455D01*
X120357544Y-102142452D01*
X120242335Y-102056206D01*
X120242328Y-102056202D01*
X120107482Y-102005908D01*
X120107483Y-102005908D01*
X120047883Y-101999501D01*
X120047881Y-101999500D01*
X120047873Y-101999500D01*
X120047864Y-101999500D01*
X118952129Y-101999500D01*
X118952123Y-101999501D01*
X118892516Y-102005908D01*
X118757671Y-102056202D01*
X118757664Y-102056206D01*
X118642455Y-102142452D01*
X118642452Y-102142455D01*
X118556206Y-102257664D01*
X118556202Y-102257671D01*
X118505908Y-102392516D01*
X118500273Y-102444932D01*
X118473535Y-102509483D01*
X118416142Y-102549331D01*
X118346317Y-102551824D01*
X118289303Y-102519357D01*
X116901819Y-101131873D01*
X116868334Y-101070550D01*
X116865500Y-101044192D01*
X116865500Y-96535206D01*
X116885185Y-96468167D01*
X116937989Y-96422412D01*
X117007147Y-96412468D01*
X117047952Y-96425848D01*
X117071013Y-96438174D01*
X117096439Y-96451765D01*
X117100273Y-96453814D01*
X117288868Y-96511024D01*
X117485000Y-96530341D01*
X117681132Y-96511024D01*
X117869727Y-96453814D01*
X118043538Y-96360910D01*
X118043544Y-96360904D01*
X118048607Y-96357523D01*
X118049703Y-96359164D01*
X118105639Y-96335405D01*
X118174507Y-96347194D01*
X118191148Y-96357888D01*
X118191393Y-96357523D01*
X118196458Y-96360907D01*
X118196462Y-96360910D01*
X118341013Y-96438174D01*
X118366439Y-96451765D01*
X118370273Y-96453814D01*
X118558868Y-96511024D01*
X118755000Y-96530341D01*
X118951132Y-96511024D01*
X119139727Y-96453814D01*
X119142338Y-96452418D01*
X119143864Y-96452100D01*
X119145355Y-96451483D01*
X119145472Y-96451765D01*
X119210737Y-96438174D01*
X119275106Y-96462510D01*
X119282908Y-96468351D01*
X119417623Y-96518597D01*
X119417627Y-96518598D01*
X119477155Y-96524999D01*
X119477172Y-96525000D01*
X119775000Y-96525000D01*
X120275000Y-96525000D01*
X120572828Y-96525000D01*
X120572844Y-96524999D01*
X120632372Y-96518598D01*
X120632379Y-96518596D01*
X120767086Y-96468354D01*
X120767093Y-96468350D01*
X120882187Y-96382190D01*
X120882190Y-96382187D01*
X120968350Y-96267093D01*
X120968354Y-96267086D01*
X121018596Y-96132379D01*
X121018598Y-96132372D01*
X121024999Y-96072844D01*
X121025000Y-96072827D01*
X121025000Y-95775000D01*
X120275000Y-95775000D01*
X120275000Y-96525000D01*
X119775000Y-96525000D01*
X119775000Y-95769975D01*
X119810095Y-95805070D01*
X119889905Y-95851148D01*
X119978922Y-95875000D01*
X120071078Y-95875000D01*
X120160095Y-95851148D01*
X120239905Y-95805070D01*
X120305070Y-95739905D01*
X120351148Y-95660095D01*
X120375000Y-95571078D01*
X120375000Y-95478922D01*
X120351148Y-95389905D01*
X120305070Y-95310095D01*
X120269975Y-95275000D01*
X120275000Y-95275000D01*
X121025000Y-95275000D01*
X121025000Y-94977172D01*
X121024999Y-94977155D01*
X121018598Y-94917627D01*
X121018596Y-94917620D01*
X120968354Y-94782913D01*
X120968350Y-94782906D01*
X120882190Y-94667812D01*
X120882187Y-94667809D01*
X120767093Y-94581649D01*
X120767086Y-94581645D01*
X120632379Y-94531403D01*
X120632372Y-94531401D01*
X120572844Y-94525000D01*
X120275000Y-94525000D01*
X120275000Y-95275000D01*
X120269975Y-95275000D01*
X120239905Y-95244930D01*
X120160095Y-95198852D01*
X120071078Y-95175000D01*
X119978922Y-95175000D01*
X119889905Y-95198852D01*
X119810095Y-95244930D01*
X119775000Y-95280025D01*
X119775000Y-94525000D01*
X119477155Y-94525000D01*
X119417627Y-94531401D01*
X119417620Y-94531403D01*
X119282913Y-94581645D01*
X119282907Y-94581648D01*
X119275102Y-94587492D01*
X119209638Y-94611908D01*
X119145470Y-94598249D01*
X119145359Y-94598518D01*
X119143905Y-94597916D01*
X119142341Y-94597583D01*
X119139731Y-94596188D01*
X119139730Y-94596187D01*
X119139727Y-94596186D01*
X118951132Y-94538976D01*
X118951129Y-94538975D01*
X118755000Y-94519659D01*
X118558870Y-94538975D01*
X118370266Y-94596188D01*
X118196467Y-94689086D01*
X118191399Y-94692473D01*
X118190305Y-94690836D01*
X118134337Y-94714596D01*
X118065471Y-94702795D01*
X118048843Y-94692109D01*
X118048601Y-94692473D01*
X118043532Y-94689086D01*
X117869733Y-94596188D01*
X117869727Y-94596186D01*
X117681132Y-94538976D01*
X117681129Y-94538975D01*
X117485000Y-94519659D01*
X117288870Y-94538975D01*
X117100266Y-94596188D01*
X116926467Y-94689086D01*
X116921399Y-94692473D01*
X116920305Y-94690836D01*
X116864337Y-94714596D01*
X116795471Y-94702795D01*
X116778843Y-94692109D01*
X116778601Y-94692473D01*
X116773532Y-94689086D01*
X116599733Y-94596188D01*
X116599727Y-94596186D01*
X116411132Y-94538976D01*
X116411129Y-94538975D01*
X116215000Y-94519659D01*
X116018870Y-94538975D01*
X115950769Y-94559633D01*
X115847948Y-94590824D01*
X115778084Y-94591447D01*
X115743065Y-94575265D01*
X115673129Y-94528535D01*
X115554744Y-94479499D01*
X115554738Y-94479497D01*
X115429071Y-94454500D01*
X115429069Y-94454500D01*
X115300931Y-94454500D01*
X115300929Y-94454500D01*
X115175261Y-94479497D01*
X115175251Y-94479500D01*
X115081390Y-94518379D01*
X115021785Y-94527221D01*
X114945001Y-94519659D01*
X114945000Y-94519659D01*
X114748870Y-94538975D01*
X114560266Y-94596188D01*
X114386467Y-94689086D01*
X114386460Y-94689090D01*
X114234116Y-94814116D01*
X114109090Y-94966460D01*
X114109086Y-94966467D01*
X114016188Y-95140266D01*
X113958975Y-95328870D01*
X113939659Y-95525000D01*
X113958975Y-95721129D01*
X114016188Y-95909733D01*
X114109086Y-96083532D01*
X114109090Y-96083539D01*
X114234116Y-96235883D01*
X114386460Y-96360909D01*
X114386467Y-96360913D01*
X114557066Y-96452100D01*
X114560273Y-96453814D01*
X114626496Y-96473902D01*
X114684933Y-96512198D01*
X114713390Y-96576010D01*
X114714500Y-96592562D01*
X114714500Y-101429070D01*
X114726238Y-101488076D01*
X114726238Y-101488078D01*
X114739497Y-101554736D01*
X114739499Y-101554744D01*
X114788534Y-101673125D01*
X114859726Y-101779673D01*
X118835326Y-105755273D01*
X118835329Y-105755275D01*
X118835331Y-105755277D01*
X118941873Y-105826465D01*
X119060256Y-105875501D01*
X119060260Y-105875501D01*
X119060261Y-105875502D01*
X119185928Y-105900500D01*
X119185931Y-105900500D01*
X132207465Y-105900500D01*
X132300818Y-105881930D01*
X132333138Y-105875501D01*
X132451521Y-105826465D01*
X132558063Y-105755277D01*
X133096223Y-105217115D01*
X133157544Y-105183632D01*
X133227235Y-105188616D01*
X133283169Y-105230487D01*
X133285477Y-105233675D01*
X133405170Y-105404615D01*
X133405175Y-105404621D01*
X133561378Y-105560824D01*
X133561384Y-105560829D01*
X133742333Y-105687531D01*
X133742335Y-105687532D01*
X133742338Y-105687534D01*
X133787935Y-105708796D01*
X133871189Y-105747618D01*
X133923628Y-105793790D01*
X133942780Y-105860984D01*
X133922564Y-105927865D01*
X133871189Y-105972382D01*
X133742340Y-106032465D01*
X133742338Y-106032466D01*
X133561377Y-106159175D01*
X133405175Y-106315377D01*
X133278466Y-106496338D01*
X133278465Y-106496340D01*
X133185107Y-106696548D01*
X133185104Y-106696554D01*
X133127930Y-106909929D01*
X133127929Y-106909937D01*
X133108677Y-107129997D01*
X133108677Y-107130002D01*
X133127929Y-107350062D01*
X133127930Y-107350070D01*
X133185104Y-107563445D01*
X133185105Y-107563447D01*
X133185106Y-107563450D01*
X133278466Y-107763662D01*
X133278468Y-107763666D01*
X133405170Y-107944615D01*
X133405175Y-107944621D01*
X133561378Y-108100824D01*
X133561384Y-108100829D01*
X133742333Y-108227531D01*
X133742335Y-108227532D01*
X133742338Y-108227534D01*
X133861748Y-108283215D01*
X133871189Y-108287618D01*
X133923628Y-108333790D01*
X133942780Y-108400984D01*
X133922564Y-108467865D01*
X133871189Y-108512382D01*
X133742340Y-108572465D01*
X133742338Y-108572466D01*
X133561377Y-108699175D01*
X133405175Y-108855377D01*
X133278466Y-109036338D01*
X133278465Y-109036340D01*
X133185107Y-109236548D01*
X133185104Y-109236554D01*
X133127930Y-109449929D01*
X133127929Y-109449937D01*
X133108677Y-109669997D01*
X133108677Y-109670002D01*
X133127929Y-109890062D01*
X133127930Y-109890070D01*
X133185104Y-110103445D01*
X133185105Y-110103447D01*
X133185106Y-110103450D01*
X133267055Y-110279191D01*
X133278466Y-110303662D01*
X133278468Y-110303666D01*
X133405170Y-110484615D01*
X133405175Y-110484621D01*
X133561378Y-110640824D01*
X133561384Y-110640829D01*
X133742333Y-110767531D01*
X133742335Y-110767532D01*
X133742338Y-110767534D01*
X133807407Y-110797876D01*
X133871189Y-110827618D01*
X133923628Y-110873790D01*
X133942780Y-110940984D01*
X133922564Y-111007865D01*
X133871189Y-111052382D01*
X133742340Y-111112465D01*
X133742338Y-111112466D01*
X133561377Y-111239175D01*
X133405175Y-111395377D01*
X133278466Y-111576338D01*
X133278465Y-111576340D01*
X133185107Y-111776548D01*
X133185104Y-111776554D01*
X133127930Y-111989929D01*
X133127929Y-111989937D01*
X133108677Y-112209997D01*
X133108677Y-112210002D01*
X133127929Y-112430062D01*
X133127930Y-112430070D01*
X133185104Y-112643445D01*
X133185106Y-112643450D01*
X133278466Y-112843662D01*
X133278468Y-112843666D01*
X133405170Y-113024615D01*
X133405175Y-113024621D01*
X133561378Y-113180824D01*
X133561384Y-113180829D01*
X133742333Y-113307531D01*
X133742335Y-113307532D01*
X133742338Y-113307534D01*
X133861748Y-113363215D01*
X133871189Y-113367618D01*
X133923628Y-113413790D01*
X133942780Y-113480984D01*
X133922564Y-113547865D01*
X133871189Y-113592382D01*
X133742340Y-113652465D01*
X133742338Y-113652466D01*
X133561377Y-113779175D01*
X133405175Y-113935377D01*
X133278466Y-114116338D01*
X133278465Y-114116340D01*
X133185107Y-114316548D01*
X133185104Y-114316554D01*
X133127930Y-114529929D01*
X133127929Y-114529937D01*
X133108677Y-114749997D01*
X133108677Y-114750002D01*
X133127929Y-114970062D01*
X133127930Y-114970070D01*
X133185104Y-115183445D01*
X133185105Y-115183447D01*
X133185106Y-115183450D01*
X133278466Y-115383662D01*
X133278468Y-115383666D01*
X133405170Y-115564615D01*
X133405174Y-115564620D01*
X133561380Y-115720826D01*
X133732323Y-115840521D01*
X133775948Y-115895098D01*
X133783142Y-115964596D01*
X133751619Y-116026951D01*
X133748882Y-116029777D01*
X133465477Y-116313182D01*
X133404157Y-116346666D01*
X133377798Y-116349500D01*
X120814141Y-116349500D01*
X120747102Y-116329815D01*
X120701347Y-116277011D01*
X120697969Y-116268859D01*
X120693796Y-116257669D01*
X120693793Y-116257665D01*
X120693793Y-116257664D01*
X120607547Y-116142455D01*
X120607544Y-116142452D01*
X120492335Y-116056206D01*
X120492328Y-116056202D01*
X120357482Y-116005908D01*
X120357483Y-116005908D01*
X120297883Y-115999501D01*
X120297881Y-115999500D01*
X120297873Y-115999500D01*
X120297864Y-115999500D01*
X119202129Y-115999500D01*
X119202123Y-115999501D01*
X119142516Y-116005908D01*
X119007671Y-116056202D01*
X119007664Y-116056206D01*
X118892455Y-116142452D01*
X118892452Y-116142455D01*
X118806206Y-116257664D01*
X118806202Y-116257671D01*
X118755908Y-116392517D01*
X118749501Y-116452116D01*
X118749500Y-116452135D01*
X118749500Y-117547870D01*
X118749501Y-117547876D01*
X118755908Y-117607483D01*
X118806202Y-117742328D01*
X118806206Y-117742335D01*
X118892452Y-117857544D01*
X118892455Y-117857547D01*
X119007664Y-117943793D01*
X119007671Y-117943797D01*
X119142517Y-117994091D01*
X119142516Y-117994091D01*
X119149444Y-117994835D01*
X119202127Y-118000500D01*
X120297872Y-118000499D01*
X120357483Y-117994091D01*
X120492331Y-117943796D01*
X120607546Y-117857546D01*
X120693796Y-117742331D01*
X120697960Y-117731165D01*
X120739829Y-117675234D01*
X120805293Y-117650816D01*
X120814141Y-117650500D01*
X133762677Y-117650500D01*
X133847221Y-117633682D01*
X133888350Y-117625501D01*
X134006733Y-117576465D01*
X134113275Y-117505277D01*
X138505277Y-113113275D01*
X138576465Y-113006733D01*
X138625501Y-112888349D01*
X138641035Y-112810256D01*
X138650500Y-112762677D01*
X138650500Y-92955202D01*
X138670185Y-92888163D01*
X138722989Y-92842408D01*
X138792147Y-92832464D01*
X138855703Y-92861489D01*
X138862181Y-92867521D01*
X147817181Y-101822521D01*
X147850666Y-101883844D01*
X147853500Y-101910202D01*
X147853500Y-103542071D01*
X147870595Y-103628011D01*
X147873627Y-103643250D01*
X147878499Y-103667744D01*
X147927535Y-103786127D01*
X147969879Y-103849500D01*
X147998726Y-103892673D01*
X148340141Y-104234088D01*
X148373626Y-104295411D01*
X148372236Y-104353857D01*
X148367932Y-104369920D01*
X148367929Y-104369937D01*
X148348677Y-104589997D01*
X148348677Y-104590002D01*
X148367929Y-104810062D01*
X148367930Y-104810070D01*
X148425104Y-105023445D01*
X148425105Y-105023447D01*
X148425106Y-105023450D01*
X148435276Y-105045259D01*
X148518466Y-105223662D01*
X148518468Y-105223666D01*
X148645170Y-105404615D01*
X148645175Y-105404621D01*
X148801378Y-105560824D01*
X148801384Y-105560829D01*
X148982333Y-105687531D01*
X148982335Y-105687532D01*
X148982338Y-105687534D01*
X149027935Y-105708796D01*
X149111189Y-105747618D01*
X149163628Y-105793790D01*
X149182780Y-105860984D01*
X149162564Y-105927865D01*
X149111189Y-105972382D01*
X148982340Y-106032465D01*
X148982338Y-106032466D01*
X148801377Y-106159175D01*
X148645175Y-106315377D01*
X148518466Y-106496338D01*
X148518465Y-106496340D01*
X148425107Y-106696548D01*
X148425104Y-106696554D01*
X148367930Y-106909929D01*
X148367929Y-106909937D01*
X148348677Y-107129997D01*
X148348677Y-107130002D01*
X148367929Y-107350062D01*
X148367930Y-107350070D01*
X148425104Y-107563445D01*
X148425105Y-107563447D01*
X148425106Y-107563450D01*
X148518466Y-107763662D01*
X148518468Y-107763666D01*
X148645170Y-107944615D01*
X148645175Y-107944621D01*
X148801378Y-108100824D01*
X148801384Y-108100829D01*
X148982333Y-108227531D01*
X148982335Y-108227532D01*
X148982338Y-108227534D01*
X149101748Y-108283215D01*
X149111189Y-108287618D01*
X149163628Y-108333790D01*
X149182780Y-108400984D01*
X149162564Y-108467865D01*
X149111189Y-108512382D01*
X148982340Y-108572465D01*
X148982338Y-108572466D01*
X148801377Y-108699175D01*
X148645175Y-108855377D01*
X148518466Y-109036338D01*
X148518465Y-109036340D01*
X148425107Y-109236548D01*
X148425104Y-109236554D01*
X148367930Y-109449929D01*
X148367929Y-109449937D01*
X148348677Y-109669997D01*
X148348677Y-109670002D01*
X148367929Y-109890062D01*
X148367930Y-109890070D01*
X148425104Y-110103445D01*
X148425105Y-110103447D01*
X148425106Y-110103450D01*
X148507055Y-110279191D01*
X148518466Y-110303662D01*
X148518468Y-110303666D01*
X148645170Y-110484615D01*
X148645175Y-110484621D01*
X148801378Y-110640824D01*
X148801384Y-110640829D01*
X148982333Y-110767531D01*
X148982335Y-110767532D01*
X148982338Y-110767534D01*
X149047407Y-110797876D01*
X149111189Y-110827618D01*
X149163628Y-110873790D01*
X149182780Y-110940984D01*
X149162564Y-111007865D01*
X149111189Y-111052382D01*
X148982340Y-111112465D01*
X148982338Y-111112466D01*
X148801377Y-111239175D01*
X148645175Y-111395377D01*
X148518466Y-111576338D01*
X148518465Y-111576340D01*
X148425107Y-111776548D01*
X148425104Y-111776554D01*
X148367930Y-111989929D01*
X148367929Y-111989937D01*
X148348677Y-112209997D01*
X148348677Y-112210002D01*
X148367929Y-112430062D01*
X148367930Y-112430070D01*
X148425104Y-112643445D01*
X148425106Y-112643450D01*
X148518466Y-112843662D01*
X148518468Y-112843666D01*
X148645170Y-113024615D01*
X148645175Y-113024621D01*
X148801378Y-113180824D01*
X148801384Y-113180829D01*
X148982333Y-113307531D01*
X148982335Y-113307532D01*
X148982338Y-113307534D01*
X149101748Y-113363215D01*
X149111189Y-113367618D01*
X149163628Y-113413790D01*
X149182780Y-113480984D01*
X149162564Y-113547865D01*
X149111189Y-113592382D01*
X148982340Y-113652465D01*
X148982338Y-113652466D01*
X148801377Y-113779175D01*
X148645175Y-113935377D01*
X148518466Y-114116338D01*
X148518465Y-114116340D01*
X148425107Y-114316548D01*
X148425104Y-114316554D01*
X148367930Y-114529929D01*
X148367929Y-114529937D01*
X148348677Y-114749997D01*
X148348677Y-114750002D01*
X148367929Y-114970062D01*
X148367930Y-114970070D01*
X148425104Y-115183445D01*
X148425105Y-115183447D01*
X148425106Y-115183450D01*
X148518466Y-115383662D01*
X148518468Y-115383666D01*
X148645170Y-115564615D01*
X148645175Y-115564621D01*
X148801378Y-115720824D01*
X148801384Y-115720829D01*
X148982333Y-115847531D01*
X148982335Y-115847532D01*
X148982338Y-115847534D01*
X149182550Y-115940894D01*
X149395932Y-115998070D01*
X149553123Y-116011822D01*
X149615998Y-116017323D01*
X149616000Y-116017323D01*
X149616002Y-116017323D01*
X149671017Y-116012509D01*
X149836068Y-115998070D01*
X150049450Y-115940894D01*
X150249662Y-115847534D01*
X150430620Y-115720826D01*
X150586826Y-115564620D01*
X150713534Y-115383662D01*
X150806894Y-115183450D01*
X150864070Y-114970068D01*
X150883323Y-114750000D01*
X150864070Y-114529932D01*
X150806894Y-114316550D01*
X150713534Y-114116339D01*
X150586826Y-113935380D01*
X150430620Y-113779174D01*
X150430616Y-113779171D01*
X150430615Y-113779170D01*
X150249666Y-113652468D01*
X150249658Y-113652464D01*
X150120811Y-113592382D01*
X150068371Y-113546210D01*
X150049219Y-113479017D01*
X150069435Y-113412135D01*
X150120811Y-113367618D01*
X150126802Y-113364824D01*
X150249662Y-113307534D01*
X150430620Y-113180826D01*
X150586826Y-113024620D01*
X150713534Y-112843662D01*
X150806894Y-112643450D01*
X150864070Y-112430068D01*
X150883323Y-112210000D01*
X150864070Y-111989932D01*
X150806894Y-111776550D01*
X150713534Y-111576339D01*
X150586826Y-111395380D01*
X150430620Y-111239174D01*
X150430616Y-111239171D01*
X150430615Y-111239170D01*
X150249666Y-111112468D01*
X150249658Y-111112464D01*
X150120811Y-111052382D01*
X150068371Y-111006210D01*
X150049219Y-110939017D01*
X150069435Y-110872135D01*
X150120811Y-110827618D01*
X150128023Y-110824255D01*
X150249662Y-110767534D01*
X150430620Y-110640826D01*
X150586826Y-110484620D01*
X150713534Y-110303662D01*
X150806894Y-110103450D01*
X150864070Y-109890068D01*
X150883323Y-109670000D01*
X150879197Y-109622840D01*
X150892963Y-109554341D01*
X150941578Y-109504158D01*
X151009607Y-109488224D01*
X151075451Y-109511599D01*
X151090406Y-109524352D01*
X152813181Y-111247127D01*
X152846666Y-111308450D01*
X152849500Y-111334808D01*
X152849500Y-116429192D01*
X152829815Y-116496231D01*
X152813181Y-116516873D01*
X149766873Y-119563181D01*
X149705550Y-119596666D01*
X149679192Y-119599500D01*
X117774500Y-119599500D01*
X117707461Y-119579815D01*
X117661706Y-119527011D01*
X117650500Y-119475500D01*
X117650500Y-113320807D01*
X117670185Y-113253768D01*
X117686814Y-113233131D01*
X119633127Y-111286817D01*
X119694450Y-111253333D01*
X119720808Y-111250499D01*
X120297871Y-111250499D01*
X120297872Y-111250499D01*
X120357483Y-111244091D01*
X120492331Y-111193796D01*
X120607546Y-111107546D01*
X120693796Y-110992331D01*
X120744091Y-110857483D01*
X120750500Y-110797873D01*
X120750499Y-109702128D01*
X120744091Y-109642517D01*
X120736752Y-109622841D01*
X120693797Y-109507671D01*
X120693793Y-109507664D01*
X120607547Y-109392455D01*
X120607544Y-109392452D01*
X120492335Y-109306206D01*
X120492328Y-109306202D01*
X120357482Y-109255908D01*
X120357483Y-109255908D01*
X120297883Y-109249501D01*
X120297881Y-109249500D01*
X120297873Y-109249500D01*
X120297864Y-109249500D01*
X119202129Y-109249500D01*
X119202123Y-109249501D01*
X119142516Y-109255908D01*
X119007671Y-109306202D01*
X119007664Y-109306206D01*
X118892455Y-109392452D01*
X118892452Y-109392455D01*
X118806206Y-109507664D01*
X118806202Y-109507671D01*
X118755908Y-109642517D01*
X118749501Y-109702116D01*
X118749501Y-109702123D01*
X118749500Y-109702135D01*
X118749500Y-110279191D01*
X118729815Y-110346230D01*
X118713181Y-110366872D01*
X116494725Y-112585328D01*
X116494719Y-112585336D01*
X116455889Y-112643449D01*
X116455890Y-112643450D01*
X116423534Y-112691874D01*
X116374499Y-112810255D01*
X116374497Y-112810261D01*
X116349500Y-112935928D01*
X116349500Y-112935931D01*
X116349500Y-120314069D01*
X116349500Y-120314071D01*
X116349499Y-120314071D01*
X116360503Y-120369386D01*
X116354276Y-120438978D01*
X116311413Y-120494155D01*
X116245524Y-120517400D01*
X116177526Y-120501332D01*
X116151205Y-120481259D01*
X110686819Y-115016873D01*
X110653334Y-114955550D01*
X110650500Y-114929192D01*
X110650500Y-111314141D01*
X110670185Y-111247102D01*
X110722989Y-111201347D01*
X110731149Y-111197966D01*
X110742331Y-111193796D01*
X110857546Y-111107546D01*
X110943796Y-110992331D01*
X110994091Y-110857483D01*
X111000500Y-110797873D01*
X111000499Y-109702128D01*
X110994091Y-109642517D01*
X110986752Y-109622841D01*
X110943797Y-109507671D01*
X110943793Y-109507664D01*
X110857547Y-109392455D01*
X110857544Y-109392452D01*
X110742335Y-109306206D01*
X110742328Y-109306202D01*
X110607482Y-109255908D01*
X110607483Y-109255908D01*
X110547883Y-109249501D01*
X110547881Y-109249500D01*
X110547873Y-109249500D01*
X110547864Y-109249500D01*
X109452129Y-109249500D01*
X109452123Y-109249501D01*
X109392516Y-109255908D01*
X109257671Y-109306202D01*
X109257664Y-109306206D01*
X109142455Y-109392452D01*
X109142452Y-109392455D01*
X109056206Y-109507664D01*
X109056202Y-109507671D01*
X109005908Y-109642517D01*
X108999501Y-109702116D01*
X108999501Y-109702123D01*
X108999500Y-109702135D01*
X103165152Y-109702135D01*
X103211252Y-103547844D01*
X108750000Y-103547844D01*
X108756401Y-103607372D01*
X108756403Y-103607379D01*
X108806645Y-103742086D01*
X108806649Y-103742093D01*
X108892809Y-103857187D01*
X108892812Y-103857190D01*
X109007906Y-103943350D01*
X109007913Y-103943354D01*
X109142620Y-103993596D01*
X109142627Y-103993598D01*
X109202155Y-103999999D01*
X109202172Y-104000000D01*
X109500000Y-104000000D01*
X110000000Y-104000000D01*
X110297828Y-104000000D01*
X110297844Y-103999999D01*
X110357372Y-103993598D01*
X110357379Y-103993596D01*
X110492086Y-103943354D01*
X110492093Y-103943350D01*
X110607187Y-103857190D01*
X110607190Y-103857187D01*
X110693350Y-103742093D01*
X110693354Y-103742086D01*
X110743596Y-103607379D01*
X110743598Y-103607372D01*
X110749999Y-103547844D01*
X110750000Y-103547827D01*
X110750000Y-103250000D01*
X110000000Y-103250000D01*
X110000000Y-104000000D01*
X109500000Y-104000000D01*
X109500000Y-103250000D01*
X108750000Y-103250000D01*
X108750000Y-103547844D01*
X103211252Y-103547844D01*
X103215701Y-102953922D01*
X109400000Y-102953922D01*
X109400000Y-103046078D01*
X109423852Y-103135095D01*
X109469930Y-103214905D01*
X109535095Y-103280070D01*
X109614905Y-103326148D01*
X109703922Y-103350000D01*
X109796078Y-103350000D01*
X109885095Y-103326148D01*
X109964905Y-103280070D01*
X110030070Y-103214905D01*
X110076148Y-103135095D01*
X110100000Y-103046078D01*
X110100000Y-102953922D01*
X110076148Y-102864905D01*
X110030070Y-102785095D01*
X109994975Y-102750000D01*
X110000000Y-102750000D01*
X110750000Y-102750000D01*
X110750000Y-102452172D01*
X110749999Y-102452155D01*
X110743598Y-102392627D01*
X110743596Y-102392620D01*
X110693354Y-102257913D01*
X110693350Y-102257906D01*
X110607190Y-102142812D01*
X110607187Y-102142809D01*
X110492093Y-102056649D01*
X110492086Y-102056645D01*
X110357379Y-102006403D01*
X110357372Y-102006401D01*
X110297844Y-102000000D01*
X110000000Y-102000000D01*
X110000000Y-102750000D01*
X109994975Y-102750000D01*
X109964905Y-102719930D01*
X109885095Y-102673852D01*
X109796078Y-102650000D01*
X109703922Y-102650000D01*
X109614905Y-102673852D01*
X109535095Y-102719930D01*
X109469930Y-102785095D01*
X109423852Y-102864905D01*
X109400000Y-102953922D01*
X103215701Y-102953922D01*
X103219459Y-102452155D01*
X108750000Y-102452155D01*
X108750000Y-102750000D01*
X109500000Y-102750000D01*
X109500000Y-102000000D01*
X109202155Y-102000000D01*
X109142627Y-102006401D01*
X109142620Y-102006403D01*
X109007913Y-102056645D01*
X109007906Y-102056649D01*
X108892812Y-102142809D01*
X108892809Y-102142812D01*
X108806649Y-102257906D01*
X108806645Y-102257913D01*
X108756403Y-102392620D01*
X108756401Y-102392627D01*
X108750000Y-102452155D01*
X103219459Y-102452155D01*
X103499081Y-65122581D01*
X103519268Y-65055694D01*
X103572413Y-65010336D01*
X103622584Y-64999514D01*
X229625971Y-64500491D01*
X229693088Y-64519910D01*
G37*
%TD.AperFunction*%
%TD*%
M02*
