%TF.GenerationSoftware,KiCad,Pcbnew,8.0.7*%
%TF.CreationDate,2024-12-21T06:43:57+05:30*%
%TF.ProjectId,hello,68656c6c-6f2e-46b6-9963-61645f706362,rev?*%
%TF.SameCoordinates,Original*%
%TF.FileFunction,Soldermask,Top*%
%TF.FilePolarity,Negative*%
%FSLAX46Y46*%
G04 Gerber Fmt 4.6, Leading zero omitted, Abs format (unit mm)*
G04 Created by KiCad (PCBNEW 8.0.7) date 2024-12-21 06:43:57*
%MOMM*%
%LPD*%
G01*
G04 APERTURE LIST*
%ADD10R,1.000000X1.000000*%
%ADD11O,1.000000X1.000000*%
%ADD12C,3.204000*%
%ADD13C,1.524000*%
%ADD14R,1.524000X1.524000*%
%ADD15C,1.400000*%
%ADD16O,1.400000X1.400000*%
%ADD17C,3.450000*%
%ADD18R,3.000000X3.000000*%
%ADD19C,3.000000*%
G04 APERTURE END LIST*
D10*
%TO.C,U2*%
X120060000Y-85500000D03*
D11*
X118790000Y-85500000D03*
X117520000Y-85500000D03*
X116250000Y-85500000D03*
%TD*%
D10*
%TO.C,R2*%
X115750000Y-76750000D03*
D11*
X114480000Y-76750000D03*
%TD*%
D10*
%TO.C,J3*%
X110000000Y-110250000D03*
%TD*%
%TO.C,J5*%
X109750000Y-103000000D03*
%TD*%
%TO.C,J2*%
X119750000Y-110250000D03*
%TD*%
D12*
%TO.C,SW1*%
X171556000Y-105143750D03*
X164444000Y-105143750D03*
%TD*%
D13*
%TO.C,U1*%
X149616000Y-79190000D03*
X149616000Y-81730000D03*
X149616000Y-84270000D03*
X149616000Y-86810000D03*
X149616000Y-89350000D03*
X149616000Y-91890000D03*
X149616000Y-94430000D03*
X149616000Y-96970000D03*
X149616000Y-99510000D03*
X149616000Y-102050000D03*
X149616000Y-104590000D03*
X149616000Y-107130000D03*
X149616000Y-109670000D03*
X149616000Y-112210000D03*
X149616000Y-114750000D03*
X134376000Y-114750000D03*
X134376000Y-112210000D03*
X134376000Y-109670000D03*
X134376000Y-107130000D03*
X134376000Y-104590000D03*
X134376000Y-102050000D03*
X134376000Y-99510000D03*
X134376000Y-96970000D03*
X134376000Y-94430000D03*
X134376000Y-91890000D03*
X134376000Y-89350000D03*
X134376000Y-86810000D03*
X134376000Y-84270000D03*
X134376000Y-81730000D03*
D14*
X134376000Y-79190000D03*
%TD*%
D10*
%TO.C,U3*%
X120025000Y-95525000D03*
D11*
X118755000Y-95525000D03*
X117485000Y-95525000D03*
X116215000Y-95525000D03*
X114945000Y-95525000D03*
%TD*%
D10*
%TO.C,J4*%
X119500000Y-103000000D03*
%TD*%
D15*
%TO.C,R1*%
X123000000Y-76750000D03*
D16*
X121100000Y-76750000D03*
%TD*%
D17*
%TO.C,BT1*%
X213750000Y-98500000D03*
X190250000Y-98500000D03*
D18*
X213750000Y-74780000D03*
D19*
X201050000Y-74780000D03*
%TD*%
D10*
%TO.C,J1*%
X119750000Y-117000000D03*
%TD*%
M02*
