%TF.GenerationSoftware,KiCad,Pcbnew,8.0.7*%
%TF.CreationDate,2024-12-21T06:43:57+05:30*%
%TF.ProjectId,hello,68656c6c-6f2e-46b6-9963-61645f706362,rev?*%
%TF.SameCoordinates,Original*%
%TF.FileFunction,Legend,Top*%
%TF.FilePolarity,Positive*%
%FSLAX46Y46*%
G04 Gerber Fmt 4.6, Leading zero omitted, Abs format (unit mm)*
G04 Created by KiCad (PCBNEW 8.0.7) date 2024-12-21 06:43:57*
%MOMM*%
%LPD*%
G01*
G04 APERTURE LIST*
%ADD10C,0.150000*%
%ADD11C,0.100000*%
%ADD12C,0.120000*%
%ADD13C,0.127000*%
%ADD14C,0.812000*%
%ADD15C,0.853219*%
G04 APERTURE END LIST*
D10*
X122298095Y-84954819D02*
X122298095Y-85764342D01*
X122298095Y-85764342D02*
X122345714Y-85859580D01*
X122345714Y-85859580D02*
X122393333Y-85907200D01*
X122393333Y-85907200D02*
X122488571Y-85954819D01*
X122488571Y-85954819D02*
X122679047Y-85954819D01*
X122679047Y-85954819D02*
X122774285Y-85907200D01*
X122774285Y-85907200D02*
X122821904Y-85859580D01*
X122821904Y-85859580D02*
X122869523Y-85764342D01*
X122869523Y-85764342D02*
X122869523Y-84954819D01*
X123298095Y-85050057D02*
X123345714Y-85002438D01*
X123345714Y-85002438D02*
X123440952Y-84954819D01*
X123440952Y-84954819D02*
X123679047Y-84954819D01*
X123679047Y-84954819D02*
X123774285Y-85002438D01*
X123774285Y-85002438D02*
X123821904Y-85050057D01*
X123821904Y-85050057D02*
X123869523Y-85145295D01*
X123869523Y-85145295D02*
X123869523Y-85240533D01*
X123869523Y-85240533D02*
X123821904Y-85383390D01*
X123821904Y-85383390D02*
X123250476Y-85954819D01*
X123250476Y-85954819D02*
X123869523Y-85954819D01*
X118333333Y-76934819D02*
X118000000Y-76458628D01*
X117761905Y-76934819D02*
X117761905Y-75934819D01*
X117761905Y-75934819D02*
X118142857Y-75934819D01*
X118142857Y-75934819D02*
X118238095Y-75982438D01*
X118238095Y-75982438D02*
X118285714Y-76030057D01*
X118285714Y-76030057D02*
X118333333Y-76125295D01*
X118333333Y-76125295D02*
X118333333Y-76268152D01*
X118333333Y-76268152D02*
X118285714Y-76363390D01*
X118285714Y-76363390D02*
X118238095Y-76411009D01*
X118238095Y-76411009D02*
X118142857Y-76458628D01*
X118142857Y-76458628D02*
X117761905Y-76458628D01*
X118714286Y-76030057D02*
X118761905Y-75982438D01*
X118761905Y-75982438D02*
X118857143Y-75934819D01*
X118857143Y-75934819D02*
X119095238Y-75934819D01*
X119095238Y-75934819D02*
X119190476Y-75982438D01*
X119190476Y-75982438D02*
X119238095Y-76030057D01*
X119238095Y-76030057D02*
X119285714Y-76125295D01*
X119285714Y-76125295D02*
X119285714Y-76220533D01*
X119285714Y-76220533D02*
X119238095Y-76363390D01*
X119238095Y-76363390D02*
X118666667Y-76934819D01*
X118666667Y-76934819D02*
X119285714Y-76934819D01*
X109666666Y-111839819D02*
X109666666Y-112554104D01*
X109666666Y-112554104D02*
X109619047Y-112696961D01*
X109619047Y-112696961D02*
X109523809Y-112792200D01*
X109523809Y-112792200D02*
X109380952Y-112839819D01*
X109380952Y-112839819D02*
X109285714Y-112839819D01*
X110047619Y-111839819D02*
X110666666Y-111839819D01*
X110666666Y-111839819D02*
X110333333Y-112220771D01*
X110333333Y-112220771D02*
X110476190Y-112220771D01*
X110476190Y-112220771D02*
X110571428Y-112268390D01*
X110571428Y-112268390D02*
X110619047Y-112316009D01*
X110619047Y-112316009D02*
X110666666Y-112411247D01*
X110666666Y-112411247D02*
X110666666Y-112649342D01*
X110666666Y-112649342D02*
X110619047Y-112744580D01*
X110619047Y-112744580D02*
X110571428Y-112792200D01*
X110571428Y-112792200D02*
X110476190Y-112839819D01*
X110476190Y-112839819D02*
X110190476Y-112839819D01*
X110190476Y-112839819D02*
X110095238Y-112792200D01*
X110095238Y-112792200D02*
X110047619Y-112744580D01*
X109416666Y-104589819D02*
X109416666Y-105304104D01*
X109416666Y-105304104D02*
X109369047Y-105446961D01*
X109369047Y-105446961D02*
X109273809Y-105542200D01*
X109273809Y-105542200D02*
X109130952Y-105589819D01*
X109130952Y-105589819D02*
X109035714Y-105589819D01*
X110369047Y-104589819D02*
X109892857Y-104589819D01*
X109892857Y-104589819D02*
X109845238Y-105066009D01*
X109845238Y-105066009D02*
X109892857Y-105018390D01*
X109892857Y-105018390D02*
X109988095Y-104970771D01*
X109988095Y-104970771D02*
X110226190Y-104970771D01*
X110226190Y-104970771D02*
X110321428Y-105018390D01*
X110321428Y-105018390D02*
X110369047Y-105066009D01*
X110369047Y-105066009D02*
X110416666Y-105161247D01*
X110416666Y-105161247D02*
X110416666Y-105399342D01*
X110416666Y-105399342D02*
X110369047Y-105494580D01*
X110369047Y-105494580D02*
X110321428Y-105542200D01*
X110321428Y-105542200D02*
X110226190Y-105589819D01*
X110226190Y-105589819D02*
X109988095Y-105589819D01*
X109988095Y-105589819D02*
X109892857Y-105542200D01*
X109892857Y-105542200D02*
X109845238Y-105494580D01*
X119416666Y-111839819D02*
X119416666Y-112554104D01*
X119416666Y-112554104D02*
X119369047Y-112696961D01*
X119369047Y-112696961D02*
X119273809Y-112792200D01*
X119273809Y-112792200D02*
X119130952Y-112839819D01*
X119130952Y-112839819D02*
X119035714Y-112839819D01*
X119845238Y-111935057D02*
X119892857Y-111887438D01*
X119892857Y-111887438D02*
X119988095Y-111839819D01*
X119988095Y-111839819D02*
X120226190Y-111839819D01*
X120226190Y-111839819D02*
X120321428Y-111887438D01*
X120321428Y-111887438D02*
X120369047Y-111935057D01*
X120369047Y-111935057D02*
X120416666Y-112030295D01*
X120416666Y-112030295D02*
X120416666Y-112125533D01*
X120416666Y-112125533D02*
X120369047Y-112268390D01*
X120369047Y-112268390D02*
X119797619Y-112839819D01*
X119797619Y-112839819D02*
X120416666Y-112839819D01*
X163999667Y-90183950D02*
X164142524Y-90231569D01*
X164142524Y-90231569D02*
X164380619Y-90231569D01*
X164380619Y-90231569D02*
X164475857Y-90183950D01*
X164475857Y-90183950D02*
X164523476Y-90136330D01*
X164523476Y-90136330D02*
X164571095Y-90041092D01*
X164571095Y-90041092D02*
X164571095Y-89945854D01*
X164571095Y-89945854D02*
X164523476Y-89850616D01*
X164523476Y-89850616D02*
X164475857Y-89802997D01*
X164475857Y-89802997D02*
X164380619Y-89755378D01*
X164380619Y-89755378D02*
X164190143Y-89707759D01*
X164190143Y-89707759D02*
X164094905Y-89660140D01*
X164094905Y-89660140D02*
X164047286Y-89612521D01*
X164047286Y-89612521D02*
X163999667Y-89517283D01*
X163999667Y-89517283D02*
X163999667Y-89422045D01*
X163999667Y-89422045D02*
X164047286Y-89326807D01*
X164047286Y-89326807D02*
X164094905Y-89279188D01*
X164094905Y-89279188D02*
X164190143Y-89231569D01*
X164190143Y-89231569D02*
X164428238Y-89231569D01*
X164428238Y-89231569D02*
X164571095Y-89279188D01*
X164904429Y-89231569D02*
X165142524Y-90231569D01*
X165142524Y-90231569D02*
X165333000Y-89517283D01*
X165333000Y-89517283D02*
X165523476Y-90231569D01*
X165523476Y-90231569D02*
X165761572Y-89231569D01*
X166666333Y-90231569D02*
X166094905Y-90231569D01*
X166380619Y-90231569D02*
X166380619Y-89231569D01*
X166380619Y-89231569D02*
X166285381Y-89374426D01*
X166285381Y-89374426D02*
X166190143Y-89469664D01*
X166190143Y-89469664D02*
X166094905Y-89517283D01*
D11*
X153317595Y-94706919D02*
X153317595Y-95516442D01*
X153317595Y-95516442D02*
X153365214Y-95611680D01*
X153365214Y-95611680D02*
X153412833Y-95659300D01*
X153412833Y-95659300D02*
X153508071Y-95706919D01*
X153508071Y-95706919D02*
X153698547Y-95706919D01*
X153698547Y-95706919D02*
X153793785Y-95659300D01*
X153793785Y-95659300D02*
X153841404Y-95611680D01*
X153841404Y-95611680D02*
X153889023Y-95516442D01*
X153889023Y-95516442D02*
X153889023Y-94706919D01*
X154889023Y-95706919D02*
X154317595Y-95706919D01*
X154603309Y-95706919D02*
X154603309Y-94706919D01*
X154603309Y-94706919D02*
X154508071Y-94849776D01*
X154508071Y-94849776D02*
X154412833Y-94945014D01*
X154412833Y-94945014D02*
X154317595Y-94992633D01*
D10*
X121953095Y-94979819D02*
X121953095Y-95789342D01*
X121953095Y-95789342D02*
X122000714Y-95884580D01*
X122000714Y-95884580D02*
X122048333Y-95932200D01*
X122048333Y-95932200D02*
X122143571Y-95979819D01*
X122143571Y-95979819D02*
X122334047Y-95979819D01*
X122334047Y-95979819D02*
X122429285Y-95932200D01*
X122429285Y-95932200D02*
X122476904Y-95884580D01*
X122476904Y-95884580D02*
X122524523Y-95789342D01*
X122524523Y-95789342D02*
X122524523Y-94979819D01*
X122905476Y-94979819D02*
X123524523Y-94979819D01*
X123524523Y-94979819D02*
X123191190Y-95360771D01*
X123191190Y-95360771D02*
X123334047Y-95360771D01*
X123334047Y-95360771D02*
X123429285Y-95408390D01*
X123429285Y-95408390D02*
X123476904Y-95456009D01*
X123476904Y-95456009D02*
X123524523Y-95551247D01*
X123524523Y-95551247D02*
X123524523Y-95789342D01*
X123524523Y-95789342D02*
X123476904Y-95884580D01*
X123476904Y-95884580D02*
X123429285Y-95932200D01*
X123429285Y-95932200D02*
X123334047Y-95979819D01*
X123334047Y-95979819D02*
X123048333Y-95979819D01*
X123048333Y-95979819D02*
X122953095Y-95932200D01*
X122953095Y-95932200D02*
X122905476Y-95884580D01*
X119166666Y-104589819D02*
X119166666Y-105304104D01*
X119166666Y-105304104D02*
X119119047Y-105446961D01*
X119119047Y-105446961D02*
X119023809Y-105542200D01*
X119023809Y-105542200D02*
X118880952Y-105589819D01*
X118880952Y-105589819D02*
X118785714Y-105589819D01*
X120071428Y-104923152D02*
X120071428Y-105589819D01*
X119833333Y-104542200D02*
X119595238Y-105256485D01*
X119595238Y-105256485D02*
X120214285Y-105256485D01*
X121883333Y-79124819D02*
X121550000Y-78648628D01*
X121311905Y-79124819D02*
X121311905Y-78124819D01*
X121311905Y-78124819D02*
X121692857Y-78124819D01*
X121692857Y-78124819D02*
X121788095Y-78172438D01*
X121788095Y-78172438D02*
X121835714Y-78220057D01*
X121835714Y-78220057D02*
X121883333Y-78315295D01*
X121883333Y-78315295D02*
X121883333Y-78458152D01*
X121883333Y-78458152D02*
X121835714Y-78553390D01*
X121835714Y-78553390D02*
X121788095Y-78601009D01*
X121788095Y-78601009D02*
X121692857Y-78648628D01*
X121692857Y-78648628D02*
X121311905Y-78648628D01*
X122835714Y-79124819D02*
X122264286Y-79124819D01*
X122550000Y-79124819D02*
X122550000Y-78124819D01*
X122550000Y-78124819D02*
X122454762Y-78267676D01*
X122454762Y-78267676D02*
X122359524Y-78362914D01*
X122359524Y-78362914D02*
X122264286Y-78410533D01*
X221876009Y-75475714D02*
X221923628Y-75332857D01*
X221923628Y-75332857D02*
X221971247Y-75285238D01*
X221971247Y-75285238D02*
X222066485Y-75237619D01*
X222066485Y-75237619D02*
X222209342Y-75237619D01*
X222209342Y-75237619D02*
X222304580Y-75285238D01*
X222304580Y-75285238D02*
X222352200Y-75332857D01*
X222352200Y-75332857D02*
X222399819Y-75428095D01*
X222399819Y-75428095D02*
X222399819Y-75809047D01*
X222399819Y-75809047D02*
X221399819Y-75809047D01*
X221399819Y-75809047D02*
X221399819Y-75475714D01*
X221399819Y-75475714D02*
X221447438Y-75380476D01*
X221447438Y-75380476D02*
X221495057Y-75332857D01*
X221495057Y-75332857D02*
X221590295Y-75285238D01*
X221590295Y-75285238D02*
X221685533Y-75285238D01*
X221685533Y-75285238D02*
X221780771Y-75332857D01*
X221780771Y-75332857D02*
X221828390Y-75380476D01*
X221828390Y-75380476D02*
X221876009Y-75475714D01*
X221876009Y-75475714D02*
X221876009Y-75809047D01*
X221399819Y-74951904D02*
X221399819Y-74380476D01*
X222399819Y-74666190D02*
X221399819Y-74666190D01*
X222399819Y-73523333D02*
X222399819Y-74094761D01*
X222399819Y-73809047D02*
X221399819Y-73809047D01*
X221399819Y-73809047D02*
X221542676Y-73904285D01*
X221542676Y-73904285D02*
X221637914Y-73999523D01*
X221637914Y-73999523D02*
X221685533Y-74094761D01*
X119416666Y-118589819D02*
X119416666Y-119304104D01*
X119416666Y-119304104D02*
X119369047Y-119446961D01*
X119369047Y-119446961D02*
X119273809Y-119542200D01*
X119273809Y-119542200D02*
X119130952Y-119589819D01*
X119130952Y-119589819D02*
X119035714Y-119589819D01*
X120416666Y-119589819D02*
X119845238Y-119589819D01*
X120130952Y-119589819D02*
X120130952Y-118589819D01*
X120130952Y-118589819D02*
X120035714Y-118732676D01*
X120035714Y-118732676D02*
X119940476Y-118827914D01*
X119940476Y-118827914D02*
X119845238Y-118875533D01*
D12*
%TO.C,U2*%
X119425000Y-84170000D02*
X115555000Y-84170000D01*
X119425000Y-84170000D02*
X119425000Y-84740000D01*
X115555000Y-84170000D02*
X115555000Y-85192470D01*
X120820000Y-85500000D02*
X120820000Y-86830000D01*
X115555000Y-85807530D02*
X115555000Y-86830000D01*
X119425000Y-86260000D02*
X119425000Y-86830000D01*
X120820000Y-86830000D02*
X120060000Y-86830000D01*
X119425000Y-86830000D02*
X115555000Y-86830000D01*
%TO.C,R2*%
X115115000Y-75420000D02*
X113785000Y-75420000D01*
X115115000Y-75420000D02*
X115115000Y-75990000D01*
X113785000Y-75420000D02*
X113785000Y-76442470D01*
X116510000Y-76750000D02*
X116510000Y-78080000D01*
X113785000Y-77057530D02*
X113785000Y-78080000D01*
X115115000Y-77510000D02*
X115115000Y-78080000D01*
X116510000Y-78080000D02*
X115750000Y-78080000D01*
X115115000Y-78080000D02*
X113785000Y-78080000D01*
%TO.C,J3*%
X108670000Y-109675000D02*
X108670000Y-109555000D01*
X108670000Y-111010000D02*
X108670000Y-110250000D01*
X109240000Y-109555000D02*
X108670000Y-109555000D01*
X110000000Y-111010000D02*
X108670000Y-111010000D01*
X111330000Y-109555000D02*
X110760000Y-109555000D01*
X111330000Y-109675000D02*
X111330000Y-109555000D01*
%TO.C,J5*%
X111080000Y-102425000D02*
X111080000Y-102305000D01*
X111080000Y-102305000D02*
X110510000Y-102305000D01*
X109750000Y-103760000D02*
X108420000Y-103760000D01*
X108990000Y-102305000D02*
X108420000Y-102305000D01*
X108420000Y-103760000D02*
X108420000Y-103000000D01*
X108420000Y-102425000D02*
X108420000Y-102305000D01*
%TO.C,J2*%
X118420000Y-109675000D02*
X118420000Y-109555000D01*
X118420000Y-111010000D02*
X118420000Y-110250000D01*
X118990000Y-109555000D02*
X118420000Y-109555000D01*
X119750000Y-111010000D02*
X118420000Y-111010000D01*
X121080000Y-109555000D02*
X120510000Y-109555000D01*
X121080000Y-109675000D02*
X121080000Y-109555000D01*
D13*
%TO.C,SW1*%
X161904000Y-90919750D02*
X174096000Y-90919750D01*
X161904000Y-103111750D02*
X161904000Y-90919750D01*
X174096000Y-90919750D02*
X174096000Y-103111750D01*
X174096000Y-103111750D02*
X161904000Y-103111750D01*
X170794000Y-97015750D02*
G75*
G02*
X165206000Y-97015750I-2794000J0D01*
G01*
X165206000Y-97015750D02*
G75*
G02*
X170794000Y-97015750I2794000J0D01*
G01*
%TO.C,U1*%
D14*
X134782000Y-117544000D02*
G75*
G02*
X133970000Y-117544000I-406000J0D01*
G01*
X133970000Y-117544000D02*
G75*
G02*
X134782000Y-117544000I406000J0D01*
G01*
D15*
X150042609Y-117544000D02*
G75*
G02*
X149189391Y-117544000I-426609J0D01*
G01*
X149189391Y-117544000D02*
G75*
G02*
X150042609Y-117544000I426609J0D01*
G01*
D14*
X134782000Y-76650000D02*
G75*
G02*
X133970000Y-76650000I-406000J0D01*
G01*
X133970000Y-76650000D02*
G75*
G02*
X134782000Y-76650000I406000J0D01*
G01*
D15*
X150042609Y-76650000D02*
G75*
G02*
X149189391Y-76650000I-426609J0D01*
G01*
X149189391Y-76650000D02*
G75*
G02*
X150042609Y-76650000I426609J0D01*
G01*
D12*
X150866000Y-75400000D02*
X133106000Y-75400000D01*
X133106000Y-118814000D01*
X150866000Y-118814000D01*
X150866000Y-75400000D01*
D11*
X134122000Y-117544000D02*
X134376000Y-117544000D01*
D12*
%TO.C,U3*%
X119390000Y-94195000D02*
X114250000Y-94195000D01*
X119390000Y-94195000D02*
X119390000Y-94765000D01*
X114250000Y-94195000D02*
X114250000Y-95217470D01*
X120785000Y-95525000D02*
X120785000Y-96855000D01*
X114250000Y-95832530D02*
X114250000Y-96855000D01*
X119390000Y-96285000D02*
X119390000Y-96855000D01*
X120785000Y-96855000D02*
X120025000Y-96855000D01*
X119390000Y-96855000D02*
X114250000Y-96855000D01*
%TO.C,J4*%
X118170000Y-102425000D02*
X118170000Y-102305000D01*
X118170000Y-103760000D02*
X118170000Y-103000000D01*
X118740000Y-102305000D02*
X118170000Y-102305000D01*
X119500000Y-103760000D02*
X118170000Y-103760000D01*
X120830000Y-102305000D02*
X120260000Y-102305000D01*
X120830000Y-102425000D02*
X120830000Y-102305000D01*
%TO.C,R1*%
X122679905Y-76000641D02*
G75*
G02*
X122582867Y-77450000I320095J-749359D01*
G01*
%TO.C,BT1*%
X221250000Y-71690000D02*
X221250000Y-74690000D01*
X218250000Y-71690000D02*
X221250000Y-71690000D01*
X220870000Y-72070000D02*
X183130000Y-72070000D01*
X220870000Y-72070000D02*
X220870000Y-124940000D01*
X183130000Y-72070000D02*
X183130000Y-124940000D01*
X220870000Y-124940000D02*
X183130000Y-124940000D01*
%TO.C,J1*%
X118420000Y-116425000D02*
X118420000Y-116305000D01*
X118420000Y-117760000D02*
X118420000Y-117000000D01*
X118990000Y-116305000D02*
X118420000Y-116305000D01*
X119750000Y-117760000D02*
X118420000Y-117760000D01*
X121080000Y-116305000D02*
X120510000Y-116305000D01*
X121080000Y-116425000D02*
X121080000Y-116305000D01*
%TD*%
M02*
