%TF.GenerationSoftware,KiCad,Pcbnew,8.0.7*%
%TF.CreationDate,2024-12-21T06:43:57+05:30*%
%TF.ProjectId,hello,68656c6c-6f2e-46b6-9963-61645f706362,rev?*%
%TF.SameCoordinates,Original*%
%TF.FileFunction,Copper,L1,Top*%
%TF.FilePolarity,Positive*%
%FSLAX46Y46*%
G04 Gerber Fmt 4.6, Leading zero omitted, Abs format (unit mm)*
G04 Created by KiCad (PCBNEW 8.0.7) date 2024-12-21 06:43:57*
%MOMM*%
%LPD*%
G01*
G04 APERTURE LIST*
%TA.AperFunction,NonConductor*%
%ADD10C,0.150000*%
%TD*%
%TA.AperFunction,ComponentPad*%
%ADD11R,1.000000X1.000000*%
%TD*%
%TA.AperFunction,ComponentPad*%
%ADD12O,1.000000X1.000000*%
%TD*%
%TA.AperFunction,ComponentPad*%
%ADD13C,3.000000*%
%TD*%
%TA.AperFunction,ComponentPad*%
%ADD14C,1.524000*%
%TD*%
%TA.AperFunction,ComponentPad*%
%ADD15R,1.524000X1.524000*%
%TD*%
%TA.AperFunction,ComponentPad*%
%ADD16C,1.400000*%
%TD*%
%TA.AperFunction,ComponentPad*%
%ADD17O,1.400000X1.400000*%
%TD*%
%TA.AperFunction,ComponentPad*%
%ADD18R,3.000000X3.000000*%
%TD*%
%TA.AperFunction,Conductor*%
%ADD19C,0.500000*%
%TD*%
G04 APERTURE END LIST*
D10*
X104055500Y-65557500D02*
X229055500Y-65557500D01*
X229055500Y-131057500D01*
X104055500Y-131057500D01*
X104055500Y-65557500D01*
D11*
%TO.P,U2,1,GND*%
%TO.N,GND*%
X120060000Y-85500000D03*
D12*
%TO.P,U2,2,VCC*%
%TO.N,+5V*%
X118790000Y-85500000D03*
%TO.P,U2,3,SCL*%
%TO.N,SCL*%
X117520000Y-85500000D03*
%TO.P,U2,4,SDA*%
%TO.N,SDA*%
X116250000Y-85500000D03*
%TD*%
D11*
%TO.P,R2,1*%
%TO.N,ohmmeter*%
X115750000Y-76750000D03*
D12*
%TO.P,R2,2*%
%TO.N,GND*%
X114480000Y-76750000D03*
%TD*%
D11*
%TO.P,J3,1,Pin_1*%
%TO.N,common*%
X110000000Y-110250000D03*
%TD*%
%TO.P,J5,1,Pin_1*%
%TO.N,GND*%
X109750000Y-103000000D03*
%TD*%
%TO.P,J2,1,Pin_1*%
%TO.N,volt*%
X119750000Y-110250000D03*
%TD*%
D13*
%TO.P,SW1,P,B*%
%TO.N,/switch*%
X171556000Y-105143750D03*
%TO.P,SW1,T,A*%
%TO.N,GND*%
X164444000Y-105143750D03*
%TD*%
D14*
%TO.P,U1,30,VIN*%
%TO.N,+5V*%
X149616000Y-79190000D03*
%TO.P,U1,29,GND*%
%TO.N,unconnected-(U1-GND-Pad29)*%
X149616000Y-81730000D03*
%TO.P,U1,28,RST*%
%TO.N,unconnected-(U1-RST-Pad28)*%
X149616000Y-84270000D03*
%TO.P,U1,27,5V*%
%TO.N,unconnected-(U1-5V-Pad27)*%
X149616000Y-86810000D03*
%TO.P,U1,26,A7*%
%TO.N,unconnected-(U1-A7-Pad26)*%
X149616000Y-89350000D03*
%TO.P,U1,25,A6*%
%TO.N,unconnected-(U1-A6-Pad25)*%
X149616000Y-91890000D03*
%TO.P,U1,24,A5/SCL*%
%TO.N,SCL*%
X149616000Y-94430000D03*
%TO.P,U1,23,A4/SDA*%
%TO.N,SDA*%
X149616000Y-96970000D03*
%TO.P,U1,22,A3*%
%TO.N,unconnected-(U1-A3-Pad22)*%
X149616000Y-99510000D03*
%TO.P,U1,21,A2*%
%TO.N,common*%
X149616000Y-102050000D03*
%TO.P,U1,20,A1*%
%TO.N,ohmmeter*%
X149616000Y-104590000D03*
%TO.P,U1,19,A0*%
%TO.N,volt*%
X149616000Y-107130000D03*
%TO.P,U1,18,REF*%
%TO.N,unconnected-(U1-REF-Pad18)*%
X149616000Y-109670000D03*
%TO.P,U1,17,3V3*%
%TO.N,unconnected-(U1-3V3-Pad17)*%
X149616000Y-112210000D03*
%TO.P,U1,16,D13*%
%TO.N,unconnected-(U1-D13-Pad16)*%
X149616000Y-114750000D03*
%TO.P,U1,15,D12*%
%TO.N,unconnected-(U1-D12-Pad15)*%
X134376000Y-114750000D03*
%TO.P,U1,14,D11*%
%TO.N,unconnected-(U1-D11-Pad14)*%
X134376000Y-112210000D03*
%TO.P,U1,13,D10*%
%TO.N,unconnected-(U1-D10-Pad13)*%
X134376000Y-109670000D03*
%TO.P,U1,12,D9*%
%TO.N,unconnected-(U1-D9-Pad12)*%
X134376000Y-107130000D03*
%TO.P,U1,11,D8*%
%TO.N,unconnected-(U1-D8-Pad11)*%
X134376000Y-104590000D03*
%TO.P,U1,10,D7*%
%TO.N,unconnected-(U1-D7-Pad10)*%
X134376000Y-102050000D03*
%TO.P,U1,9,D6*%
%TO.N,unconnected-(U1-D6-Pad9)*%
X134376000Y-99510000D03*
%TO.P,U1,8,D5*%
%TO.N,DT*%
X134376000Y-96970000D03*
%TO.P,U1,7,D4*%
%TO.N,CLK*%
X134376000Y-94430000D03*
%TO.P,U1,6,D3*%
%TO.N,cont*%
X134376000Y-91890000D03*
%TO.P,U1,5,D2*%
%TO.N,pwm*%
X134376000Y-89350000D03*
%TO.P,U1,4,GND*%
%TO.N,unconnected-(U1-GND-Pad4)*%
X134376000Y-86810000D03*
%TO.P,U1,3,RST*%
%TO.N,unconnected-(U1-RST-Pad3)*%
X134376000Y-84270000D03*
%TO.P,U1,2,D0/RX*%
%TO.N,unconnected-(U1-D0{slash}RX-Pad2)*%
X134376000Y-81730000D03*
D15*
%TO.P,U1,1,D1/TX*%
%TO.N,unconnected-(U1-D1{slash}TX-Pad1)*%
X134376000Y-79190000D03*
%TD*%
D11*
%TO.P,U3,1,GND*%
%TO.N,GND*%
X120025000Y-95525000D03*
D12*
%TO.P,U3,2,VCC*%
%TO.N,+5V*%
X118755000Y-95525000D03*
%TO.P,U3,3,SW*%
%TO.N,unconnected-(U3-SW-Pad3)*%
X117485000Y-95525000D03*
%TO.P,U3,4,DT*%
%TO.N,DT*%
X116215000Y-95525000D03*
%TO.P,U3,5,CLK*%
%TO.N,CLK*%
X114945000Y-95525000D03*
%TD*%
D11*
%TO.P,J4,1,Pin_1*%
%TO.N,cont*%
X119500000Y-103000000D03*
%TD*%
D16*
%TO.P,R1,1*%
%TO.N,+5V*%
X123000000Y-76750000D03*
D17*
%TO.P,R1,2*%
%TO.N,ohmmeter*%
X121100000Y-76750000D03*
%TD*%
D18*
%TO.P,BT1,1,+*%
%TO.N,+5V*%
X213750000Y-74780000D03*
D13*
%TO.P,BT1,2,-*%
%TO.N,/switch*%
X201050000Y-74780000D03*
%TD*%
D11*
%TO.P,J1,1,Pin_1*%
%TO.N,pwm*%
X119750000Y-117000000D03*
%TD*%
D19*
%TO.N,GND*%
X158989950Y-122000000D02*
X164444000Y-116545950D01*
X134500000Y-122000000D02*
X158989950Y-122000000D01*
X131250000Y-118750000D02*
X134500000Y-122000000D01*
X164444000Y-116545950D02*
X164444000Y-105143750D01*
X120025000Y-90000000D02*
X131250000Y-101225000D01*
X131250000Y-101225000D02*
X131250000Y-118750000D01*
%TO.N,+5V*%
X123000000Y-71250000D02*
X122500000Y-70750000D01*
X123000000Y-76750000D02*
X123000000Y-71250000D01*
X122500000Y-70750000D02*
X149500000Y-70750000D01*
X115750000Y-70750000D02*
X122500000Y-70750000D01*
%TO.N,GND*%
X120060000Y-85426497D02*
X120060000Y-85500000D01*
X114480000Y-76750000D02*
X114480000Y-79846497D01*
X114480000Y-79846497D02*
X120060000Y-85426497D01*
%TO.N,+5V*%
X111000000Y-70750000D02*
X115750000Y-70750000D01*
%TO.N,GND*%
X120025000Y-90000000D02*
X120025000Y-85535000D01*
X120025000Y-95525000D02*
X120025000Y-90000000D01*
%TO.N,+5V*%
X149500000Y-70750000D02*
X153778000Y-75028000D01*
X153778000Y-75028000D02*
X149616000Y-79190000D01*
X114500000Y-89750000D02*
X111000000Y-86250000D01*
X118790000Y-89750000D02*
X118790000Y-95490000D01*
X111000000Y-86250000D02*
X111000000Y-70750000D01*
X118790000Y-89750000D02*
X114500000Y-89750000D01*
X118790000Y-85500000D02*
X118790000Y-89750000D01*
X161756000Y-67050000D02*
X153778000Y-75028000D01*
%TO.N,GND*%
X120025000Y-96525000D02*
X120025000Y-95525000D01*
X113550000Y-103000000D02*
X120025000Y-96525000D01*
X109750000Y-103000000D02*
X113550000Y-103000000D01*
X120025000Y-85535000D02*
X120060000Y-85500000D01*
%TO.N,+5V*%
X118790000Y-95490000D02*
X118755000Y-95525000D01*
%TO.N,/switch*%
X174606250Y-105143750D02*
X171556000Y-105143750D01*
X177500000Y-102250000D02*
X174606250Y-105143750D01*
X177500000Y-69000000D02*
X177500000Y-102250000D01*
X199500000Y-69000000D02*
X177500000Y-69000000D01*
X201050000Y-74780000D02*
X201050000Y-70550000D01*
X201050000Y-70550000D02*
X199500000Y-69000000D01*
%TO.N,+5V*%
X213750000Y-74780000D02*
X206020000Y-67050000D01*
X206020000Y-67050000D02*
X161756000Y-67050000D01*
%TD*%
%TA.AperFunction,Conductor*%
%TO.N,GND*%
G36*
X161452333Y-66152685D02*
G01*
X161498088Y-66205489D01*
X161508032Y-66274647D01*
X161479007Y-66338203D01*
X161432747Y-66371561D01*
X161400509Y-66384914D01*
X161400496Y-66384921D01*
X161351269Y-66417813D01*
X161277588Y-66467044D01*
X161277580Y-66467050D01*
X153865680Y-73878950D01*
X153804357Y-73912435D01*
X153734665Y-73907451D01*
X153690318Y-73878950D01*
X149978421Y-70167052D01*
X149978414Y-70167046D01*
X149904729Y-70117812D01*
X149904729Y-70117813D01*
X149855491Y-70084913D01*
X149718917Y-70028343D01*
X149718907Y-70028340D01*
X149573920Y-69999500D01*
X149573918Y-69999500D01*
X122573918Y-69999500D01*
X115823918Y-69999500D01*
X111073918Y-69999500D01*
X110926082Y-69999500D01*
X110926080Y-69999500D01*
X110781092Y-70028340D01*
X110781082Y-70028343D01*
X110644511Y-70084912D01*
X110644498Y-70084919D01*
X110521584Y-70167048D01*
X110521580Y-70167051D01*
X110417051Y-70271580D01*
X110417048Y-70271584D01*
X110334919Y-70394498D01*
X110334912Y-70394511D01*
X110278343Y-70531082D01*
X110278340Y-70531092D01*
X110249500Y-70676079D01*
X110249500Y-70676082D01*
X110249500Y-86323918D01*
X110249500Y-86323920D01*
X110249499Y-86323920D01*
X110278340Y-86468907D01*
X110278343Y-86468917D01*
X110334914Y-86605492D01*
X110367812Y-86654727D01*
X110367813Y-86654730D01*
X110417046Y-86728414D01*
X110417052Y-86728421D01*
X113258695Y-89570062D01*
X113917048Y-90228415D01*
X113917049Y-90228416D01*
X114009457Y-90320824D01*
X114021585Y-90332952D01*
X114144498Y-90415080D01*
X114144511Y-90415087D01*
X114281082Y-90471656D01*
X114281087Y-90471658D01*
X114281091Y-90471658D01*
X114281092Y-90471659D01*
X114426079Y-90500500D01*
X114426082Y-90500500D01*
X117915500Y-90500500D01*
X117982539Y-90520185D01*
X118028294Y-90572989D01*
X118039500Y-90624500D01*
X118039500Y-94480929D01*
X118019815Y-94547968D01*
X117967011Y-94593723D01*
X117897853Y-94603667D01*
X117875669Y-94597581D01*
X117875556Y-94597955D01*
X117869730Y-94596187D01*
X117869727Y-94596186D01*
X117681132Y-94538976D01*
X117681129Y-94538975D01*
X117485000Y-94519659D01*
X117288870Y-94538975D01*
X117100266Y-94596188D01*
X116926467Y-94689086D01*
X116921399Y-94692473D01*
X116920305Y-94690836D01*
X116864337Y-94714596D01*
X116795471Y-94702795D01*
X116778843Y-94692109D01*
X116778601Y-94692473D01*
X116773532Y-94689086D01*
X116599733Y-94596188D01*
X116599727Y-94596186D01*
X116473997Y-94558046D01*
X116411129Y-94538975D01*
X116215000Y-94519659D01*
X116018870Y-94538975D01*
X115830266Y-94596188D01*
X115656467Y-94689086D01*
X115651399Y-94692473D01*
X115650305Y-94690836D01*
X115594337Y-94714596D01*
X115525471Y-94702795D01*
X115508843Y-94692109D01*
X115508601Y-94692473D01*
X115503532Y-94689086D01*
X115329733Y-94596188D01*
X115329727Y-94596186D01*
X115203997Y-94558046D01*
X115141129Y-94538975D01*
X114945000Y-94519659D01*
X114748870Y-94538975D01*
X114560266Y-94596188D01*
X114386467Y-94689086D01*
X114386460Y-94689090D01*
X114234116Y-94814116D01*
X114109090Y-94966460D01*
X114109086Y-94966467D01*
X114016188Y-95140266D01*
X113958975Y-95328870D01*
X113939659Y-95525000D01*
X113958975Y-95721129D01*
X114016188Y-95909733D01*
X114109086Y-96083532D01*
X114109090Y-96083539D01*
X114234116Y-96235883D01*
X114386460Y-96360909D01*
X114386467Y-96360913D01*
X114560266Y-96453811D01*
X114560269Y-96453811D01*
X114560273Y-96453814D01*
X114748868Y-96511024D01*
X114945000Y-96530341D01*
X115141132Y-96511024D01*
X115329727Y-96453814D01*
X115503538Y-96360910D01*
X115503544Y-96360904D01*
X115508607Y-96357523D01*
X115509703Y-96359164D01*
X115565639Y-96335405D01*
X115634507Y-96347194D01*
X115651148Y-96357888D01*
X115651393Y-96357523D01*
X115656458Y-96360907D01*
X115656462Y-96360910D01*
X115801013Y-96438174D01*
X115826439Y-96451765D01*
X115830273Y-96453814D01*
X116018868Y-96511024D01*
X116215000Y-96530341D01*
X116411132Y-96511024D01*
X116599727Y-96453814D01*
X116773538Y-96360910D01*
X116773544Y-96360904D01*
X116778607Y-96357523D01*
X116779703Y-96359164D01*
X116835639Y-96335405D01*
X116904507Y-96347194D01*
X116921148Y-96357888D01*
X116921393Y-96357523D01*
X116926458Y-96360907D01*
X116926462Y-96360910D01*
X117071013Y-96438174D01*
X117096439Y-96451765D01*
X117100273Y-96453814D01*
X117288868Y-96511024D01*
X117485000Y-96530341D01*
X117681132Y-96511024D01*
X117869727Y-96453814D01*
X118043538Y-96360910D01*
X118043544Y-96360904D01*
X118048607Y-96357523D01*
X118049703Y-96359164D01*
X118105639Y-96335405D01*
X118174507Y-96347194D01*
X118191148Y-96357888D01*
X118191393Y-96357523D01*
X118196458Y-96360907D01*
X118196462Y-96360910D01*
X118341013Y-96438174D01*
X118366439Y-96451765D01*
X118370273Y-96453814D01*
X118558868Y-96511024D01*
X118755000Y-96530341D01*
X118951132Y-96511024D01*
X119139727Y-96453814D01*
X119142338Y-96452418D01*
X119143864Y-96452100D01*
X119145355Y-96451483D01*
X119145472Y-96451765D01*
X119210737Y-96438174D01*
X119275106Y-96462510D01*
X119282908Y-96468351D01*
X119417623Y-96518597D01*
X119417627Y-96518598D01*
X119477155Y-96524999D01*
X119477172Y-96525000D01*
X119775000Y-96525000D01*
X120275000Y-96525000D01*
X120572828Y-96525000D01*
X120572844Y-96524999D01*
X120632372Y-96518598D01*
X120632379Y-96518596D01*
X120767086Y-96468354D01*
X120767093Y-96468350D01*
X120882187Y-96382190D01*
X120882190Y-96382187D01*
X120968350Y-96267093D01*
X120968354Y-96267086D01*
X121018596Y-96132379D01*
X121018598Y-96132372D01*
X121024999Y-96072844D01*
X121025000Y-96072827D01*
X121025000Y-95775000D01*
X120275000Y-95775000D01*
X120275000Y-96525000D01*
X119775000Y-96525000D01*
X119775000Y-95769975D01*
X119810095Y-95805070D01*
X119889905Y-95851148D01*
X119978922Y-95875000D01*
X120071078Y-95875000D01*
X120160095Y-95851148D01*
X120239905Y-95805070D01*
X120305070Y-95739905D01*
X120351148Y-95660095D01*
X120375000Y-95571078D01*
X120375000Y-95478922D01*
X120351148Y-95389905D01*
X120305070Y-95310095D01*
X120269975Y-95275000D01*
X120275000Y-95275000D01*
X121025000Y-95275000D01*
X121025000Y-94977172D01*
X121024999Y-94977155D01*
X121018598Y-94917627D01*
X121018596Y-94917620D01*
X120968354Y-94782913D01*
X120968350Y-94782906D01*
X120882190Y-94667812D01*
X120882187Y-94667809D01*
X120767093Y-94581649D01*
X120767086Y-94581645D01*
X120632379Y-94531403D01*
X120632372Y-94531401D01*
X120572844Y-94525000D01*
X120275000Y-94525000D01*
X120275000Y-95275000D01*
X120269975Y-95275000D01*
X120239905Y-95244930D01*
X120160095Y-95198852D01*
X120071078Y-95175000D01*
X119978922Y-95175000D01*
X119889905Y-95198852D01*
X119810095Y-95244930D01*
X119775000Y-95280025D01*
X119775000Y-94525000D01*
X119664500Y-94525000D01*
X119597461Y-94505315D01*
X119551706Y-94452511D01*
X119540500Y-94401000D01*
X119540500Y-86624000D01*
X119560185Y-86556961D01*
X119612989Y-86511206D01*
X119664500Y-86500000D01*
X119810000Y-86500000D01*
X120310000Y-86500000D01*
X120607828Y-86500000D01*
X120607844Y-86499999D01*
X120667372Y-86493598D01*
X120667379Y-86493596D01*
X120802086Y-86443354D01*
X120802093Y-86443350D01*
X120917187Y-86357190D01*
X120917190Y-86357187D01*
X121003350Y-86242093D01*
X121003354Y-86242086D01*
X121053596Y-86107379D01*
X121053598Y-86107372D01*
X121059999Y-86047844D01*
X121060000Y-86047827D01*
X121060000Y-85750000D01*
X120310000Y-85750000D01*
X120310000Y-86500000D01*
X119810000Y-86500000D01*
X119810000Y-85744975D01*
X119845095Y-85780070D01*
X119924905Y-85826148D01*
X120013922Y-85850000D01*
X120106078Y-85850000D01*
X120195095Y-85826148D01*
X120274905Y-85780070D01*
X120340070Y-85714905D01*
X120386148Y-85635095D01*
X120410000Y-85546078D01*
X120410000Y-85453922D01*
X120386148Y-85364905D01*
X120340070Y-85285095D01*
X120304975Y-85250000D01*
X120310000Y-85250000D01*
X121060000Y-85250000D01*
X121060000Y-84952172D01*
X121059999Y-84952155D01*
X121053598Y-84892627D01*
X121053596Y-84892620D01*
X121003354Y-84757913D01*
X121003350Y-84757906D01*
X120917190Y-84642812D01*
X120917187Y-84642809D01*
X120802093Y-84556649D01*
X120802086Y-84556645D01*
X120667379Y-84506403D01*
X120667372Y-84506401D01*
X120607844Y-84500000D01*
X120310000Y-84500000D01*
X120310000Y-85250000D01*
X120304975Y-85250000D01*
X120274905Y-85219930D01*
X120195095Y-85173852D01*
X120106078Y-85150000D01*
X120013922Y-85150000D01*
X119924905Y-85173852D01*
X119845095Y-85219930D01*
X119810000Y-85255025D01*
X119810000Y-84500000D01*
X119512155Y-84500000D01*
X119452627Y-84506401D01*
X119452620Y-84506403D01*
X119317913Y-84556645D01*
X119317907Y-84556648D01*
X119310102Y-84562492D01*
X119244638Y-84586908D01*
X119180470Y-84573249D01*
X119180359Y-84573518D01*
X119178905Y-84572916D01*
X119177341Y-84572583D01*
X119174731Y-84571188D01*
X119174730Y-84571187D01*
X119174727Y-84571186D01*
X118986132Y-84513976D01*
X118986129Y-84513975D01*
X118790000Y-84494659D01*
X118593870Y-84513975D01*
X118405266Y-84571188D01*
X118231467Y-84664086D01*
X118226399Y-84667473D01*
X118225305Y-84665836D01*
X118169337Y-84689596D01*
X118100471Y-84677795D01*
X118083843Y-84667109D01*
X118083601Y-84667473D01*
X118078532Y-84664086D01*
X117904733Y-84571188D01*
X117904727Y-84571186D01*
X117716132Y-84513976D01*
X117716129Y-84513975D01*
X117520000Y-84494659D01*
X117323870Y-84513975D01*
X117135266Y-84571188D01*
X116961467Y-84664086D01*
X116956399Y-84667473D01*
X116955305Y-84665836D01*
X116899337Y-84689596D01*
X116830471Y-84677795D01*
X116813843Y-84667109D01*
X116813601Y-84667473D01*
X116808532Y-84664086D01*
X116634733Y-84571188D01*
X116634727Y-84571186D01*
X116446132Y-84513976D01*
X116446129Y-84513975D01*
X116250000Y-84494659D01*
X116053870Y-84513975D01*
X115865266Y-84571188D01*
X115691467Y-84664086D01*
X115691460Y-84664090D01*
X115539116Y-84789116D01*
X115414090Y-84941460D01*
X115414086Y-84941467D01*
X115321188Y-85115266D01*
X115263975Y-85303870D01*
X115244659Y-85500000D01*
X115263975Y-85696129D01*
X115321188Y-85884733D01*
X115414086Y-86058532D01*
X115414090Y-86058539D01*
X115539116Y-86210883D01*
X115691460Y-86335909D01*
X115691467Y-86335913D01*
X115865266Y-86428811D01*
X115865269Y-86428811D01*
X115865273Y-86428814D01*
X116053868Y-86486024D01*
X116250000Y-86505341D01*
X116446132Y-86486024D01*
X116634727Y-86428814D01*
X116808538Y-86335910D01*
X116808544Y-86335904D01*
X116813607Y-86332523D01*
X116814703Y-86334164D01*
X116870639Y-86310405D01*
X116939507Y-86322194D01*
X116956148Y-86332888D01*
X116956393Y-86332523D01*
X116961458Y-86335907D01*
X116961462Y-86335910D01*
X117135273Y-86428814D01*
X117323868Y-86486024D01*
X117520000Y-86505341D01*
X117716132Y-86486024D01*
X117879505Y-86436464D01*
X117949371Y-86435841D01*
X118008484Y-86473089D01*
X118038075Y-86536382D01*
X118039500Y-86555125D01*
X118039500Y-88875500D01*
X118019815Y-88942539D01*
X117967011Y-88988294D01*
X117915500Y-88999500D01*
X114862229Y-88999500D01*
X114795190Y-88979815D01*
X114774548Y-88963181D01*
X111786819Y-85975451D01*
X111753334Y-85914128D01*
X111750500Y-85887770D01*
X111750500Y-81729997D01*
X133108677Y-81729997D01*
X133108677Y-81730002D01*
X133127929Y-81950062D01*
X133127930Y-81950070D01*
X133185104Y-82163445D01*
X133185105Y-82163447D01*
X133185106Y-82163450D01*
X133278466Y-82363662D01*
X133278468Y-82363666D01*
X133405170Y-82544615D01*
X133405175Y-82544621D01*
X133561378Y-82700824D01*
X133561384Y-82700829D01*
X133742333Y-82827531D01*
X133742335Y-82827532D01*
X133742338Y-82827534D01*
X133861748Y-82883215D01*
X133871189Y-82887618D01*
X133923628Y-82933790D01*
X133942780Y-83000984D01*
X133922564Y-83067865D01*
X133871189Y-83112382D01*
X133742340Y-83172465D01*
X133742338Y-83172466D01*
X133561377Y-83299175D01*
X133405175Y-83455377D01*
X133278466Y-83636338D01*
X133278465Y-83636340D01*
X133185107Y-83836548D01*
X133185104Y-83836554D01*
X133127930Y-84049929D01*
X133127929Y-84049937D01*
X133108677Y-84269997D01*
X133108677Y-84270002D01*
X133127929Y-84490062D01*
X133127930Y-84490070D01*
X133185104Y-84703445D01*
X133185105Y-84703447D01*
X133185106Y-84703450D01*
X133225053Y-84789116D01*
X133278466Y-84903662D01*
X133278468Y-84903666D01*
X133405170Y-85084615D01*
X133405175Y-85084621D01*
X133561378Y-85240824D01*
X133561384Y-85240829D01*
X133742333Y-85367531D01*
X133742335Y-85367532D01*
X133742338Y-85367534D01*
X133861748Y-85423215D01*
X133871189Y-85427618D01*
X133923628Y-85473790D01*
X133942780Y-85540984D01*
X133922564Y-85607865D01*
X133871189Y-85652382D01*
X133742340Y-85712465D01*
X133742338Y-85712466D01*
X133561377Y-85839175D01*
X133405175Y-85995377D01*
X133278466Y-86176338D01*
X133278465Y-86176340D01*
X133185107Y-86376548D01*
X133185104Y-86376554D01*
X133127930Y-86589929D01*
X133127929Y-86589937D01*
X133108677Y-86809997D01*
X133108677Y-86810002D01*
X133127929Y-87030062D01*
X133127930Y-87030070D01*
X133185104Y-87243445D01*
X133185105Y-87243447D01*
X133185106Y-87243450D01*
X133278466Y-87443662D01*
X133278468Y-87443666D01*
X133405170Y-87624615D01*
X133405175Y-87624621D01*
X133561378Y-87780824D01*
X133561384Y-87780829D01*
X133742333Y-87907531D01*
X133742335Y-87907532D01*
X133742338Y-87907534D01*
X133861748Y-87963215D01*
X133871189Y-87967618D01*
X133923628Y-88013790D01*
X133942780Y-88080984D01*
X133922564Y-88147865D01*
X133871189Y-88192382D01*
X133742340Y-88252465D01*
X133742338Y-88252466D01*
X133561377Y-88379175D01*
X133405175Y-88535377D01*
X133278466Y-88716338D01*
X133278465Y-88716340D01*
X133185107Y-88916548D01*
X133185104Y-88916554D01*
X133127930Y-89129929D01*
X133127929Y-89129937D01*
X133108677Y-89349997D01*
X133108677Y-89350002D01*
X133127929Y-89570062D01*
X133127930Y-89570070D01*
X133185104Y-89783445D01*
X133185105Y-89783447D01*
X133185106Y-89783450D01*
X133278466Y-89983662D01*
X133278468Y-89983666D01*
X133405170Y-90164615D01*
X133405175Y-90164621D01*
X133561378Y-90320824D01*
X133561384Y-90320829D01*
X133742333Y-90447531D01*
X133742335Y-90447532D01*
X133742338Y-90447534D01*
X133855924Y-90500500D01*
X133871189Y-90507618D01*
X133923628Y-90553790D01*
X133942780Y-90620984D01*
X133922564Y-90687865D01*
X133871189Y-90732382D01*
X133742340Y-90792465D01*
X133742338Y-90792466D01*
X133561377Y-90919175D01*
X133405175Y-91075377D01*
X133278466Y-91256338D01*
X133278465Y-91256340D01*
X133185107Y-91456548D01*
X133185104Y-91456554D01*
X133127930Y-91669929D01*
X133127929Y-91669937D01*
X133108677Y-91889997D01*
X133108677Y-91890002D01*
X133127929Y-92110062D01*
X133127930Y-92110070D01*
X133185104Y-92323445D01*
X133185105Y-92323447D01*
X133185106Y-92323450D01*
X133278466Y-92523662D01*
X133278468Y-92523666D01*
X133405170Y-92704615D01*
X133405175Y-92704621D01*
X133561378Y-92860824D01*
X133561384Y-92860829D01*
X133742333Y-92987531D01*
X133742335Y-92987532D01*
X133742338Y-92987534D01*
X133861748Y-93043215D01*
X133871189Y-93047618D01*
X133923628Y-93093790D01*
X133942780Y-93160984D01*
X133922564Y-93227865D01*
X133871189Y-93272382D01*
X133742340Y-93332465D01*
X133742338Y-93332466D01*
X133561377Y-93459175D01*
X133405175Y-93615377D01*
X133278466Y-93796338D01*
X133278465Y-93796340D01*
X133185107Y-93996548D01*
X133185104Y-93996554D01*
X133127930Y-94209929D01*
X133127929Y-94209937D01*
X133108677Y-94429997D01*
X133108677Y-94430002D01*
X133127929Y-94650062D01*
X133127930Y-94650070D01*
X133185104Y-94863445D01*
X133185105Y-94863447D01*
X133185106Y-94863450D01*
X133238135Y-94977172D01*
X133278466Y-95063662D01*
X133278468Y-95063666D01*
X133405170Y-95244615D01*
X133405175Y-95244621D01*
X133561378Y-95400824D01*
X133561384Y-95400829D01*
X133742333Y-95527531D01*
X133742335Y-95527532D01*
X133742338Y-95527534D01*
X133835719Y-95571078D01*
X133871189Y-95587618D01*
X133923628Y-95633790D01*
X133942780Y-95700984D01*
X133922564Y-95767865D01*
X133871189Y-95812382D01*
X133742340Y-95872465D01*
X133742338Y-95872466D01*
X133561377Y-95999175D01*
X133405175Y-96155377D01*
X133278466Y-96336338D01*
X133278465Y-96336340D01*
X133185107Y-96536548D01*
X133185104Y-96536554D01*
X133127930Y-96749929D01*
X133127929Y-96749937D01*
X133108677Y-96969997D01*
X133108677Y-96970002D01*
X133127929Y-97190062D01*
X133127930Y-97190070D01*
X133185104Y-97403445D01*
X133185105Y-97403447D01*
X133185106Y-97403450D01*
X133278466Y-97603662D01*
X133278468Y-97603666D01*
X133405170Y-97784615D01*
X133405175Y-97784621D01*
X133561378Y-97940824D01*
X133561384Y-97940829D01*
X133742333Y-98067531D01*
X133742335Y-98067532D01*
X133742338Y-98067534D01*
X133841490Y-98113769D01*
X133871189Y-98127618D01*
X133923628Y-98173790D01*
X133942780Y-98240984D01*
X133922564Y-98307865D01*
X133871189Y-98352382D01*
X133742340Y-98412465D01*
X133742338Y-98412466D01*
X133561377Y-98539175D01*
X133405175Y-98695377D01*
X133278466Y-98876338D01*
X133278465Y-98876340D01*
X133185107Y-99076548D01*
X133185104Y-99076554D01*
X133127930Y-99289929D01*
X133127929Y-99289937D01*
X133108677Y-99509997D01*
X133108677Y-99510002D01*
X133127929Y-99730062D01*
X133127930Y-99730070D01*
X133185104Y-99943445D01*
X133185105Y-99943447D01*
X133185106Y-99943450D01*
X133206089Y-99988448D01*
X133278466Y-100143662D01*
X133278468Y-100143666D01*
X133405170Y-100324615D01*
X133405175Y-100324621D01*
X133561378Y-100480824D01*
X133561384Y-100480829D01*
X133742333Y-100607531D01*
X133742335Y-100607532D01*
X133742338Y-100607534D01*
X133846075Y-100655907D01*
X133871189Y-100667618D01*
X133923628Y-100713790D01*
X133942780Y-100780984D01*
X133922564Y-100847865D01*
X133871189Y-100892382D01*
X133742340Y-100952465D01*
X133742338Y-100952466D01*
X133561377Y-101079175D01*
X133405175Y-101235377D01*
X133278466Y-101416338D01*
X133278465Y-101416340D01*
X133185107Y-101616548D01*
X133185104Y-101616554D01*
X133127930Y-101829929D01*
X133127929Y-101829937D01*
X133108677Y-102049997D01*
X133108677Y-102050002D01*
X133127929Y-102270062D01*
X133127930Y-102270070D01*
X133185104Y-102483445D01*
X133185105Y-102483447D01*
X133185106Y-102483450D01*
X133242013Y-102605488D01*
X133278466Y-102683662D01*
X133278468Y-102683666D01*
X133405170Y-102864615D01*
X133405175Y-102864621D01*
X133561378Y-103020824D01*
X133561384Y-103020829D01*
X133742333Y-103147531D01*
X133742335Y-103147532D01*
X133742338Y-103147534D01*
X133861748Y-103203215D01*
X133871189Y-103207618D01*
X133923628Y-103253790D01*
X133942780Y-103320984D01*
X133922564Y-103387865D01*
X133871189Y-103432382D01*
X133742340Y-103492465D01*
X133742338Y-103492466D01*
X133561377Y-103619175D01*
X133405175Y-103775377D01*
X133278466Y-103956338D01*
X133278465Y-103956340D01*
X133185107Y-104156548D01*
X133185104Y-104156554D01*
X133127930Y-104369929D01*
X133127929Y-104369937D01*
X133108677Y-104589997D01*
X133108677Y-104590002D01*
X133127929Y-104810062D01*
X133127930Y-104810070D01*
X133185104Y-105023445D01*
X133185105Y-105023447D01*
X133185106Y-105023450D01*
X133195276Y-105045259D01*
X133278466Y-105223662D01*
X133278468Y-105223666D01*
X133405170Y-105404615D01*
X133405175Y-105404621D01*
X133561378Y-105560824D01*
X133561384Y-105560829D01*
X133742333Y-105687531D01*
X133742335Y-105687532D01*
X133742338Y-105687534D01*
X133826339Y-105726704D01*
X133871189Y-105747618D01*
X133923628Y-105793790D01*
X133942780Y-105860984D01*
X133922564Y-105927865D01*
X133871189Y-105972382D01*
X133742340Y-106032465D01*
X133742338Y-106032466D01*
X133561377Y-106159175D01*
X133405175Y-106315377D01*
X133278466Y-106496338D01*
X133278465Y-106496340D01*
X133185107Y-106696548D01*
X133185104Y-106696554D01*
X133127930Y-106909929D01*
X133127929Y-106909937D01*
X133108677Y-107129997D01*
X133108677Y-107130002D01*
X133127929Y-107350062D01*
X133127930Y-107350070D01*
X133185104Y-107563445D01*
X133185105Y-107563447D01*
X133185106Y-107563450D01*
X133278466Y-107763662D01*
X133278468Y-107763666D01*
X133405170Y-107944615D01*
X133405175Y-107944621D01*
X133561378Y-108100824D01*
X133561384Y-108100829D01*
X133742333Y-108227531D01*
X133742335Y-108227532D01*
X133742338Y-108227534D01*
X133861748Y-108283215D01*
X133871189Y-108287618D01*
X133923628Y-108333790D01*
X133942780Y-108400984D01*
X133922564Y-108467865D01*
X133871189Y-108512382D01*
X133742340Y-108572465D01*
X133742338Y-108572466D01*
X133561377Y-108699175D01*
X133405175Y-108855377D01*
X133278466Y-109036338D01*
X133278465Y-109036340D01*
X133185107Y-109236548D01*
X133185104Y-109236554D01*
X133127930Y-109449929D01*
X133127929Y-109449937D01*
X133108677Y-109669997D01*
X133108677Y-109670002D01*
X133127929Y-109890062D01*
X133127930Y-109890070D01*
X133185104Y-110103445D01*
X133185105Y-110103447D01*
X133185106Y-110103450D01*
X133278466Y-110303662D01*
X133278468Y-110303666D01*
X133405170Y-110484615D01*
X133405175Y-110484621D01*
X133561378Y-110640824D01*
X133561384Y-110640829D01*
X133742333Y-110767531D01*
X133742335Y-110767532D01*
X133742338Y-110767534D01*
X133807407Y-110797876D01*
X133871189Y-110827618D01*
X133923628Y-110873790D01*
X133942780Y-110940984D01*
X133922564Y-111007865D01*
X133871189Y-111052382D01*
X133742340Y-111112465D01*
X133742338Y-111112466D01*
X133561377Y-111239175D01*
X133405175Y-111395377D01*
X133278466Y-111576338D01*
X133278465Y-111576340D01*
X133185107Y-111776548D01*
X133185104Y-111776554D01*
X133127930Y-111989929D01*
X133127929Y-111989937D01*
X133108677Y-112209997D01*
X133108677Y-112210002D01*
X133127929Y-112430062D01*
X133127930Y-112430070D01*
X133185104Y-112643445D01*
X133185105Y-112643447D01*
X133185106Y-112643450D01*
X133278466Y-112843662D01*
X133278468Y-112843666D01*
X133405170Y-113024615D01*
X133405175Y-113024621D01*
X133561378Y-113180824D01*
X133561384Y-113180829D01*
X133742333Y-113307531D01*
X133742335Y-113307532D01*
X133742338Y-113307534D01*
X133861748Y-113363215D01*
X133871189Y-113367618D01*
X133923628Y-113413790D01*
X133942780Y-113480984D01*
X133922564Y-113547865D01*
X133871189Y-113592382D01*
X133742340Y-113652465D01*
X133742338Y-113652466D01*
X133561377Y-113779175D01*
X133405175Y-113935377D01*
X133278466Y-114116338D01*
X133278465Y-114116340D01*
X133185107Y-114316548D01*
X133185104Y-114316554D01*
X133127930Y-114529929D01*
X133127929Y-114529937D01*
X133108677Y-114749997D01*
X133108677Y-114750002D01*
X133127929Y-114970062D01*
X133127930Y-114970070D01*
X133185104Y-115183445D01*
X133185105Y-115183447D01*
X133185106Y-115183450D01*
X133278466Y-115383662D01*
X133278468Y-115383666D01*
X133405170Y-115564615D01*
X133405175Y-115564621D01*
X133561378Y-115720824D01*
X133561384Y-115720829D01*
X133742333Y-115847531D01*
X133742335Y-115847532D01*
X133742338Y-115847534D01*
X133942550Y-115940894D01*
X134155932Y-115998070D01*
X134313123Y-116011822D01*
X134375998Y-116017323D01*
X134376000Y-116017323D01*
X134376002Y-116017323D01*
X134431017Y-116012509D01*
X134596068Y-115998070D01*
X134809450Y-115940894D01*
X135009662Y-115847534D01*
X135190620Y-115720826D01*
X135346826Y-115564620D01*
X135473534Y-115383662D01*
X135566894Y-115183450D01*
X135624070Y-114970068D01*
X135643323Y-114750000D01*
X135624070Y-114529932D01*
X135566894Y-114316550D01*
X135473534Y-114116339D01*
X135346826Y-113935380D01*
X135190620Y-113779174D01*
X135190616Y-113779171D01*
X135190615Y-113779170D01*
X135009666Y-113652468D01*
X135009658Y-113652464D01*
X134880811Y-113592382D01*
X134828371Y-113546210D01*
X134809219Y-113479017D01*
X134829435Y-113412135D01*
X134880811Y-113367618D01*
X134886802Y-113364824D01*
X135009662Y-113307534D01*
X135190620Y-113180826D01*
X135346826Y-113024620D01*
X135473534Y-112843662D01*
X135566894Y-112643450D01*
X135624070Y-112430068D01*
X135643323Y-112210000D01*
X135624070Y-111989932D01*
X135566894Y-111776550D01*
X135473534Y-111576339D01*
X135346826Y-111395380D01*
X135190620Y-111239174D01*
X135190616Y-111239171D01*
X135190615Y-111239170D01*
X135009666Y-111112468D01*
X135009658Y-111112464D01*
X134880811Y-111052382D01*
X134828371Y-111006210D01*
X134809219Y-110939017D01*
X134829435Y-110872135D01*
X134880811Y-110827618D01*
X134886802Y-110824824D01*
X135009662Y-110767534D01*
X135190620Y-110640826D01*
X135346826Y-110484620D01*
X135473534Y-110303662D01*
X135566894Y-110103450D01*
X135624070Y-109890068D01*
X135643323Y-109670000D01*
X135624070Y-109449932D01*
X135566894Y-109236550D01*
X135473534Y-109036339D01*
X135346826Y-108855380D01*
X135190620Y-108699174D01*
X135190616Y-108699171D01*
X135190615Y-108699170D01*
X135009666Y-108572468D01*
X135009658Y-108572464D01*
X134880811Y-108512382D01*
X134828371Y-108466210D01*
X134809219Y-108399017D01*
X134829435Y-108332135D01*
X134880811Y-108287618D01*
X134886802Y-108284824D01*
X135009662Y-108227534D01*
X135190620Y-108100826D01*
X135346826Y-107944620D01*
X135473534Y-107763662D01*
X135566894Y-107563450D01*
X135624070Y-107350068D01*
X135643323Y-107130000D01*
X135643187Y-107128449D01*
X135624070Y-106909937D01*
X135624070Y-106909932D01*
X135566894Y-106696550D01*
X135473534Y-106496339D01*
X135346826Y-106315380D01*
X135190620Y-106159174D01*
X135190616Y-106159171D01*
X135190615Y-106159170D01*
X135009666Y-106032468D01*
X135009658Y-106032464D01*
X134880811Y-105972382D01*
X134828371Y-105926210D01*
X134809219Y-105859017D01*
X134829435Y-105792135D01*
X134880811Y-105747618D01*
X134925661Y-105726704D01*
X135009662Y-105687534D01*
X135190620Y-105560826D01*
X135346826Y-105404620D01*
X135473534Y-105223662D01*
X135566894Y-105023450D01*
X135624070Y-104810068D01*
X135643323Y-104590000D01*
X135642335Y-104578712D01*
X135625862Y-104390416D01*
X135624070Y-104369932D01*
X135566894Y-104156550D01*
X135473534Y-103956339D01*
X135404110Y-103857190D01*
X135346827Y-103775381D01*
X135313532Y-103742086D01*
X135190620Y-103619174D01*
X135190616Y-103619171D01*
X135190615Y-103619170D01*
X135009666Y-103492468D01*
X135009658Y-103492464D01*
X134880811Y-103432382D01*
X134828371Y-103386210D01*
X134809219Y-103319017D01*
X134829435Y-103252135D01*
X134880811Y-103207618D01*
X134886802Y-103204824D01*
X135009662Y-103147534D01*
X135190620Y-103020826D01*
X135346826Y-102864620D01*
X135473534Y-102683662D01*
X135566894Y-102483450D01*
X135624070Y-102270068D01*
X135642780Y-102056204D01*
X135643323Y-102050002D01*
X135643323Y-102049997D01*
X135634995Y-101954809D01*
X135624070Y-101829932D01*
X135566894Y-101616550D01*
X135473534Y-101416339D01*
X135346826Y-101235380D01*
X135190620Y-101079174D01*
X135190616Y-101079171D01*
X135190615Y-101079170D01*
X135009666Y-100952468D01*
X135009658Y-100952464D01*
X134880811Y-100892382D01*
X134828371Y-100846210D01*
X134809219Y-100779017D01*
X134829435Y-100712135D01*
X134880811Y-100667618D01*
X134905925Y-100655907D01*
X135009662Y-100607534D01*
X135190620Y-100480826D01*
X135346826Y-100324620D01*
X135473534Y-100143662D01*
X135566894Y-99943450D01*
X135624070Y-99730068D01*
X135643323Y-99510000D01*
X135624070Y-99289932D01*
X135566894Y-99076550D01*
X135473534Y-98876339D01*
X135346826Y-98695380D01*
X135190620Y-98539174D01*
X135190616Y-98539171D01*
X135190615Y-98539170D01*
X135009666Y-98412468D01*
X135009658Y-98412464D01*
X134880811Y-98352382D01*
X134828371Y-98306210D01*
X134809219Y-98239017D01*
X134829435Y-98172135D01*
X134880811Y-98127618D01*
X134910510Y-98113769D01*
X135009662Y-98067534D01*
X135190620Y-97940826D01*
X135346826Y-97784620D01*
X135473534Y-97603662D01*
X135566894Y-97403450D01*
X135624070Y-97190068D01*
X135643323Y-96970000D01*
X135624070Y-96749932D01*
X135566894Y-96536550D01*
X135473534Y-96336339D01*
X135346826Y-96155380D01*
X135190620Y-95999174D01*
X135190616Y-95999171D01*
X135190615Y-95999170D01*
X135009666Y-95872468D01*
X135009658Y-95872464D01*
X134880811Y-95812382D01*
X134828371Y-95766210D01*
X134809219Y-95699017D01*
X134829435Y-95632135D01*
X134880811Y-95587618D01*
X134916281Y-95571078D01*
X135009662Y-95527534D01*
X135190620Y-95400826D01*
X135346826Y-95244620D01*
X135473534Y-95063662D01*
X135566894Y-94863450D01*
X135624070Y-94650068D01*
X135643323Y-94430000D01*
X135624070Y-94209932D01*
X135566894Y-93996550D01*
X135473534Y-93796339D01*
X135346826Y-93615380D01*
X135190620Y-93459174D01*
X135190616Y-93459171D01*
X135190615Y-93459170D01*
X135009666Y-93332468D01*
X135009658Y-93332464D01*
X134880811Y-93272382D01*
X134828371Y-93226210D01*
X134809219Y-93159017D01*
X134829435Y-93092135D01*
X134880811Y-93047618D01*
X134886802Y-93044824D01*
X135009662Y-92987534D01*
X135190620Y-92860826D01*
X135346826Y-92704620D01*
X135473534Y-92523662D01*
X135566894Y-92323450D01*
X135624070Y-92110068D01*
X135643323Y-91890000D01*
X135624070Y-91669932D01*
X135566894Y-91456550D01*
X135473534Y-91256339D01*
X135346826Y-91075380D01*
X135190620Y-90919174D01*
X135190616Y-90919171D01*
X135190615Y-90919170D01*
X135009666Y-90792468D01*
X135009658Y-90792464D01*
X134880811Y-90732382D01*
X134828371Y-90686210D01*
X134809219Y-90619017D01*
X134829435Y-90552135D01*
X134880811Y-90507618D01*
X134886802Y-90504824D01*
X135009662Y-90447534D01*
X135190620Y-90320826D01*
X135346826Y-90164620D01*
X135473534Y-89983662D01*
X135566894Y-89783450D01*
X135624070Y-89570068D01*
X135643323Y-89350000D01*
X135624070Y-89129932D01*
X135566894Y-88916550D01*
X135473534Y-88716339D01*
X135346826Y-88535380D01*
X135190620Y-88379174D01*
X135190616Y-88379171D01*
X135190615Y-88379170D01*
X135009666Y-88252468D01*
X135009658Y-88252464D01*
X134880811Y-88192382D01*
X134828371Y-88146210D01*
X134809219Y-88079017D01*
X134829435Y-88012135D01*
X134880811Y-87967618D01*
X134886802Y-87964824D01*
X135009662Y-87907534D01*
X135190620Y-87780826D01*
X135346826Y-87624620D01*
X135473534Y-87443662D01*
X135566894Y-87243450D01*
X135624070Y-87030068D01*
X135643323Y-86810000D01*
X135624070Y-86589932D01*
X135566894Y-86376550D01*
X135473534Y-86176339D01*
X135391045Y-86058532D01*
X135346827Y-85995381D01*
X135290578Y-85939132D01*
X135190620Y-85839174D01*
X135190616Y-85839171D01*
X135190615Y-85839170D01*
X135009666Y-85712468D01*
X135009658Y-85712464D01*
X134880811Y-85652382D01*
X134828371Y-85606210D01*
X134809219Y-85539017D01*
X134829435Y-85472135D01*
X134880811Y-85427618D01*
X134886802Y-85424824D01*
X135009662Y-85367534D01*
X135190620Y-85240826D01*
X135346826Y-85084620D01*
X135473534Y-84903662D01*
X135566894Y-84703450D01*
X135624070Y-84490068D01*
X135643323Y-84270000D01*
X135624070Y-84049932D01*
X135566894Y-83836550D01*
X135473534Y-83636339D01*
X135346826Y-83455380D01*
X135190620Y-83299174D01*
X135190616Y-83299171D01*
X135190615Y-83299170D01*
X135009666Y-83172468D01*
X135009658Y-83172464D01*
X134880811Y-83112382D01*
X134828371Y-83066210D01*
X134809219Y-82999017D01*
X134829435Y-82932135D01*
X134880811Y-82887618D01*
X134886802Y-82884824D01*
X135009662Y-82827534D01*
X135190620Y-82700826D01*
X135346826Y-82544620D01*
X135473534Y-82363662D01*
X135566894Y-82163450D01*
X135624070Y-81950068D01*
X135643323Y-81730000D01*
X135624070Y-81509932D01*
X135566894Y-81296550D01*
X135473534Y-81096339D01*
X135346826Y-80915380D01*
X135190620Y-80759174D01*
X135190616Y-80759171D01*
X135190615Y-80759170D01*
X135074797Y-80678074D01*
X135031172Y-80623497D01*
X135023978Y-80553999D01*
X135055501Y-80491644D01*
X135115730Y-80456230D01*
X135145919Y-80452499D01*
X135185872Y-80452499D01*
X135245483Y-80446091D01*
X135380331Y-80395796D01*
X135495546Y-80309546D01*
X135581796Y-80194331D01*
X135632091Y-80059483D01*
X135638500Y-79999873D01*
X135638499Y-78380128D01*
X135632091Y-78320517D01*
X135581796Y-78185669D01*
X135581795Y-78185668D01*
X135581793Y-78185664D01*
X135495547Y-78070455D01*
X135495544Y-78070452D01*
X135380335Y-77984206D01*
X135380328Y-77984202D01*
X135245482Y-77933908D01*
X135245483Y-77933908D01*
X135185883Y-77927501D01*
X135185881Y-77927500D01*
X135185873Y-77927500D01*
X135185864Y-77927500D01*
X133566129Y-77927500D01*
X133566123Y-77927501D01*
X133506516Y-77933908D01*
X133371671Y-77984202D01*
X133371664Y-77984206D01*
X133256455Y-78070452D01*
X133256452Y-78070455D01*
X133170206Y-78185664D01*
X133170202Y-78185671D01*
X133119908Y-78320517D01*
X133114010Y-78375380D01*
X133113501Y-78380123D01*
X133113500Y-78380135D01*
X133113500Y-79999870D01*
X133113501Y-79999876D01*
X133119908Y-80059483D01*
X133170202Y-80194328D01*
X133170206Y-80194335D01*
X133256452Y-80309544D01*
X133256455Y-80309547D01*
X133371664Y-80395793D01*
X133371671Y-80395797D01*
X133506517Y-80446091D01*
X133506516Y-80446091D01*
X133513444Y-80446835D01*
X133566127Y-80452500D01*
X133606079Y-80452499D01*
X133673116Y-80472182D01*
X133718872Y-80524985D01*
X133728817Y-80594143D01*
X133699794Y-80657700D01*
X133677203Y-80678074D01*
X133561375Y-80759177D01*
X133405175Y-80915377D01*
X133278466Y-81096338D01*
X133278465Y-81096340D01*
X133185107Y-81296548D01*
X133185104Y-81296554D01*
X133127930Y-81509929D01*
X133127929Y-81509937D01*
X133108677Y-81729997D01*
X111750500Y-81729997D01*
X111750500Y-77000000D01*
X113510840Y-77000000D01*
X113551652Y-77134541D01*
X113644503Y-77308253D01*
X113644507Y-77308260D01*
X113769471Y-77460528D01*
X113921739Y-77585491D01*
X114095465Y-77678349D01*
X114230000Y-77719159D01*
X114230000Y-77000000D01*
X113510840Y-77000000D01*
X111750500Y-77000000D01*
X111750500Y-76703922D01*
X114130000Y-76703922D01*
X114130000Y-76796078D01*
X114153852Y-76885095D01*
X114199930Y-76964905D01*
X114265095Y-77030070D01*
X114344905Y-77076148D01*
X114433922Y-77100000D01*
X114526078Y-77100000D01*
X114615095Y-77076148D01*
X114694905Y-77030070D01*
X114730000Y-76994975D01*
X114730000Y-77719159D01*
X114864539Y-77678347D01*
X114866408Y-77677349D01*
X114867500Y-77677121D01*
X114870170Y-77676016D01*
X114870379Y-77676521D01*
X114934810Y-77663104D01*
X114999176Y-77687439D01*
X115007664Y-77693793D01*
X115007671Y-77693797D01*
X115142517Y-77744091D01*
X115142516Y-77744091D01*
X115149444Y-77744835D01*
X115202127Y-77750500D01*
X116297872Y-77750499D01*
X116357483Y-77744091D01*
X116492331Y-77693796D01*
X116607546Y-77607546D01*
X116693796Y-77492331D01*
X116744091Y-77357483D01*
X116750500Y-77297873D01*
X116750499Y-76202128D01*
X116744091Y-76142517D01*
X116725773Y-76093405D01*
X116693797Y-76007671D01*
X116693793Y-76007664D01*
X116607547Y-75892455D01*
X116607544Y-75892452D01*
X116492335Y-75806206D01*
X116492328Y-75806202D01*
X116357482Y-75755908D01*
X116357483Y-75755908D01*
X116297883Y-75749501D01*
X116297881Y-75749500D01*
X116297873Y-75749500D01*
X116297864Y-75749500D01*
X115202129Y-75749500D01*
X115202123Y-75749501D01*
X115142516Y-75755908D01*
X115007671Y-75806202D01*
X115007666Y-75806205D01*
X114999172Y-75812564D01*
X114933707Y-75836979D01*
X114870363Y-75823493D01*
X114870162Y-75823981D01*
X114867526Y-75822889D01*
X114866407Y-75822651D01*
X114864537Y-75821651D01*
X114730000Y-75780839D01*
X114730000Y-76505025D01*
X114694905Y-76469930D01*
X114615095Y-76423852D01*
X114526078Y-76400000D01*
X114433922Y-76400000D01*
X114344905Y-76423852D01*
X114265095Y-76469930D01*
X114199930Y-76535095D01*
X114153852Y-76614905D01*
X114130000Y-76703922D01*
X111750500Y-76703922D01*
X111750500Y-76499999D01*
X113510839Y-76499999D01*
X113510840Y-76500000D01*
X114230000Y-76500000D01*
X114230000Y-75780839D01*
X114229999Y-75780839D01*
X114095458Y-75821652D01*
X113921746Y-75914503D01*
X113921739Y-75914507D01*
X113769471Y-76039471D01*
X113644507Y-76191739D01*
X113644503Y-76191746D01*
X113551652Y-76365458D01*
X113510839Y-76499999D01*
X111750500Y-76499999D01*
X111750500Y-71624500D01*
X111770185Y-71557461D01*
X111822989Y-71511706D01*
X111874500Y-71500500D01*
X115676082Y-71500500D01*
X122125500Y-71500500D01*
X122192539Y-71520185D01*
X122238294Y-71572989D01*
X122249500Y-71624500D01*
X122249500Y-75754947D01*
X122229815Y-75821986D01*
X122209037Y-75846585D01*
X122133536Y-75915412D01*
X122070732Y-75946028D01*
X122001345Y-75937830D01*
X121966461Y-75915411D01*
X121826562Y-75787876D01*
X121826560Y-75787874D01*
X121637404Y-75670754D01*
X121637398Y-75670752D01*
X121429940Y-75590382D01*
X121211243Y-75549500D01*
X120988757Y-75549500D01*
X120770060Y-75590382D01*
X120711261Y-75613161D01*
X120562601Y-75670752D01*
X120562595Y-75670754D01*
X120373439Y-75787874D01*
X120373437Y-75787876D01*
X120209020Y-75937761D01*
X120074943Y-76115308D01*
X120074938Y-76115316D01*
X119975775Y-76314461D01*
X119975769Y-76314476D01*
X119914885Y-76528462D01*
X119914884Y-76528464D01*
X119894357Y-76749999D01*
X119894357Y-76750000D01*
X119914884Y-76971535D01*
X119914885Y-76971537D01*
X119975769Y-77185523D01*
X119975775Y-77185538D01*
X120074938Y-77384683D01*
X120074943Y-77384691D01*
X120209020Y-77562238D01*
X120373437Y-77712123D01*
X120373439Y-77712125D01*
X120562595Y-77829245D01*
X120562596Y-77829245D01*
X120562599Y-77829247D01*
X120770060Y-77909618D01*
X120988757Y-77950500D01*
X120988759Y-77950500D01*
X121211241Y-77950500D01*
X121211243Y-77950500D01*
X121429940Y-77909618D01*
X121637401Y-77829247D01*
X121826562Y-77712124D01*
X121966462Y-77584587D01*
X122029266Y-77553971D01*
X122098653Y-77562168D01*
X122133537Y-77584587D01*
X122236386Y-77678347D01*
X122273437Y-77712123D01*
X122273439Y-77712125D01*
X122462595Y-77829245D01*
X122462596Y-77829245D01*
X122462599Y-77829247D01*
X122670060Y-77909618D01*
X122888757Y-77950500D01*
X122888759Y-77950500D01*
X123111241Y-77950500D01*
X123111243Y-77950500D01*
X123329940Y-77909618D01*
X123537401Y-77829247D01*
X123726562Y-77712124D01*
X123890981Y-77562236D01*
X124025058Y-77384689D01*
X124124229Y-77185528D01*
X124185115Y-76971536D01*
X124205643Y-76750000D01*
X124185115Y-76528464D01*
X124124229Y-76314472D01*
X124114901Y-76295739D01*
X124025061Y-76115316D01*
X124025056Y-76115308D01*
X123943772Y-76007671D01*
X123890981Y-75937764D01*
X123890978Y-75937761D01*
X123890974Y-75937757D01*
X123790962Y-75846584D01*
X123754680Y-75786873D01*
X123750500Y-75754947D01*
X123750500Y-71624500D01*
X123770185Y-71557461D01*
X123822989Y-71511706D01*
X123874500Y-71500500D01*
X149137770Y-71500500D01*
X149204809Y-71520185D01*
X149225451Y-71536819D01*
X152628950Y-74940318D01*
X152662435Y-75001641D01*
X152657451Y-75071333D01*
X152628950Y-75115680D01*
X149846272Y-77898358D01*
X149784949Y-77931843D01*
X149747785Y-77934205D01*
X149616003Y-77922677D01*
X149615998Y-77922677D01*
X149395937Y-77941929D01*
X149395929Y-77941930D01*
X149182554Y-77999104D01*
X149182548Y-77999107D01*
X148982340Y-78092465D01*
X148982338Y-78092466D01*
X148801377Y-78219175D01*
X148645175Y-78375377D01*
X148518466Y-78556338D01*
X148518465Y-78556340D01*
X148425107Y-78756548D01*
X148425104Y-78756554D01*
X148367930Y-78969929D01*
X148367929Y-78969937D01*
X148348677Y-79189997D01*
X148348677Y-79190002D01*
X148367929Y-79410062D01*
X148367930Y-79410070D01*
X148425104Y-79623445D01*
X148425105Y-79623447D01*
X148425106Y-79623450D01*
X148518466Y-79823662D01*
X148518468Y-79823666D01*
X148645170Y-80004615D01*
X148645175Y-80004621D01*
X148801378Y-80160824D01*
X148801384Y-80160829D01*
X148982333Y-80287531D01*
X148982335Y-80287532D01*
X148982338Y-80287534D01*
X149101748Y-80343215D01*
X149111189Y-80347618D01*
X149163628Y-80393790D01*
X149182780Y-80460984D01*
X149162564Y-80527865D01*
X149111189Y-80572382D01*
X148982340Y-80632465D01*
X148982338Y-80632466D01*
X148801377Y-80759175D01*
X148645175Y-80915377D01*
X148518466Y-81096338D01*
X148518465Y-81096340D01*
X148425107Y-81296548D01*
X148425104Y-81296554D01*
X148367930Y-81509929D01*
X148367929Y-81509937D01*
X148348677Y-81729997D01*
X148348677Y-81730002D01*
X148367929Y-81950062D01*
X148367930Y-81950070D01*
X148425104Y-82163445D01*
X148425105Y-82163447D01*
X148425106Y-82163450D01*
X148518466Y-82363662D01*
X148518468Y-82363666D01*
X148645170Y-82544615D01*
X148645175Y-82544621D01*
X148801378Y-82700824D01*
X148801384Y-82700829D01*
X148982333Y-82827531D01*
X148982335Y-82827532D01*
X148982338Y-82827534D01*
X149101748Y-82883215D01*
X149111189Y-82887618D01*
X149163628Y-82933790D01*
X149182780Y-83000984D01*
X149162564Y-83067865D01*
X149111189Y-83112382D01*
X148982340Y-83172465D01*
X148982338Y-83172466D01*
X148801377Y-83299175D01*
X148645175Y-83455377D01*
X148518466Y-83636338D01*
X148518465Y-83636340D01*
X148425107Y-83836548D01*
X148425104Y-83836554D01*
X148367930Y-84049929D01*
X148367929Y-84049937D01*
X148348677Y-84269997D01*
X148348677Y-84270002D01*
X148367929Y-84490062D01*
X148367930Y-84490070D01*
X148425104Y-84703445D01*
X148425105Y-84703447D01*
X148425106Y-84703450D01*
X148465053Y-84789116D01*
X148518466Y-84903662D01*
X148518468Y-84903666D01*
X148645170Y-85084615D01*
X148645175Y-85084621D01*
X148801378Y-85240824D01*
X148801384Y-85240829D01*
X148982333Y-85367531D01*
X148982335Y-85367532D01*
X148982338Y-85367534D01*
X149101748Y-85423215D01*
X149111189Y-85427618D01*
X149163628Y-85473790D01*
X149182780Y-85540984D01*
X149162564Y-85607865D01*
X149111189Y-85652382D01*
X148982340Y-85712465D01*
X148982338Y-85712466D01*
X148801377Y-85839175D01*
X148645175Y-85995377D01*
X148518466Y-86176338D01*
X148518465Y-86176340D01*
X148425107Y-86376548D01*
X148425104Y-86376554D01*
X148367930Y-86589929D01*
X148367929Y-86589937D01*
X148348677Y-86809997D01*
X148348677Y-86810002D01*
X148367929Y-87030062D01*
X148367930Y-87030070D01*
X148425104Y-87243445D01*
X148425105Y-87243447D01*
X148425106Y-87243450D01*
X148518466Y-87443662D01*
X148518468Y-87443666D01*
X148645170Y-87624615D01*
X148645175Y-87624621D01*
X148801378Y-87780824D01*
X148801384Y-87780829D01*
X148982333Y-87907531D01*
X148982335Y-87907532D01*
X148982338Y-87907534D01*
X149101748Y-87963215D01*
X149111189Y-87967618D01*
X149163628Y-88013790D01*
X149182780Y-88080984D01*
X149162564Y-88147865D01*
X149111189Y-88192382D01*
X148982340Y-88252465D01*
X148982338Y-88252466D01*
X148801377Y-88379175D01*
X148645175Y-88535377D01*
X148518466Y-88716338D01*
X148518465Y-88716340D01*
X148425107Y-88916548D01*
X148425104Y-88916554D01*
X148367930Y-89129929D01*
X148367929Y-89129937D01*
X148348677Y-89349997D01*
X148348677Y-89350002D01*
X148367929Y-89570062D01*
X148367930Y-89570070D01*
X148425104Y-89783445D01*
X148425105Y-89783447D01*
X148425106Y-89783450D01*
X148518466Y-89983662D01*
X148518468Y-89983666D01*
X148645170Y-90164615D01*
X148645175Y-90164621D01*
X148801378Y-90320824D01*
X148801384Y-90320829D01*
X148982333Y-90447531D01*
X148982335Y-90447532D01*
X148982338Y-90447534D01*
X149095924Y-90500500D01*
X149111189Y-90507618D01*
X149163628Y-90553790D01*
X149182780Y-90620984D01*
X149162564Y-90687865D01*
X149111189Y-90732382D01*
X148982340Y-90792465D01*
X148982338Y-90792466D01*
X148801377Y-90919175D01*
X148645175Y-91075377D01*
X148518466Y-91256338D01*
X148518465Y-91256340D01*
X148425107Y-91456548D01*
X148425104Y-91456554D01*
X148367930Y-91669929D01*
X148367929Y-91669937D01*
X148348677Y-91889997D01*
X148348677Y-91890002D01*
X148367929Y-92110062D01*
X148367930Y-92110070D01*
X148425104Y-92323445D01*
X148425105Y-92323447D01*
X148425106Y-92323450D01*
X148518466Y-92523662D01*
X148518468Y-92523666D01*
X148645170Y-92704615D01*
X148645175Y-92704621D01*
X148801378Y-92860824D01*
X148801384Y-92860829D01*
X148982333Y-92987531D01*
X148982335Y-92987532D01*
X148982338Y-92987534D01*
X149101748Y-93043215D01*
X149111189Y-93047618D01*
X149163628Y-93093790D01*
X149182780Y-93160984D01*
X149162564Y-93227865D01*
X149111189Y-93272382D01*
X148982340Y-93332465D01*
X148982338Y-93332466D01*
X148801377Y-93459175D01*
X148645175Y-93615377D01*
X148518466Y-93796338D01*
X148518465Y-93796340D01*
X148425107Y-93996548D01*
X148425104Y-93996554D01*
X148367930Y-94209929D01*
X148367929Y-94209937D01*
X148348677Y-94429997D01*
X148348677Y-94430002D01*
X148367929Y-94650062D01*
X148367930Y-94650070D01*
X148425104Y-94863445D01*
X148425105Y-94863447D01*
X148425106Y-94863450D01*
X148478135Y-94977172D01*
X148518466Y-95063662D01*
X148518468Y-95063666D01*
X148645170Y-95244615D01*
X148645175Y-95244621D01*
X148801378Y-95400824D01*
X148801384Y-95400829D01*
X148982333Y-95527531D01*
X148982335Y-95527532D01*
X148982338Y-95527534D01*
X149075719Y-95571078D01*
X149111189Y-95587618D01*
X149163628Y-95633790D01*
X149182780Y-95700984D01*
X149162564Y-95767865D01*
X149111189Y-95812382D01*
X148982340Y-95872465D01*
X148982338Y-95872466D01*
X148801377Y-95999175D01*
X148645175Y-96155377D01*
X148518466Y-96336338D01*
X148518465Y-96336340D01*
X148425107Y-96536548D01*
X148425104Y-96536554D01*
X148367930Y-96749929D01*
X148367929Y-96749937D01*
X148348677Y-96969997D01*
X148348677Y-96970002D01*
X148367929Y-97190062D01*
X148367930Y-97190070D01*
X148425104Y-97403445D01*
X148425105Y-97403447D01*
X148425106Y-97403450D01*
X148518466Y-97603662D01*
X148518468Y-97603666D01*
X148645170Y-97784615D01*
X148645175Y-97784621D01*
X148801378Y-97940824D01*
X148801384Y-97940829D01*
X148982333Y-98067531D01*
X148982335Y-98067532D01*
X148982338Y-98067534D01*
X149081490Y-98113769D01*
X149111189Y-98127618D01*
X149163628Y-98173790D01*
X149182780Y-98240984D01*
X149162564Y-98307865D01*
X149111189Y-98352382D01*
X148982340Y-98412465D01*
X148982338Y-98412466D01*
X148801377Y-98539175D01*
X148645175Y-98695377D01*
X148518466Y-98876338D01*
X148518465Y-98876340D01*
X148425107Y-99076548D01*
X148425104Y-99076554D01*
X148367930Y-99289929D01*
X148367929Y-99289937D01*
X148348677Y-99509997D01*
X148348677Y-99510002D01*
X148367929Y-99730062D01*
X148367930Y-99730070D01*
X148425104Y-99943445D01*
X148425105Y-99943447D01*
X148425106Y-99943450D01*
X148446089Y-99988448D01*
X148518466Y-100143662D01*
X148518468Y-100143666D01*
X148645170Y-100324615D01*
X148645175Y-100324621D01*
X148801378Y-100480824D01*
X148801384Y-100480829D01*
X148982333Y-100607531D01*
X148982335Y-100607532D01*
X148982338Y-100607534D01*
X149086075Y-100655907D01*
X149111189Y-100667618D01*
X149163628Y-100713790D01*
X149182780Y-100780984D01*
X149162564Y-100847865D01*
X149111189Y-100892382D01*
X148982340Y-100952465D01*
X148982338Y-100952466D01*
X148801377Y-101079175D01*
X148645175Y-101235377D01*
X148518466Y-101416338D01*
X148518465Y-101416340D01*
X148425107Y-101616548D01*
X148425104Y-101616554D01*
X148367930Y-101829929D01*
X148367929Y-101829937D01*
X148348677Y-102049997D01*
X148348677Y-102050002D01*
X148367929Y-102270062D01*
X148367930Y-102270070D01*
X148425104Y-102483445D01*
X148425105Y-102483447D01*
X148425106Y-102483450D01*
X148482013Y-102605488D01*
X148518466Y-102683662D01*
X148518468Y-102683666D01*
X148645170Y-102864615D01*
X148645175Y-102864621D01*
X148801378Y-103020824D01*
X148801384Y-103020829D01*
X148982333Y-103147531D01*
X148982335Y-103147532D01*
X148982338Y-103147534D01*
X149101748Y-103203215D01*
X149111189Y-103207618D01*
X149163628Y-103253790D01*
X149182780Y-103320984D01*
X149162564Y-103387865D01*
X149111189Y-103432382D01*
X148982340Y-103492465D01*
X148982338Y-103492466D01*
X148801377Y-103619175D01*
X148645175Y-103775377D01*
X148518466Y-103956338D01*
X148518465Y-103956340D01*
X148425107Y-104156548D01*
X148425104Y-104156554D01*
X148367930Y-104369929D01*
X148367929Y-104369937D01*
X148348677Y-104589997D01*
X148348677Y-104590002D01*
X148367929Y-104810062D01*
X148367930Y-104810070D01*
X148425104Y-105023445D01*
X148425105Y-105023447D01*
X148425106Y-105023450D01*
X148435276Y-105045259D01*
X148518466Y-105223662D01*
X148518468Y-105223666D01*
X148645170Y-105404615D01*
X148645175Y-105404621D01*
X148801378Y-105560824D01*
X148801384Y-105560829D01*
X148982333Y-105687531D01*
X148982335Y-105687532D01*
X148982338Y-105687534D01*
X149066339Y-105726704D01*
X149111189Y-105747618D01*
X149163628Y-105793790D01*
X149182780Y-105860984D01*
X149162564Y-105927865D01*
X149111189Y-105972382D01*
X148982340Y-106032465D01*
X148982338Y-106032466D01*
X148801377Y-106159175D01*
X148645175Y-106315377D01*
X148518466Y-106496338D01*
X148518465Y-106496340D01*
X148425107Y-106696548D01*
X148425104Y-106696554D01*
X148367930Y-106909929D01*
X148367929Y-106909937D01*
X148348677Y-107129997D01*
X148348677Y-107130002D01*
X148367929Y-107350062D01*
X148367930Y-107350070D01*
X148425104Y-107563445D01*
X148425105Y-107563447D01*
X148425106Y-107563450D01*
X148518466Y-107763662D01*
X148518468Y-107763666D01*
X148645170Y-107944615D01*
X148645175Y-107944621D01*
X148801378Y-108100824D01*
X148801384Y-108100829D01*
X148982333Y-108227531D01*
X148982335Y-108227532D01*
X148982338Y-108227534D01*
X149101748Y-108283215D01*
X149111189Y-108287618D01*
X149163628Y-108333790D01*
X149182780Y-108400984D01*
X149162564Y-108467865D01*
X149111189Y-108512382D01*
X148982340Y-108572465D01*
X148982338Y-108572466D01*
X148801377Y-108699175D01*
X148645175Y-108855377D01*
X148518466Y-109036338D01*
X148518465Y-109036340D01*
X148425107Y-109236548D01*
X148425104Y-109236554D01*
X148367930Y-109449929D01*
X148367929Y-109449937D01*
X148348677Y-109669997D01*
X148348677Y-109670002D01*
X148367929Y-109890062D01*
X148367930Y-109890070D01*
X148425104Y-110103445D01*
X148425105Y-110103447D01*
X148425106Y-110103450D01*
X148518466Y-110303662D01*
X148518468Y-110303666D01*
X148645170Y-110484615D01*
X148645175Y-110484621D01*
X148801378Y-110640824D01*
X148801384Y-110640829D01*
X148982333Y-110767531D01*
X148982335Y-110767532D01*
X148982338Y-110767534D01*
X149047407Y-110797876D01*
X149111189Y-110827618D01*
X149163628Y-110873790D01*
X149182780Y-110940984D01*
X149162564Y-111007865D01*
X149111189Y-111052382D01*
X148982340Y-111112465D01*
X148982338Y-111112466D01*
X148801377Y-111239175D01*
X148645175Y-111395377D01*
X148518466Y-111576338D01*
X148518465Y-111576340D01*
X148425107Y-111776548D01*
X148425104Y-111776554D01*
X148367930Y-111989929D01*
X148367929Y-111989937D01*
X148348677Y-112209997D01*
X148348677Y-112210002D01*
X148367929Y-112430062D01*
X148367930Y-112430070D01*
X148425104Y-112643445D01*
X148425105Y-112643447D01*
X148425106Y-112643450D01*
X148518466Y-112843662D01*
X148518468Y-112843666D01*
X148645170Y-113024615D01*
X148645175Y-113024621D01*
X148801378Y-113180824D01*
X148801384Y-113180829D01*
X148982333Y-113307531D01*
X148982335Y-113307532D01*
X148982338Y-113307534D01*
X149101748Y-113363215D01*
X149111189Y-113367618D01*
X149163628Y-113413790D01*
X149182780Y-113480984D01*
X149162564Y-113547865D01*
X149111189Y-113592382D01*
X148982340Y-113652465D01*
X148982338Y-113652466D01*
X148801377Y-113779175D01*
X148645175Y-113935377D01*
X148518466Y-114116338D01*
X148518465Y-114116340D01*
X148425107Y-114316548D01*
X148425104Y-114316554D01*
X148367930Y-114529929D01*
X148367929Y-114529937D01*
X148348677Y-114749997D01*
X148348677Y-114750002D01*
X148367929Y-114970062D01*
X148367930Y-114970070D01*
X148425104Y-115183445D01*
X148425105Y-115183447D01*
X148425106Y-115183450D01*
X148518466Y-115383662D01*
X148518468Y-115383666D01*
X148645170Y-115564615D01*
X148645175Y-115564621D01*
X148801378Y-115720824D01*
X148801384Y-115720829D01*
X148982333Y-115847531D01*
X148982335Y-115847532D01*
X148982338Y-115847534D01*
X149182550Y-115940894D01*
X149395932Y-115998070D01*
X149553123Y-116011822D01*
X149615998Y-116017323D01*
X149616000Y-116017323D01*
X149616002Y-116017323D01*
X149671017Y-116012509D01*
X149836068Y-115998070D01*
X150049450Y-115940894D01*
X150249662Y-115847534D01*
X150430620Y-115720826D01*
X150586826Y-115564620D01*
X150713534Y-115383662D01*
X150806894Y-115183450D01*
X150864070Y-114970068D01*
X150883323Y-114750000D01*
X150864070Y-114529932D01*
X150806894Y-114316550D01*
X150713534Y-114116339D01*
X150586826Y-113935380D01*
X150430620Y-113779174D01*
X150430616Y-113779171D01*
X150430615Y-113779170D01*
X150249666Y-113652468D01*
X150249658Y-113652464D01*
X150120811Y-113592382D01*
X150068371Y-113546210D01*
X150049219Y-113479017D01*
X150069435Y-113412135D01*
X150120811Y-113367618D01*
X150126802Y-113364824D01*
X150249662Y-113307534D01*
X150430620Y-113180826D01*
X150586826Y-113024620D01*
X150713534Y-112843662D01*
X150806894Y-112643450D01*
X150864070Y-112430068D01*
X150883323Y-112210000D01*
X150864070Y-111989932D01*
X150806894Y-111776550D01*
X150713534Y-111576339D01*
X150586826Y-111395380D01*
X150430620Y-111239174D01*
X150430616Y-111239171D01*
X150430615Y-111239170D01*
X150249666Y-111112468D01*
X150249658Y-111112464D01*
X150120811Y-111052382D01*
X150068371Y-111006210D01*
X150049219Y-110939017D01*
X150069435Y-110872135D01*
X150120811Y-110827618D01*
X150126802Y-110824824D01*
X150249662Y-110767534D01*
X150430620Y-110640826D01*
X150586826Y-110484620D01*
X150713534Y-110303662D01*
X150806894Y-110103450D01*
X150864070Y-109890068D01*
X150883323Y-109670000D01*
X150864070Y-109449932D01*
X150806894Y-109236550D01*
X150713534Y-109036339D01*
X150586826Y-108855380D01*
X150430620Y-108699174D01*
X150430616Y-108699171D01*
X150430615Y-108699170D01*
X150249666Y-108572468D01*
X150249658Y-108572464D01*
X150120811Y-108512382D01*
X150068371Y-108466210D01*
X150049219Y-108399017D01*
X150069435Y-108332135D01*
X150120811Y-108287618D01*
X150126802Y-108284824D01*
X150249662Y-108227534D01*
X150430620Y-108100826D01*
X150586826Y-107944620D01*
X150713534Y-107763662D01*
X150806894Y-107563450D01*
X150864070Y-107350068D01*
X150883323Y-107130000D01*
X150883187Y-107128449D01*
X150864070Y-106909937D01*
X150864070Y-106909932D01*
X150806894Y-106696550D01*
X150713534Y-106496339D01*
X150586826Y-106315380D01*
X150430620Y-106159174D01*
X150430616Y-106159171D01*
X150430615Y-106159170D01*
X150249666Y-106032468D01*
X150249658Y-106032464D01*
X150120811Y-105972382D01*
X150068371Y-105926210D01*
X150049219Y-105859017D01*
X150069435Y-105792135D01*
X150120811Y-105747618D01*
X150165661Y-105726704D01*
X150249662Y-105687534D01*
X150430620Y-105560826D01*
X150586826Y-105404620D01*
X150713534Y-105223662D01*
X150750798Y-105143748D01*
X162438891Y-105143748D01*
X162438891Y-105143751D01*
X162459300Y-105429112D01*
X162520109Y-105708645D01*
X162620091Y-105976708D01*
X162757191Y-106227788D01*
X162757196Y-106227796D01*
X162863882Y-106370312D01*
X162863883Y-106370313D01*
X163581426Y-105652770D01*
X163667249Y-105781213D01*
X163806537Y-105920501D01*
X163934978Y-106006323D01*
X163217435Y-106723865D01*
X163217436Y-106723866D01*
X163359953Y-106830553D01*
X163359961Y-106830558D01*
X163611042Y-106967658D01*
X163611041Y-106967658D01*
X163879104Y-107067640D01*
X164158637Y-107128449D01*
X164443999Y-107148859D01*
X164444001Y-107148859D01*
X164729362Y-107128449D01*
X165008895Y-107067640D01*
X165276958Y-106967658D01*
X165528038Y-106830558D01*
X165528039Y-106830557D01*
X165670563Y-106723865D01*
X164953020Y-106006323D01*
X165081463Y-105920501D01*
X165220751Y-105781213D01*
X165306573Y-105652770D01*
X166024115Y-106370313D01*
X166130807Y-106227789D01*
X166130808Y-106227788D01*
X166267908Y-105976708D01*
X166367890Y-105708645D01*
X166428699Y-105429112D01*
X166449109Y-105143751D01*
X166449109Y-105143748D01*
X169550390Y-105143748D01*
X169550390Y-105143751D01*
X169570804Y-105429183D01*
X169631628Y-105708787D01*
X169631630Y-105708793D01*
X169631631Y-105708796D01*
X169731633Y-105976911D01*
X169731635Y-105976916D01*
X169868770Y-106228059D01*
X169868775Y-106228067D01*
X170040254Y-106457137D01*
X170040270Y-106457155D01*
X170242594Y-106659479D01*
X170242612Y-106659495D01*
X170471682Y-106830974D01*
X170471690Y-106830979D01*
X170722833Y-106968114D01*
X170722832Y-106968114D01*
X170722836Y-106968115D01*
X170722839Y-106968117D01*
X170990954Y-107068119D01*
X170990960Y-107068120D01*
X170990962Y-107068121D01*
X171270566Y-107128945D01*
X171270568Y-107128945D01*
X171270572Y-107128946D01*
X171524220Y-107147087D01*
X171555999Y-107149360D01*
X171556000Y-107149360D01*
X171556001Y-107149360D01*
X171584595Y-107147314D01*
X171841428Y-107128946D01*
X172121046Y-107068119D01*
X172389161Y-106968117D01*
X172640315Y-106830976D01*
X172869395Y-106659489D01*
X173071739Y-106457145D01*
X173243226Y-106228065D01*
X173380367Y-105976911D01*
X173380725Y-105975948D01*
X173381114Y-105974910D01*
X173381541Y-105974339D01*
X173382204Y-105972888D01*
X173382519Y-105973032D01*
X173422988Y-105918979D01*
X173488454Y-105894565D01*
X173497293Y-105894250D01*
X174680170Y-105894250D01*
X174777712Y-105874846D01*
X174825163Y-105865408D01*
X174961745Y-105808834D01*
X175010979Y-105775936D01*
X175084666Y-105726702D01*
X178082951Y-102728416D01*
X178165084Y-102605495D01*
X178221658Y-102468913D01*
X178230742Y-102423241D01*
X178236854Y-102392519D01*
X178236854Y-102392517D01*
X178250500Y-102323919D01*
X178250500Y-98370525D01*
X188274500Y-98370525D01*
X188274500Y-98629474D01*
X188274501Y-98629491D01*
X188308299Y-98886217D01*
X188308300Y-98886222D01*
X188308301Y-98886228D01*
X188308302Y-98886230D01*
X188375324Y-99136364D01*
X188474423Y-99375609D01*
X188474427Y-99375619D01*
X188603906Y-99599883D01*
X188761551Y-99805331D01*
X188761557Y-99805338D01*
X188944661Y-99988442D01*
X188944668Y-99988448D01*
X189150116Y-100146093D01*
X189374380Y-100275572D01*
X189374381Y-100275572D01*
X189374384Y-100275574D01*
X189613634Y-100374675D01*
X189863772Y-100441699D01*
X190120519Y-100475500D01*
X190120526Y-100475500D01*
X190379474Y-100475500D01*
X190379481Y-100475500D01*
X190636228Y-100441699D01*
X190886366Y-100374675D01*
X191125616Y-100275574D01*
X191349884Y-100146093D01*
X191555333Y-99988447D01*
X191738447Y-99805333D01*
X191896093Y-99599884D01*
X192025574Y-99375616D01*
X192124675Y-99136366D01*
X192191699Y-98886228D01*
X192225500Y-98629481D01*
X192225500Y-98370525D01*
X211774500Y-98370525D01*
X211774500Y-98629474D01*
X211774501Y-98629491D01*
X211808299Y-98886217D01*
X211808300Y-98886222D01*
X211808301Y-98886228D01*
X211808302Y-98886230D01*
X211875324Y-99136364D01*
X211974423Y-99375609D01*
X211974427Y-99375619D01*
X212103906Y-99599883D01*
X212261551Y-99805331D01*
X212261557Y-99805338D01*
X212444661Y-99988442D01*
X212444668Y-99988448D01*
X212650116Y-100146093D01*
X212874380Y-100275572D01*
X212874381Y-100275572D01*
X212874384Y-100275574D01*
X213113634Y-100374675D01*
X213363772Y-100441699D01*
X213620519Y-100475500D01*
X213620526Y-100475500D01*
X213879474Y-100475500D01*
X213879481Y-100475500D01*
X214136228Y-100441699D01*
X214386366Y-100374675D01*
X214625616Y-100275574D01*
X214849884Y-100146093D01*
X215055333Y-99988447D01*
X215238447Y-99805333D01*
X215396093Y-99599884D01*
X215525574Y-99375616D01*
X215624675Y-99136366D01*
X215691699Y-98886228D01*
X215725500Y-98629481D01*
X215725500Y-98370519D01*
X215691699Y-98113772D01*
X215624675Y-97863634D01*
X215525574Y-97624384D01*
X215513612Y-97603666D01*
X215396093Y-97400116D01*
X215238448Y-97194668D01*
X215238442Y-97194661D01*
X215055338Y-97011557D01*
X215055331Y-97011551D01*
X214849883Y-96853906D01*
X214625619Y-96724427D01*
X214625609Y-96724423D01*
X214386364Y-96625324D01*
X214261297Y-96591813D01*
X214136228Y-96558301D01*
X214136222Y-96558300D01*
X214136217Y-96558299D01*
X213879491Y-96524501D01*
X213879486Y-96524500D01*
X213879481Y-96524500D01*
X213620519Y-96524500D01*
X213620513Y-96524500D01*
X213620508Y-96524501D01*
X213363782Y-96558299D01*
X213363775Y-96558300D01*
X213363772Y-96558301D01*
X213310908Y-96572465D01*
X213113635Y-96625324D01*
X212874390Y-96724423D01*
X212874380Y-96724427D01*
X212650116Y-96853906D01*
X212444668Y-97011551D01*
X212444661Y-97011557D01*
X212261557Y-97194661D01*
X212261551Y-97194668D01*
X212103906Y-97400116D01*
X211974427Y-97624380D01*
X211974423Y-97624390D01*
X211875324Y-97863635D01*
X211808302Y-98113769D01*
X211808299Y-98113782D01*
X211774501Y-98370508D01*
X211774500Y-98370525D01*
X192225500Y-98370525D01*
X192225500Y-98370519D01*
X192191699Y-98113772D01*
X192124675Y-97863634D01*
X192025574Y-97624384D01*
X192013612Y-97603666D01*
X191896093Y-97400116D01*
X191738448Y-97194668D01*
X191738442Y-97194661D01*
X191555338Y-97011557D01*
X191555331Y-97011551D01*
X191349883Y-96853906D01*
X191125619Y-96724427D01*
X191125609Y-96724423D01*
X190886364Y-96625324D01*
X190761297Y-96591813D01*
X190636228Y-96558301D01*
X190636222Y-96558300D01*
X190636217Y-96558299D01*
X190379491Y-96524501D01*
X190379486Y-96524500D01*
X190379481Y-96524500D01*
X190120519Y-96524500D01*
X190120513Y-96524500D01*
X190120508Y-96524501D01*
X189863782Y-96558299D01*
X189863775Y-96558300D01*
X189863772Y-96558301D01*
X189810908Y-96572465D01*
X189613635Y-96625324D01*
X189374390Y-96724423D01*
X189374380Y-96724427D01*
X189150116Y-96853906D01*
X188944668Y-97011551D01*
X188944661Y-97011557D01*
X188761557Y-97194661D01*
X188761551Y-97194668D01*
X188603906Y-97400116D01*
X188474427Y-97624380D01*
X188474423Y-97624390D01*
X188375324Y-97863635D01*
X188308302Y-98113769D01*
X188308299Y-98113782D01*
X188274501Y-98370508D01*
X188274500Y-98370525D01*
X178250500Y-98370525D01*
X178250500Y-69874500D01*
X178270185Y-69807461D01*
X178322989Y-69761706D01*
X178374500Y-69750500D01*
X199137770Y-69750500D01*
X199204809Y-69770185D01*
X199225451Y-69786819D01*
X200263181Y-70824549D01*
X200296666Y-70885872D01*
X200299500Y-70912230D01*
X200299500Y-72838706D01*
X200279815Y-72905745D01*
X200227011Y-72951500D01*
X200218851Y-72954881D01*
X200216848Y-72955628D01*
X199965690Y-73092770D01*
X199965682Y-73092775D01*
X199736612Y-73264254D01*
X199736594Y-73264270D01*
X199534270Y-73466594D01*
X199534254Y-73466612D01*
X199362775Y-73695682D01*
X199362770Y-73695690D01*
X199225635Y-73946833D01*
X199125628Y-74214962D01*
X199064804Y-74494566D01*
X199044390Y-74779998D01*
X199044390Y-74780001D01*
X199064804Y-75065433D01*
X199125628Y-75345037D01*
X199225635Y-75613166D01*
X199362770Y-75864309D01*
X199362775Y-75864317D01*
X199534254Y-76093387D01*
X199534270Y-76093405D01*
X199736594Y-76295729D01*
X199736612Y-76295745D01*
X199965682Y-76467224D01*
X199965690Y-76467229D01*
X200216833Y-76604364D01*
X200216832Y-76604364D01*
X200216836Y-76604365D01*
X200216839Y-76604367D01*
X200484954Y-76704369D01*
X200484960Y-76704370D01*
X200484962Y-76704371D01*
X200764566Y-76765195D01*
X200764568Y-76765195D01*
X200764572Y-76765196D01*
X201018220Y-76783337D01*
X201049999Y-76785610D01*
X201050000Y-76785610D01*
X201050001Y-76785610D01*
X201078595Y-76783564D01*
X201335428Y-76765196D01*
X201525742Y-76723796D01*
X201615037Y-76704371D01*
X201615037Y-76704370D01*
X201615046Y-76704369D01*
X201883161Y-76604367D01*
X202134315Y-76467226D01*
X202363395Y-76295739D01*
X202565739Y-76093395D01*
X202737226Y-75864315D01*
X202874367Y-75613161D01*
X202974369Y-75345046D01*
X203024264Y-75115680D01*
X203035195Y-75065433D01*
X203035195Y-75065432D01*
X203035196Y-75065428D01*
X203055610Y-74780000D01*
X203035196Y-74494572D01*
X202974369Y-74214954D01*
X202874367Y-73946839D01*
X202852859Y-73907451D01*
X202737229Y-73695690D01*
X202737224Y-73695682D01*
X202565745Y-73466612D01*
X202565729Y-73466594D01*
X202363405Y-73264270D01*
X202363387Y-73264254D01*
X202134317Y-73092775D01*
X202134309Y-73092770D01*
X201980807Y-73008952D01*
X201883161Y-72955633D01*
X201883158Y-72955632D01*
X201883151Y-72955628D01*
X201881149Y-72954881D01*
X201880575Y-72954451D01*
X201879123Y-72953788D01*
X201879267Y-72953471D01*
X201825222Y-72913002D01*
X201800815Y-72847534D01*
X201800500Y-72838706D01*
X201800500Y-70476079D01*
X201771659Y-70331092D01*
X201771658Y-70331091D01*
X201771658Y-70331087D01*
X201747011Y-70271584D01*
X201715086Y-70194509D01*
X201715085Y-70194507D01*
X201682186Y-70145270D01*
X201682185Y-70145268D01*
X201632956Y-70071589D01*
X201632952Y-70071584D01*
X199978421Y-68417052D01*
X199978414Y-68417046D01*
X199904729Y-68367812D01*
X199904729Y-68367813D01*
X199855491Y-68334913D01*
X199718917Y-68278343D01*
X199718907Y-68278340D01*
X199573920Y-68249500D01*
X199573918Y-68249500D01*
X177573918Y-68249500D01*
X177426082Y-68249500D01*
X177426080Y-68249500D01*
X177281092Y-68278340D01*
X177281082Y-68278343D01*
X177144511Y-68334912D01*
X177144498Y-68334919D01*
X177021584Y-68417048D01*
X177021580Y-68417051D01*
X176917051Y-68521580D01*
X176917048Y-68521584D01*
X176834919Y-68644498D01*
X176834912Y-68644511D01*
X176778343Y-68781082D01*
X176778340Y-68781092D01*
X176749500Y-68926079D01*
X176749500Y-101887770D01*
X176729815Y-101954809D01*
X176713181Y-101975451D01*
X174331701Y-104356931D01*
X174270378Y-104390416D01*
X174244020Y-104393250D01*
X173497293Y-104393250D01*
X173430254Y-104373565D01*
X173384499Y-104320761D01*
X173381114Y-104312590D01*
X173380369Y-104310595D01*
X173380364Y-104310583D01*
X173243229Y-104059440D01*
X173243224Y-104059432D01*
X173071745Y-103830362D01*
X173071729Y-103830344D01*
X172869405Y-103628020D01*
X172869387Y-103628004D01*
X172640317Y-103456525D01*
X172640309Y-103456520D01*
X172389166Y-103319385D01*
X172389167Y-103319385D01*
X172281915Y-103279382D01*
X172121046Y-103219381D01*
X172121043Y-103219380D01*
X172121037Y-103219378D01*
X171841433Y-103158554D01*
X171556001Y-103138140D01*
X171555999Y-103138140D01*
X171270566Y-103158554D01*
X170990962Y-103219378D01*
X170722833Y-103319385D01*
X170471690Y-103456520D01*
X170471682Y-103456525D01*
X170242612Y-103628004D01*
X170242594Y-103628020D01*
X170040270Y-103830344D01*
X170040254Y-103830362D01*
X169868775Y-104059432D01*
X169868770Y-104059440D01*
X169731635Y-104310583D01*
X169631628Y-104578712D01*
X169570804Y-104858316D01*
X169550390Y-105143748D01*
X166449109Y-105143748D01*
X166428699Y-104858387D01*
X166367890Y-104578854D01*
X166267908Y-104310791D01*
X166130808Y-104059711D01*
X166130803Y-104059703D01*
X166024116Y-103917186D01*
X166024115Y-103917185D01*
X165306572Y-104634728D01*
X165220751Y-104506287D01*
X165081463Y-104366999D01*
X164953020Y-104281175D01*
X165670563Y-103563633D01*
X165670562Y-103563632D01*
X165528046Y-103456946D01*
X165528038Y-103456941D01*
X165276957Y-103319841D01*
X165276958Y-103319841D01*
X165008895Y-103219859D01*
X164729362Y-103159050D01*
X164444001Y-103138641D01*
X164443999Y-103138641D01*
X164158637Y-103159050D01*
X163879104Y-103219859D01*
X163611041Y-103319841D01*
X163359961Y-103456941D01*
X163359953Y-103456946D01*
X163217435Y-103563632D01*
X163934979Y-104281176D01*
X163806537Y-104366999D01*
X163667249Y-104506287D01*
X163581426Y-104634729D01*
X162863882Y-103917185D01*
X162757196Y-104059703D01*
X162757191Y-104059711D01*
X162620091Y-104310791D01*
X162520109Y-104578854D01*
X162459300Y-104858387D01*
X162438891Y-105143748D01*
X150750798Y-105143748D01*
X150806894Y-105023450D01*
X150864070Y-104810068D01*
X150883323Y-104590000D01*
X150882335Y-104578712D01*
X150865862Y-104390416D01*
X150864070Y-104369932D01*
X150806894Y-104156550D01*
X150713534Y-103956339D01*
X150644110Y-103857190D01*
X150586827Y-103775381D01*
X150553532Y-103742086D01*
X150430620Y-103619174D01*
X150430616Y-103619171D01*
X150430615Y-103619170D01*
X150249666Y-103492468D01*
X150249658Y-103492464D01*
X150120811Y-103432382D01*
X150068371Y-103386210D01*
X150049219Y-103319017D01*
X150069435Y-103252135D01*
X150120811Y-103207618D01*
X150126802Y-103204824D01*
X150249662Y-103147534D01*
X150430620Y-103020826D01*
X150586826Y-102864620D01*
X150713534Y-102683662D01*
X150806894Y-102483450D01*
X150864070Y-102270068D01*
X150882780Y-102056204D01*
X150883323Y-102050002D01*
X150883323Y-102049997D01*
X150874995Y-101954809D01*
X150864070Y-101829932D01*
X150806894Y-101616550D01*
X150713534Y-101416339D01*
X150586826Y-101235380D01*
X150430620Y-101079174D01*
X150430616Y-101079171D01*
X150430615Y-101079170D01*
X150249666Y-100952468D01*
X150249658Y-100952464D01*
X150120811Y-100892382D01*
X150068371Y-100846210D01*
X150049219Y-100779017D01*
X150069435Y-100712135D01*
X150120811Y-100667618D01*
X150145925Y-100655907D01*
X150249662Y-100607534D01*
X150430620Y-100480826D01*
X150586826Y-100324620D01*
X150713534Y-100143662D01*
X150806894Y-99943450D01*
X150864070Y-99730068D01*
X150883323Y-99510000D01*
X150864070Y-99289932D01*
X150806894Y-99076550D01*
X150713534Y-98876339D01*
X150586826Y-98695380D01*
X150430620Y-98539174D01*
X150430616Y-98539171D01*
X150430615Y-98539170D01*
X150249666Y-98412468D01*
X150249658Y-98412464D01*
X150120811Y-98352382D01*
X150068371Y-98306210D01*
X150049219Y-98239017D01*
X150069435Y-98172135D01*
X150120811Y-98127618D01*
X150150510Y-98113769D01*
X150249662Y-98067534D01*
X150430620Y-97940826D01*
X150586826Y-97784620D01*
X150713534Y-97603662D01*
X150806894Y-97403450D01*
X150864070Y-97190068D01*
X150883323Y-96970000D01*
X150864070Y-96749932D01*
X150806894Y-96536550D01*
X150713534Y-96336339D01*
X150586826Y-96155380D01*
X150430620Y-95999174D01*
X150430616Y-95999171D01*
X150430615Y-95999170D01*
X150249666Y-95872468D01*
X150249658Y-95872464D01*
X150120811Y-95812382D01*
X150068371Y-95766210D01*
X150049219Y-95699017D01*
X150069435Y-95632135D01*
X150120811Y-95587618D01*
X150156281Y-95571078D01*
X150249662Y-95527534D01*
X150430620Y-95400826D01*
X150586826Y-95244620D01*
X150713534Y-95063662D01*
X150806894Y-94863450D01*
X150864070Y-94650068D01*
X150883323Y-94430000D01*
X150864070Y-94209932D01*
X150806894Y-93996550D01*
X150713534Y-93796339D01*
X150586826Y-93615380D01*
X150430620Y-93459174D01*
X150430616Y-93459171D01*
X150430615Y-93459170D01*
X150249666Y-93332468D01*
X150249658Y-93332464D01*
X150120811Y-93272382D01*
X150068371Y-93226210D01*
X150049219Y-93159017D01*
X150069435Y-93092135D01*
X150120811Y-93047618D01*
X150126802Y-93044824D01*
X150249662Y-92987534D01*
X150430620Y-92860826D01*
X150586826Y-92704620D01*
X150713534Y-92523662D01*
X150806894Y-92323450D01*
X150864070Y-92110068D01*
X150883323Y-91890000D01*
X150864070Y-91669932D01*
X150806894Y-91456550D01*
X150713534Y-91256339D01*
X150586826Y-91075380D01*
X150430620Y-90919174D01*
X150430616Y-90919171D01*
X150430615Y-90919170D01*
X150249666Y-90792468D01*
X150249658Y-90792464D01*
X150120811Y-90732382D01*
X150068371Y-90686210D01*
X150049219Y-90619017D01*
X150069435Y-90552135D01*
X150120811Y-90507618D01*
X150126802Y-90504824D01*
X150249662Y-90447534D01*
X150430620Y-90320826D01*
X150586826Y-90164620D01*
X150713534Y-89983662D01*
X150806894Y-89783450D01*
X150864070Y-89570068D01*
X150883323Y-89350000D01*
X150864070Y-89129932D01*
X150806894Y-88916550D01*
X150713534Y-88716339D01*
X150586826Y-88535380D01*
X150430620Y-88379174D01*
X150430616Y-88379171D01*
X150430615Y-88379170D01*
X150249666Y-88252468D01*
X150249658Y-88252464D01*
X150120811Y-88192382D01*
X150068371Y-88146210D01*
X150049219Y-88079017D01*
X150069435Y-88012135D01*
X150120811Y-87967618D01*
X150126802Y-87964824D01*
X150249662Y-87907534D01*
X150430620Y-87780826D01*
X150586826Y-87624620D01*
X150713534Y-87443662D01*
X150806894Y-87243450D01*
X150864070Y-87030068D01*
X150883323Y-86810000D01*
X150864070Y-86589932D01*
X150806894Y-86376550D01*
X150713534Y-86176339D01*
X150631045Y-86058532D01*
X150586827Y-85995381D01*
X150530578Y-85939132D01*
X150430620Y-85839174D01*
X150430616Y-85839171D01*
X150430615Y-85839170D01*
X150249666Y-85712468D01*
X150249658Y-85712464D01*
X150120811Y-85652382D01*
X150068371Y-85606210D01*
X150049219Y-85539017D01*
X150069435Y-85472135D01*
X150120811Y-85427618D01*
X150126802Y-85424824D01*
X150249662Y-85367534D01*
X150430620Y-85240826D01*
X150586826Y-85084620D01*
X150713534Y-84903662D01*
X150806894Y-84703450D01*
X150864070Y-84490068D01*
X150883323Y-84270000D01*
X150864070Y-84049932D01*
X150806894Y-83836550D01*
X150713534Y-83636339D01*
X150586826Y-83455380D01*
X150430620Y-83299174D01*
X150430616Y-83299171D01*
X150430615Y-83299170D01*
X150249666Y-83172468D01*
X150249658Y-83172464D01*
X150120811Y-83112382D01*
X150068371Y-83066210D01*
X150049219Y-82999017D01*
X150069435Y-82932135D01*
X150120811Y-82887618D01*
X150126802Y-82884824D01*
X150249662Y-82827534D01*
X150430620Y-82700826D01*
X150586826Y-82544620D01*
X150713534Y-82363662D01*
X150806894Y-82163450D01*
X150864070Y-81950068D01*
X150883323Y-81730000D01*
X150864070Y-81509932D01*
X150806894Y-81296550D01*
X150713534Y-81096339D01*
X150586826Y-80915380D01*
X150430620Y-80759174D01*
X150430616Y-80759171D01*
X150430615Y-80759170D01*
X150249666Y-80632468D01*
X150249658Y-80632464D01*
X150120811Y-80572382D01*
X150068371Y-80526210D01*
X150049219Y-80459017D01*
X150069435Y-80392135D01*
X150120811Y-80347618D01*
X150126802Y-80344824D01*
X150249662Y-80287534D01*
X150430620Y-80160826D01*
X150586826Y-80004620D01*
X150713534Y-79823662D01*
X150806894Y-79623450D01*
X150864070Y-79410068D01*
X150883323Y-79190000D01*
X150871793Y-79058213D01*
X150885559Y-78989715D01*
X150907637Y-78959729D01*
X154360952Y-75506416D01*
X162030549Y-67836819D01*
X162091872Y-67803334D01*
X162118230Y-67800500D01*
X205657770Y-67800500D01*
X205724809Y-67820185D01*
X205745451Y-67836819D01*
X211713181Y-73804549D01*
X211746666Y-73865872D01*
X211749500Y-73892230D01*
X211749500Y-76327870D01*
X211749501Y-76327876D01*
X211755908Y-76387483D01*
X211806202Y-76522328D01*
X211806206Y-76522335D01*
X211892452Y-76637544D01*
X211892455Y-76637547D01*
X212007664Y-76723793D01*
X212007671Y-76723797D01*
X212142517Y-76774091D01*
X212142516Y-76774091D01*
X212149444Y-76774835D01*
X212202127Y-76780500D01*
X215297872Y-76780499D01*
X215357483Y-76774091D01*
X215492331Y-76723796D01*
X215607546Y-76637546D01*
X215693796Y-76522331D01*
X215744091Y-76387483D01*
X215750500Y-76327873D01*
X215750499Y-73232128D01*
X215744091Y-73172517D01*
X215714347Y-73092770D01*
X215693797Y-73037671D01*
X215693793Y-73037664D01*
X215607547Y-72922455D01*
X215607544Y-72922452D01*
X215492335Y-72836206D01*
X215492328Y-72836202D01*
X215357482Y-72785908D01*
X215357483Y-72785908D01*
X215297883Y-72779501D01*
X215297881Y-72779500D01*
X215297873Y-72779500D01*
X215297865Y-72779500D01*
X212862230Y-72779500D01*
X212795191Y-72759815D01*
X212774549Y-72743181D01*
X206498421Y-66467052D01*
X206498414Y-66467046D01*
X206424729Y-66417812D01*
X206424729Y-66417813D01*
X206375495Y-66384916D01*
X206375492Y-66384914D01*
X206375491Y-66384914D01*
X206343254Y-66371561D01*
X206288850Y-66327721D01*
X206266785Y-66261427D01*
X206284064Y-66193727D01*
X206335201Y-66146116D01*
X206390706Y-66133000D01*
X228356000Y-66133000D01*
X228423039Y-66152685D01*
X228468794Y-66205489D01*
X228480000Y-66257000D01*
X228480000Y-130358000D01*
X228460315Y-130425039D01*
X228407511Y-130470794D01*
X228356000Y-130482000D01*
X104755000Y-130482000D01*
X104687961Y-130462315D01*
X104642206Y-130409511D01*
X104631000Y-130358000D01*
X104631000Y-116452135D01*
X118749500Y-116452135D01*
X118749500Y-117547870D01*
X118749501Y-117547876D01*
X118755908Y-117607483D01*
X118806202Y-117742328D01*
X118806206Y-117742335D01*
X118892452Y-117857544D01*
X118892455Y-117857547D01*
X119007664Y-117943793D01*
X119007671Y-117943797D01*
X119142517Y-117994091D01*
X119142516Y-117994091D01*
X119149444Y-117994835D01*
X119202127Y-118000500D01*
X120297872Y-118000499D01*
X120357483Y-117994091D01*
X120492331Y-117943796D01*
X120607546Y-117857546D01*
X120693796Y-117742331D01*
X120744091Y-117607483D01*
X120750500Y-117547873D01*
X120750499Y-116452128D01*
X120744091Y-116392517D01*
X120693796Y-116257669D01*
X120693795Y-116257668D01*
X120693793Y-116257664D01*
X120607547Y-116142455D01*
X120607544Y-116142452D01*
X120492335Y-116056206D01*
X120492328Y-116056202D01*
X120357482Y-116005908D01*
X120357483Y-116005908D01*
X120297883Y-115999501D01*
X120297881Y-115999500D01*
X120297873Y-115999500D01*
X120297864Y-115999500D01*
X119202129Y-115999500D01*
X119202123Y-115999501D01*
X119142516Y-116005908D01*
X119007671Y-116056202D01*
X119007664Y-116056206D01*
X118892455Y-116142452D01*
X118892452Y-116142455D01*
X118806206Y-116257664D01*
X118806202Y-116257671D01*
X118755908Y-116392517D01*
X118749501Y-116452116D01*
X118749501Y-116452123D01*
X118749500Y-116452135D01*
X104631000Y-116452135D01*
X104631000Y-109702135D01*
X108999500Y-109702135D01*
X108999500Y-110797870D01*
X108999501Y-110797876D01*
X109005908Y-110857483D01*
X109056202Y-110992328D01*
X109056206Y-110992335D01*
X109142452Y-111107544D01*
X109142455Y-111107547D01*
X109257664Y-111193793D01*
X109257671Y-111193797D01*
X109392517Y-111244091D01*
X109392516Y-111244091D01*
X109399444Y-111244835D01*
X109452127Y-111250500D01*
X110547872Y-111250499D01*
X110607483Y-111244091D01*
X110742331Y-111193796D01*
X110857546Y-111107546D01*
X110943796Y-110992331D01*
X110994091Y-110857483D01*
X111000500Y-110797873D01*
X111000499Y-109702135D01*
X118749500Y-109702135D01*
X118749500Y-110797870D01*
X118749501Y-110797876D01*
X118755908Y-110857483D01*
X118806202Y-110992328D01*
X118806206Y-110992335D01*
X118892452Y-111107544D01*
X118892455Y-111107547D01*
X119007664Y-111193793D01*
X119007671Y-111193797D01*
X119142517Y-111244091D01*
X119142516Y-111244091D01*
X119149444Y-111244835D01*
X119202127Y-111250500D01*
X120297872Y-111250499D01*
X120357483Y-111244091D01*
X120492331Y-111193796D01*
X120607546Y-111107546D01*
X120693796Y-110992331D01*
X120744091Y-110857483D01*
X120750500Y-110797873D01*
X120750499Y-109702128D01*
X120744091Y-109642517D01*
X120693796Y-109507669D01*
X120693795Y-109507668D01*
X120693793Y-109507664D01*
X120607547Y-109392455D01*
X120607544Y-109392452D01*
X120492335Y-109306206D01*
X120492328Y-109306202D01*
X120357482Y-109255908D01*
X120357483Y-109255908D01*
X120297883Y-109249501D01*
X120297881Y-109249500D01*
X120297873Y-109249500D01*
X120297864Y-109249500D01*
X119202129Y-109249500D01*
X119202123Y-109249501D01*
X119142516Y-109255908D01*
X119007671Y-109306202D01*
X119007664Y-109306206D01*
X118892455Y-109392452D01*
X118892452Y-109392455D01*
X118806206Y-109507664D01*
X118806202Y-109507671D01*
X118755908Y-109642517D01*
X118749501Y-109702116D01*
X118749501Y-109702123D01*
X118749500Y-109702135D01*
X111000499Y-109702135D01*
X111000499Y-109702128D01*
X110994091Y-109642517D01*
X110943796Y-109507669D01*
X110943795Y-109507668D01*
X110943793Y-109507664D01*
X110857547Y-109392455D01*
X110857544Y-109392452D01*
X110742335Y-109306206D01*
X110742328Y-109306202D01*
X110607482Y-109255908D01*
X110607483Y-109255908D01*
X110547883Y-109249501D01*
X110547881Y-109249500D01*
X110547873Y-109249500D01*
X110547864Y-109249500D01*
X109452129Y-109249500D01*
X109452123Y-109249501D01*
X109392516Y-109255908D01*
X109257671Y-109306202D01*
X109257664Y-109306206D01*
X109142455Y-109392452D01*
X109142452Y-109392455D01*
X109056206Y-109507664D01*
X109056202Y-109507671D01*
X109005908Y-109642517D01*
X108999501Y-109702116D01*
X108999501Y-109702123D01*
X108999500Y-109702135D01*
X104631000Y-109702135D01*
X104631000Y-103547844D01*
X108750000Y-103547844D01*
X108756401Y-103607372D01*
X108756403Y-103607379D01*
X108806645Y-103742086D01*
X108806649Y-103742093D01*
X108892809Y-103857187D01*
X108892812Y-103857190D01*
X109007906Y-103943350D01*
X109007913Y-103943354D01*
X109142620Y-103993596D01*
X109142627Y-103993598D01*
X109202155Y-103999999D01*
X109202172Y-104000000D01*
X109500000Y-104000000D01*
X110000000Y-104000000D01*
X110297828Y-104000000D01*
X110297844Y-103999999D01*
X110357372Y-103993598D01*
X110357379Y-103993596D01*
X110492086Y-103943354D01*
X110492093Y-103943350D01*
X110607187Y-103857190D01*
X110607190Y-103857187D01*
X110693350Y-103742093D01*
X110693354Y-103742086D01*
X110743596Y-103607379D01*
X110743598Y-103607372D01*
X110749999Y-103547844D01*
X110750000Y-103547827D01*
X110750000Y-103250000D01*
X110000000Y-103250000D01*
X110000000Y-104000000D01*
X109500000Y-104000000D01*
X109500000Y-103250000D01*
X108750000Y-103250000D01*
X108750000Y-103547844D01*
X104631000Y-103547844D01*
X104631000Y-102953922D01*
X109400000Y-102953922D01*
X109400000Y-103046078D01*
X109423852Y-103135095D01*
X109469930Y-103214905D01*
X109535095Y-103280070D01*
X109614905Y-103326148D01*
X109703922Y-103350000D01*
X109796078Y-103350000D01*
X109885095Y-103326148D01*
X109964905Y-103280070D01*
X110030070Y-103214905D01*
X110076148Y-103135095D01*
X110100000Y-103046078D01*
X110100000Y-102953922D01*
X110076148Y-102864905D01*
X110030070Y-102785095D01*
X109994975Y-102750000D01*
X110000000Y-102750000D01*
X110750000Y-102750000D01*
X110750000Y-102452172D01*
X110749999Y-102452155D01*
X110749997Y-102452135D01*
X118499500Y-102452135D01*
X118499500Y-103547870D01*
X118499501Y-103547876D01*
X118505908Y-103607483D01*
X118556202Y-103742328D01*
X118556206Y-103742335D01*
X118642452Y-103857544D01*
X118642455Y-103857547D01*
X118757664Y-103943793D01*
X118757671Y-103943797D01*
X118892517Y-103994091D01*
X118892516Y-103994091D01*
X118899444Y-103994835D01*
X118952127Y-104000500D01*
X120047872Y-104000499D01*
X120107483Y-103994091D01*
X120242331Y-103943796D01*
X120357546Y-103857546D01*
X120443796Y-103742331D01*
X120494091Y-103607483D01*
X120500500Y-103547873D01*
X120500499Y-102452128D01*
X120494091Y-102392517D01*
X120468505Y-102323918D01*
X120443797Y-102257671D01*
X120443793Y-102257664D01*
X120357547Y-102142455D01*
X120357544Y-102142452D01*
X120242335Y-102056206D01*
X120242328Y-102056202D01*
X120107482Y-102005908D01*
X120107483Y-102005908D01*
X120047883Y-101999501D01*
X120047881Y-101999500D01*
X120047873Y-101999500D01*
X120047864Y-101999500D01*
X118952129Y-101999500D01*
X118952123Y-101999501D01*
X118892516Y-102005908D01*
X118757671Y-102056202D01*
X118757664Y-102056206D01*
X118642455Y-102142452D01*
X118642452Y-102142455D01*
X118556206Y-102257664D01*
X118556202Y-102257671D01*
X118505908Y-102392517D01*
X118499501Y-102452116D01*
X118499501Y-102452123D01*
X118499500Y-102452135D01*
X110749997Y-102452135D01*
X110743598Y-102392627D01*
X110743596Y-102392620D01*
X110693354Y-102257913D01*
X110693350Y-102257906D01*
X110607190Y-102142812D01*
X110607187Y-102142809D01*
X110492093Y-102056649D01*
X110492086Y-102056645D01*
X110357379Y-102006403D01*
X110357372Y-102006401D01*
X110297844Y-102000000D01*
X110000000Y-102000000D01*
X110000000Y-102750000D01*
X109994975Y-102750000D01*
X109964905Y-102719930D01*
X109885095Y-102673852D01*
X109796078Y-102650000D01*
X109703922Y-102650000D01*
X109614905Y-102673852D01*
X109535095Y-102719930D01*
X109469930Y-102785095D01*
X109423852Y-102864905D01*
X109400000Y-102953922D01*
X104631000Y-102953922D01*
X104631000Y-102452155D01*
X108750000Y-102452155D01*
X108750000Y-102750000D01*
X109500000Y-102750000D01*
X109500000Y-102000000D01*
X109202155Y-102000000D01*
X109142627Y-102006401D01*
X109142620Y-102006403D01*
X109007913Y-102056645D01*
X109007906Y-102056649D01*
X108892812Y-102142809D01*
X108892809Y-102142812D01*
X108806649Y-102257906D01*
X108806645Y-102257913D01*
X108756403Y-102392620D01*
X108756401Y-102392627D01*
X108750000Y-102452155D01*
X104631000Y-102452155D01*
X104631000Y-66257000D01*
X104650685Y-66189961D01*
X104703489Y-66144206D01*
X104755000Y-66133000D01*
X161385294Y-66133000D01*
X161452333Y-66152685D01*
G37*
%TD.AperFunction*%
%TD*%
M02*
